<svg xmlns="http://www.w3.org/2000/svg" viewBox="0 0 2166.667 2166.667"><path fill="none" d="M-1-1h582v402H-1z"/><path fill="#FF9100" d="M582.667 2082.667v-61.334h66.666v-76h69.334v-406.666h195.726l1.503-8.633c5.71-32.789 39.66-99.52 89.531-175.983l13.682-20.976-1.747-4.871c-.96-2.679-82.667-221.45-181.57-486.157C736.89 577.339 656.146 360.23 656.362 359.58c.216-.648 46.225 68.479 102.243 153.615 56.018 85.136 102.07 154.573 102.34 154.304.268-.269 7.342-40.316 15.72-88.995L891.894 490l-14.948-14.571C784.53 385.337 704 306.042 704 305.131c0-.622.649-1.131 1.441-1.131 4.683 0 257.97-37.57 258.642-38.365.45-.533 26.826-53.928 58.613-118.656 31.787-64.729 58.23-117.229 58.762-116.667.532.562 26.881 53.821 58.554 118.355 31.673 64.533 57.705 117.46 57.848 117.616.143.155 58.893 8.828 130.554 19.273 71.661 10.444 130.134 19.332 129.94 19.75-.195.42-42.504 42.036-94.02 92.483-51.517 50.447-93.677 92.431-93.688 93.3-.043 3.35 32.462 192.29 33.22 193.09.44.466 45.8-72.567 100.8-162.295s100.445-163.159 100.99-163.18c.543-.02-.422 3.713-2.145 8.296-1.723 4.583-83.646 223.806-182.053 487.162l-178.92 478.829 13.832 21.171c50.714 77.623 85.764 146.958 89.731 177.505l.91 7H1444v406.666h68v76h68V2144H582.667v-61.333zm603.314-1204.73c49.49-80.58 89.54-146.922 89-147.429-.54-.506-44.413-23.833-97.496-51.837-72.072-38.022-97.096-50.632-98.81-49.794-1.261.618-42.509 22.363-91.66 48.323l-89.366 47.199 15.509 23.668c67.368 102.81 182.239 276.964 182.509 276.701.183-.178 40.825-66.252 90.314-146.831z"/></svg>