<svg height="512" viewBox="0 0 64 64" width="512" xmlns="http://www.w3.org/2000/svg"><path d="M32.005 11.004h-20v13c0 11.04 8.95 20 20 20 11.04 0 20-8.96 20-20v-13z" fill="#da4453"/><path d="M55.995 3.004v6c0 1.1-.9 2-2 2h-43.99c-1.09 0-2-.9-2-2v-6z" fill="#656d78"/><path d="M32.005 22.993c1.66 0 3 1.34 3 3s-1.34 3-3 3-3-1.34-3-3 1.34-3 3-3z" fill="#ed5565"/><path d="M53.993 12.004H10.007c-1.654 0-3-1.346-3-3V3.002a1 1 0 112 0v6.002a1 1 0 001 1h43.986a1 1 0 001-1V3.002a1 1 0 112 0v6.002c0 1.654-1.346 3-3 3zM32 45.004c-11.579 0-21-9.421-21-21a1 1 0 112 0c0 10.477 8.523 19 19 19s19-8.523 19-19a1 1 0 112 0c0 11.579-9.421 21-21 21z"/><path d="M12 25.004a1 1 0 01-1-1v-13a1 1 0 112 0v13a1 1 0 01-1 1zm40 0a1 1 0 01-1-1v-13a1 1 0 112 0v13a1 1 0 01-1 1zM63 4.002H1a1 1 0 110-2h62a1 1 0 110 2zM32 23.996a1 1 0 01-1-1V11.004a1 1 0 112 0v11.992a1 1 0 01-1 1z"/><path d="M32 29.996c-2.206 0-4-1.794-4-4s1.794-4 4-4 4 1.794 4 4-1.794 4-4 4zm0-6c-1.103 0-2 .897-2 2s.897 2 2 2 2-.897 2-2-.897-2-2-2zm0 38.002a1 1 0 01-1-1v-13a1 1 0 112 0v13a1 1 0 01-1 1zm14.164-2.818a1 1 0 01-.924-.617l-4.975-12.01a1 1 0 011.848-.766l4.975 12.01a1 1 0 01-.924 1.383zm12.007-8.024a.997.997 0 01-.707-.293l-9.191-9.191a.999.999 0 111.414-1.414l9.191 9.191a.999.999 0 01-.707 1.707zm-52.346.006a.999.999 0 01-.707-1.707l9.192-9.195a.999.999 0 111.414 1.414l-9.192 9.195a.997.997 0 01-.707.293zm12.009 8.024a1 1 0 01-.924-1.383l4.975-12.012a1.001 1.001 0 011.848.766l-4.975 12.012a1.001 1.001 0 01-.924.617z"/></svg>