<svg xmlns="http://www.w3.org/2000/svg" viewBox="0 0 512 512"><path d="M123.586 185.379v44.138c0 77.683 59.145 158.897 132.414 158.897S388.414 307.2 388.414 229.517v-44.138H123.586z" fill="#faba81"/><path d="M291.31 26.483v-8.828C291.31 7.945 283.366 0 273.655 0h-35.31c-9.71 0-17.655 7.945-17.655 17.655v8.828c-66.207 15.89-114.759 70.621-114.759 141.241v17.655h300.138v-17.655c0-70.621-48.552-125.352-114.759-141.241" fill="#f4ba48"/><path d="M291.31 70.621c-5.297 0-8.828-3.531-8.828-8.828V35.31c0-5.297 3.531-8.828 8.828-8.828s8.828 3.531 8.828 8.828v26.483c0 5.297-3.531 8.828-8.828 8.828m-70.62 0c-5.297 0-8.828-3.531-8.828-8.828V35.31c0-5.297 3.531-8.828 8.828-8.828s8.828 3.531 8.828 8.828v26.483c-.001 5.297-3.532 8.828-8.828 8.828m203.034 123.586H88.276c-5.297 0-8.828-3.531-8.828-8.828s3.531-8.828 8.828-8.828h335.448c5.297 0 8.828 3.531 8.828 8.828s-3.531 8.828-8.828 8.828" fill="#b58024"/><path d="M291.31 467.862h-70.62L256 388.414l35.31 79.448zM211.862 512l8.828-44.138h70.621L300.138 512h-88.276z" fill="#364875"/><path d="M161.545 336.331l-2.648-.883-8.828 35.31 70.621 97.103L256 388.414c-37.076 0-70.621-21.186-94.455-52.083m188.91 0c-23.834 30.897-57.379 52.083-94.455 52.083l35.31 79.448 70.621-97.103-8.828-35.31-2.648.882z" fill="#5869a0"/><path d="M490.814 438.731c-48.552-25.6-95.338-45.021-137.71-50.317h-4.414l-57.379 79.448L300.138 512h-3.531H512v-37.959c0-15.007-7.945-28.248-21.186-35.31M163.31 388.414h-4.414c-42.372 5.297-89.159 24.717-137.71 50.317C7.945 445.793 0 459.034 0 474.041V512h211.862l8.828-44.138-57.38-79.448z" fill="#7383bf"/><path d="M127.117 92.69l67.09 13.241-13.241-64.441c-22.069 12.358-40.607 30.013-53.849 51.2m257.766 0l-67.09 13.241 13.241-64.441c22.069 12.358 40.607 30.013 53.849 51.2" fill="#b58024"/></svg>