<svg height="512" viewBox="0 0 64 64" width="512" xmlns="http://www.w3.org/2000/svg"><path d="M15 52v2H3c-.55 0-1-.45-1-1v-2c0-.55.45-1 1-1h10c1.1 0 2 .9 2 2zm47-1v2c0 .55-.45 1-1 1H49v-2c0-1.1.9-2 2-2h10c.55 0 1 .45 1 1z" fill="#cf9e76"/><path d="M54 54h4v8h-4zM6 54h4v8H6zm24-4h4v12h-4z" fill="#b27946"/><path d="M17 45h33a6 6 0 00-5.93 5.11l-.73-.11H20.65l-.72.11A6 6 0 0014 45z" fill="#cf9e76"/><path d="M12.56 45H2.09A5.47 5.47 0 012 44v-5.9c0-1.68.68-3.21 1.79-4.31A6.052 6.052 0 018.1 32c2.86 0 5.34 1.99 5.96 4.78l.77 3.44c.1.45.5.78.97.78H20c.55 0 1.05.22 1.41.59.37.36.59.86.59 1.41 0 1.1-.9 2-2 2h-7zm38.88 0H44c-1.1 0-2-.9-2-2 0-.55.22-1.05.59-1.41.36-.37.86-.59 1.41-.59h4.2c.47 0 .87-.33.97-.78l.77-3.44c.62-2.79 3.1-4.78 5.96-4.78 1.68 0 3.21.68 4.31 1.79A6.052 6.052 0 0162 38.1V44c0 .34-.03.68-.09 1z" fill="#fcd770"/><path d="M14 45a6 6 0 015.93 5.11c.05.29.07.59.07.89v8.5c0 .69-.28 1.32-.73 1.77s-1.08.73-1.77.73a2.5 2.5 0 01-2.5-2.5V52c0-1.1-.9-2-2-2H8a5.99 5.99 0 01-5.91-5H13zm35 9v5.5a2.5 2.5 0 01-5 0V51c0-.3.02-.6.07-.89A6 6 0 0150 45h11.91A5.99 5.99 0 0156 50h-5c-1.1 0-2 .9-2 2zM32 37h6v8h-6zm-6 0h6v8h-6z" fill="#838f9b"/><path d="M22 2v13.27l-7.21-6.55c-.51-.46-1.17-.72-1.85-.72h-.19a2.748 2.748 0 00-1.81 4.82L16.86 18H2V2zm40 0v16H47.14l5.92-5.18c.6-.52.94-1.28.94-2.07 0-.76-.31-1.45-.8-1.95-.5-.49-1.19-.8-1.95-.8h-.19c-.68 0-1.34.26-1.85.72L46 11.64V2z" fill="#e6e9ed"/><path d="M16.86 18l-5.92-5.18A2.748 2.748 0 0112.75 8h.19c.68 0 1.34.26 1.85.72L22 15.27l1.18 1.08a8.115 8.115 0 004.25 2l2.91.41c.15.05.3.09.45.12l-.01.12-.78 9 2 2 2-2-.78-9.03h-.61c.36-.04.71-.11 1.05-.21l2.91-.41c1.58-.23 3.06-.93 4.25-2L46 11.64l3.21-2.92c.51-.46 1.17-.72 1.85-.72h.19c.76 0 1.45.31 1.95.8.49.5.8 1.19.8 1.95 0 .79-.34 1.55-.94 2.07L47.14 18l-7.77 6.8c-.87.76-1.37 1.86-1.37 3.02V37H26v-9.18c0-1.16-.5-2.26-1.37-3.02z" fill="#ff826e"/><path d="M32 19c.21 0 .41-.01.61-.03h.61L34 28l-2 2-2-2 .78-9 .01-.12c.39.08.79.12 1.21.12z" fill="#e6e9ed"/><circle cx="9" cy="27" fill="#f0d0b4" r="5"/><path d="M32 7c3.31 0 6 2.69 6 6a5.99 5.99 0 01-4.34 5.76L32 19l-1.66-.24A5.99 5.99 0 0126 13c0-3.31 2.69-6 6-6z" fill="#f0d0b4"/><circle cx="55" cy="27" fill="#f0d0b4" r="5"/><path d="M40.024 25.558L47.519 19H63V1H45v10.194l-4.854 4.413a6.979 6.979 0 01-2.435 1.425A6.947 6.947 0 0039 13c0-3.859-3.141-7-7-7s-7 3.141-7 7c0 1.502.48 2.891 1.288 4.033a6.984 6.984 0 01-2.434-1.425L23 14.831V1H1v18h15.481l7.495 6.558A2.997 2.997 0 0125 27.815V44h-2.184c.112-.314.184-.648.184-1 0-1.654-1.346-3-3-3h-4.197l-.764-3.438a7.053 7.053 0 00-3.032-4.379A5.995 5.995 0 0015 27c0-3.309-2.691-6-6-6s-6 2.691-6 6c0 1.863.854 3.531 2.19 4.632C2.724 32.747 1 35.225 1 38.104V44c0 1.958.81 3.728 2.111 5H3c-1.103 0-2 .897-2 2v2c0 1.103.897 2 2 2h2v6H3v2h58v-2h-2v-6h2c1.103 0 2-.897 2-2v-2c0-1.103-.897-2-2-2h-.111A6.973 6.973 0 0063 44v-5.896c0-2.878-1.724-5.357-4.19-6.472A5.992 5.992 0 0061 27c0-3.309-2.691-6-6-6s-6 2.691-6 6a5.998 5.998 0 002.993 5.184 7.057 7.057 0 00-3.032 4.379L48.198 40H44c-1.654 0-3 1.346-3 3 0 .352.072.686.184 1H39V27.815c0-.865.373-1.688 1.024-2.257zM47 3h14v14H49.805l3.915-3.426A3.752 3.752 0 0055 10.752 3.757 3.757 0 0051.248 7h-.185c-.936 0-1.831.347-2.523.976L47 9.376zM32.964 27.622l-.964.964-.964-.964.66-7.637c.101.004.201.015.304.015.102 0 .202-.011.303-.015zM32 8c2.757 0 5 2.243 5 5 0 2.298-1.567 4.219-3.682 4.801L32 17.99l-1.318-.188C28.567 17.219 27 15.298 27 13c0-2.757 2.243-5 5-5zM3 17V3h18v10.012l-5.54-5.037A3.748 3.748 0 0012.937 7h-.186A3.756 3.756 0 009 10.752c0 1.081.467 2.11 1.281 2.823L14.195 17zm8.599-4.93A1.75 1.75 0 0112.751 9h.186c.437 0 .854.162 1.178.456l8.396 7.632a8.977 8.977 0 004.78 2.25l2.425.346-.751 8.694L32 31.414l3.036-3.036-.752-8.694 2.426-.346a8.984 8.984 0 004.781-2.25l8.395-7.632A1.745 1.745 0 0151.063 9h.185C52.214 9 53 9.786 53 10.752c0 .505-.218.985-.598 1.317L38.708 24.052A5 5 0 0037 27.815V36H27v-8.185a5.003 5.003 0 00-1.708-3.764zM27 38h4v6h-4zm-6 21.5V51h8v10h-8.351c.218-.456.351-.961.351-1.5zM31 51h2v10h-2zm4 0h8v8.5c0 .539.133 1.044.351 1.5H35zm8.296-2H20.704a7 7 0 00-1.81-3h26.211a7.008 7.008 0 00-1.809 3zM9 23c2.206 0 4 1.794 4 4s-1.794 4-4 4-4-1.794-4-4 1.794-4 4-4zM3 38.104A5.109 5.109 0 018.104 33a5.074 5.074 0 014.982 3.996l.764 3.438A1.988 1.988 0 0015.802 42H20a1 1 0 010 2h-7.438c-.46 0-.858-.312-.971-.757L9.97 36.758l-1.94.484 1.621 6.486c.024.095.061.182.093.272H3zM3.424 46H14c2.757 0 5 2.243 5 5v8.5c0 .827-.673 1.5-1.5 1.5s-1.5-.673-1.5-1.5V52c0-1.654-1.346-3-3-3H8a5.003 5.003 0 01-4.576-3zM14 55v4.5c0 .539.133 1.044.351 1.5H11v-6zM3 51h10a1 1 0 011 1v1H3zm4 4h2v6H7zm43 0h3v6h-3.351c.218-.456.351-.961.351-1.5zm7 6h-2v-6h2zm4-10v2H50v-1a1 1 0 011-1h5zm-10-2c-1.654 0-3 1.346-3 3v7.5c0 .827-.673 1.5-1.5 1.5s-1.5-.673-1.5-1.5V51c0-2.757 2.243-5 5-5h10.576A5.003 5.003 0 0156 49zm4-26c2.206 0 4 1.794 4 4s-1.794 4-4 4-4-1.794-4-4 1.794-4 4-4zM43 43a1 1 0 011-1h4.198a1.99 1.99 0 001.952-1.566l.764-3.438A5.075 5.075 0 0155.896 33 5.109 5.109 0 0161 38.104V44h-6.744c.032-.09.069-.178.093-.272l1.621-6.485-1.939-.484-1.621 6.484a1.002 1.002 0 01-.972.757H44a1 1 0 01-1-1zm-10 1v-6h4v6z"/><path d="M55 13h4v2h-4zm2-4h2v2h-2zm0-4h2v2h-2z"/></svg>