<svg height="512" viewBox="0 0 64 64" width="512" xmlns="http://www.w3.org/2000/svg"><path d="M26.98 38.74V61.5c0 .83-.67 1.5-1.5 1.5-.82 0-1.5-.67-1.5-1.5V38.74c.469.17.969.26 1.5.26.53 0 1.03-.09 1.5-.26z" fill="#ccd1d9"/><path d="M29.98 29.5v5c0 1.96-1.25 3.63-3 4.24-.47.17-.97.26-1.5.26a4.37 4.37 0 01-1.5-.26c-1.75-.61-3-2.28-3-4.24v-5a4.5 4.5 0 014.5-4.5c2.491 0 4.5 2.01 4.5 4.5zM54.01 7v26.03h-6V1c3.32.01 6 2.68 6 6z" fill="#e6e9ed"/><path d="M51.01 33.03V61.5c0 .83-.68 1.5-1.5 1.5-.83 0-1.5-.67-1.5-1.5V33.03zM37.98 21.82V61.5c0 .83-.67 1.5-1.5 1.5s-1.5-.67-1.5-1.5V21.82a6.2 6.2 0 001.5.18c.52 0 1.02-.061 1.5-.18z" fill="#ccd1d9"/><path d="M42.98 7.5v8a6.491 6.491 0 01-5 6.32c-.48.119-.98.18-1.5.18a6.2 6.2 0 01-1.5-.18 6.489 6.489 0 01-5-6.32v-8a6.5 6.5 0 1113 0z" fill="#e6e9ed"/><path d="M15.99 22v39.5c0 .83-.68 1.5-1.5 1.5-.83 0-1.5-.67-1.5-1.5V22z" fill="#ccd1d9"/><path d="M18.99 14v5c0 1.66-1.34 3-3 3h-3c-1.66 0-3-1.34-3-3v-5h6z" fill="#e6e9ed"/><path d="M9.99 20.001a1 1 0 01-1-1v-18a1 1 0 112 0v18a1 1 0 01-1 1zm3-5.002a1 1 0 01-1-1V1.001a1 1 0 112 0v12.998a1 1 0 01-1 1zm3 0a1 1 0 01-1-1V1.001a1 1 0 112 0v12.998a1 1 0 01-1 1zm3 5.002a1 1 0 01-1-1v-18a1 1 0 112 0v18a1 1 0 01-1 1z"/><path d="M12.99 23.001c-2.206 0-4-1.794-4-4a1 1 0 112 0c0 1.103.897 2 2 2a1 1 0 110 2zm3 0a1 1 0 110-2c1.103 0 2-.897 2-2a1 1 0 112 0c0 2.206-1.794 4-4 4z"/><path d="M15.99 23.001h-3a1 1 0 110-2h3a1 1 0 110 2zm3-8h-8.75a1 1 0 110-2h8.75a1 1 0 110 2z"/><path d="M12.99 62.5a1 1 0 01-1-1V22.001a1 1 0 112 0V61.5a1 1 0 01-1 1zm3 0a1 1 0 01-1-1V22.001a1 1 0 112 0V61.5a1 1 0 01-1 1z"/><path d="M14.49 64a2.502 2.502 0 01-2.5-2.5 1 1 0 112 0c0 .275.225.5.5.5s.5-.225.5-.5a1 1 0 112 0c0 1.379-1.121 2.5-2.5 2.5zm33.52-1.5a1 1 0 01-1-1V1.017a1 1 0 112 0V61.5a1 1 0 01-1 1zm3 0a1 1 0 01-1-1V33.029a1 1 0 112 0V61.5a1 1 0 01-1 1z"/><path d="M49.51 64a2.502 2.502 0 01-2.5-2.5 1 1 0 112 0c0 .275.225.5.5.5s.5-.225.5-.5a1 1 0 112 0c0 1.379-1.121 2.5-2.5 2.5zm4.5-29.971h-6a1 1 0 110-2h6a1 1 0 110 2zm0-26.026a1 1 0 01-1-1 5.008 5.008 0 00-5.002-5.002 1 1 0 110-2 7.01 7.01 0 017.002 7.002 1 1 0 01-1 1z"/><path d="M54.01 34.029a1 1 0 01-1-1V7.003a1 1 0 112 0v26.026a1 1 0 01-1 1zm-24.031-17.53a1 1 0 01-1-1v-8a1 1 0 112 0v8a1 1 0 01-1 1zM34.98 62.5a1 1 0 01-1-1V21.825a1 1 0 112 0V61.5a1 1 0 01-1 1zm3 0a1 1 0 01-1-1V21.825a1 1 0 112 0V61.5a1 1 0 01-1 1z"/><path d="M36.48 64a2.502 2.502 0 01-2.5-2.5 1 1 0 112 0c0 .275.225.5.5.5s.5-.225.5-.5a1 1 0 112 0c0 1.379-1.121 2.5-2.5 2.5zm0-40.999c-4.137 0-7.502-3.365-7.502-7.502a1 1 0 112 0c0 3.034 2.468 5.502 5.502 5.502s5.502-2.468 5.502-5.502a1 1 0 112 0c0 4.137-3.365 7.502-7.502 7.502zm6.502-14.502a1 1 0 01-1-1c0-3.033-2.468-5.501-5.502-5.501s-5.502 2.468-5.502 5.501a1 1 0 11-2 0c0-4.136 3.365-7.501 7.502-7.501s7.502 3.365 7.502 7.501a1 1 0 01-1 1z"/><path d="M42.98 16.499a1 1 0 01-1-1v-8a1 1 0 112 0v8a1 1 0 01-1 1zM23.988 62.502a1 1 0 01-1-1V38.741a1 1 0 112 0v22.761a1 1 0 01-1 1zm3 0a1 1 0 01-1-1V38.741a1 1 0 112 0v22.761a1 1 0 01-1 1z"/><path d="M25.488 64.002a2.502 2.502 0 01-2.5-2.5 1 1 0 112 0c0 .275.225.5.5.5s.5-.225.5-.5a1 1 0 112 0c0 1.379-1.121 2.5-2.5 2.5zm4.5-33.501a1 1 0 01-1-1c0-1.93-1.57-3.5-3.5-3.5s-3.5 1.57-3.5 3.5a1 1 0 11-2 0c0-3.032 2.468-5.5 5.5-5.5s5.5 2.468 5.5 5.5a1 1 0 01-1 1zm-4.5 9.5a5.507 5.507 0 01-5.5-5.5 1 1 0 112 0c0 1.93 1.57 3.5 3.5 3.5s3.5-1.57 3.5-3.5a1 1 0 112 0c0 3.032-2.467 5.5-5.5 5.5z"/><path d="M29.988 35.501a1 1 0 01-1-1v-5a1 1 0 112 0v5a1 1 0 01-1 1zm-9 0a1 1 0 01-1-1v-5a1 1 0 112 0v5a1 1 0 01-1 1z"/></svg>