<svg xmlns="http://www.w3.org/2000/svg" viewBox="0 0 512 512"><path fill="#ffd6a0" d="M142.884 129.039h59.535v166.698h-59.535z"/><path d="M229.209 175.179c-13.407 0-24.594 9.984-26.5 22.882l-.291.23v81.968h-35.721v-79.38c0-16.92 3.969-27.386 20.175-48.198l61.601-85.046c12.092-15.486 9.314-38.048-6.173-50.138-15.485-12.092-38.048-9.314-50.138 6.171l-77.125 105.505a71.764 71.764 0 00-13.829 42.351v195.655l71.442 71.442 58.55-50.186a71.018 71.018 0 0024.799-53.92V201.969c.001-14.734-12.055-26.79-26.79-26.79z" fill="#ffe6c6"/><path fill="#aed5f3" d="M212.225 426.232l-75.774 75.774-130.5-130.5 75.774-75.774z"/><path fill="#78b9eb" d="M161.711 476.752l-25.258 25.258-130.5-130.5 25.259-25.258z"/><path fill="#ffd6a0" d="M309.581 129.039h59.535v166.698h-59.535z"/><path d="M282.791 175.179c13.407 0 24.593 9.984 26.5 22.882l.291.23v81.968h35.721v-79.38c0-16.92-3.969-27.386-20.175-48.198l-61.601-85.044c-12.092-15.486-9.314-38.048 6.171-50.138 15.486-12.092 38.048-9.314 50.139 6.171l77.124 105.505a71.752 71.752 0 0113.83 42.35V367.18l-71.442 71.442-58.55-50.186A71.017 71.017 0 01256 334.516V201.969c0-14.734 12.056-26.79 26.791-26.79z" fill="#ffe6c6"/><path fill="#aed5f3" d="M430.27 295.736l75.775 75.775-130.5 130.5-75.774-75.775z"/><path fill="#78b9eb" d="M480.784 346.267l25.258 25.258-130.5 130.5-25.257-25.259z"/><path d="M0 107.214h59.535v35.721H0zm65.84-36.749L9.713 50.622l11.905-33.677 56.13 19.843zm386.625 36.749H512v35.721h-59.535zm-6.312-36.743l-11.905-33.676 56.127-19.843 11.906 33.677z" fill="#c9e3f7"/></svg>