<svg xmlns="http://www.w3.org/2000/svg" viewBox="0 0 512 512"><path d="M68.267 362.667a8.533 8.533 0 01-8.533-8.533v-230.4a8.533 8.533 0 0117.066 0v230.4a8.533 8.533 0 01-8.533 8.533z" fill="#95a5a5"/><path d="M213.333 422.4h51.2v59.733c0 9.426-7.641 17.067-17.067 17.067H230.4c-9.426 0-17.067-7.641-17.067-17.067V422.4zm196.267 0h51.2v59.733c0 9.426-7.641 17.067-17.067 17.067h-17.067c-9.426 0-17.067-7.641-17.067-17.067V422.4z" fill="#2c3e50"/><path d="M473.173 4.267H200.96c-17.761 1.121-31.29 16.365-30.293 34.133v349.867l20.199 46.418a7.56 7.56 0 006.814 4.782h278.774a7.56 7.56 0 006.814-4.782l20.199-46.418V38.4c.996-17.769-12.532-33.012-30.294-34.133z" fill="#cc4b4c"/><path d="M503.467 388.267l-20.198 46.418a7.56 7.56 0 01-6.814 4.782H197.68a7.558 7.558 0 01-6.814-4.782l-20.199-46.418h332.8z" fill="#c03a2b"/><path d="M221.867 38.4h230.4c9.426 0 17.067 7.641 17.067 17.067V64c0 9.426-7.641 17.067-17.067 17.067h-230.4c-9.426 0-17.067-7.641-17.067-17.067v-8.533c0-9.426 7.641-17.067 17.067-17.067z" fill="#e57e25"/><g fill="#f0c419"><circle cx="230.4" cy="328.533" r="25.6"/><circle cx="443.733" cy="328.533" r="25.6"/></g><path d="M221.867 115.2h230.4c9.426 0 17.067 7.641 17.067 17.067v119.467c0 9.426-7.641 17.067-17.067 17.067h-230.4c-9.426 0-17.067-7.641-17.067-17.067V132.267c0-9.426 7.641-17.067 17.067-17.067z" fill="#67b9cc"/><path d="M307.2 345.6h59.733c9.426 0 17.067 7.641 17.067 17.067v25.6h-93.867v-25.6c0-9.426 7.641-17.067 17.067-17.067z" fill="#802f34"/><circle cx="68.267" cy="98.133" r="59.733" fill="#cc4b4c"/><path d="M59.733 320H76.8c9.426 0 17.067 7.641 17.067 17.067V499.2h-51.2V337.067c0-9.426 7.641-17.067 17.066-17.067z" fill="#7f8c8d"/><path d="M503.467 507.733H8.533a8.533 8.533 0 010-17.066h494.933a8.533 8.533 0 018.533 8.533 8.531 8.531 0 01-8.532 8.533z" fill="#bdc3c7"/></svg>