<svg xmlns="http://www.w3.org/2000/svg" viewBox="0 0 511.999 511.999"><path d="M403.768 502.747H108.229V292.94c0-50.714 41.112-91.826 91.826-91.826h111.888c50.714 0 91.826 41.112 91.826 91.826l-.001 209.807z" fill="#efefef"/><path d="M403.768 502.747H108.229V292.94c0-50.714 41.112-91.826 91.826-91.826h111.888c50.714 0 91.826 41.112 91.826 91.826l-.001 209.807z" fill="#efefef"/><path d="M363.582 298.867H148.416c-14.927 0-27.029 12.101-27.029 27.029v176.85h269.224v-176.85c0-14.927-12.102-27.029-27.029-27.029z" fill="#e0e0e3"/><path fill="#00a5ff" d="M298.08 358.932l-41.53 35.395-27.422-22.759-.134-.108-15.083-12.528 7.893-60.059 11.392-86.616h45.613l11.379 86.616z"/><path fill="#0087ff" d="M298.08 358.932l-41.53 35.395-27.422-22.759-.134-.108-15.083-12.528 7.893-60.059h68.384z"/><path d="M363.581 116.834c0 3.714-.185 7.391-.555 11.017-5.515 54.235-51.323 96.564-107.027 96.564-56.369 0-102.61-43.353-107.199-98.526a104.803 104.803 0 01-.382-9.056c0-5.317.395-10.524 1.135-15.607C157.116 49.199 201.9 9.251 256 9.251c16.803 0 32.719 3.862 46.906 10.721 31.991 15.521 55.16 46.45 59.8 83.154.59 4.492.875 9.07.875 13.708z" fill="#ffdaa7"/><path d="M363.581 116.834c0 3.714-.185 7.391-.555 11.017a367.694 367.694 0 01-29.437 1.209c-59.343 0-95.343-15.607-115.366-29.08-8.932 6.391-19.838 11.967-32.67 16.692-16.668 6.144-31.077 8.734-31.682 8.846a24.239 24.239 0 01-4.319.382c-.247 0-.506 0-.752-.013a104.803 104.803 0 01-.382-9.056c0-5.317.395-10.524 1.135-15.607C157.116 49.199 201.9 9.25 256 9.25c16.803 0 32.719 3.862 46.906 10.721 31.991 15.521 55.16 46.45 59.8 83.154.59 4.493.875 9.071.875 13.709z" fill="#ffc373"/><path d="M362.701 103.132c-112.018 9.354-145.425-36.506-145.425-36.506-17.059 25.587-67.723 34.601-67.723 34.601 7.563-52.03 52.342-91.975 106.446-91.975 16.803 0 32.724 3.866 46.911 10.719 31.985 15.524 55.156 46.456 59.791 83.161z" fill="#a07852"/><path fill="#c7c5cc" d="M148.416 325.893h215.165v123.852H148.416z"/><path fill="#adacb2" d="M148.416 417.04h215.165v32.716H148.416z"/><path fill="#a07852" d="M26.247 449.755h459.494v52.996H26.247z"/><path fill="#896746" d="M26.247 476.254h459.494v26.499H26.247z"/><circle cx="424.05" cy="417.04" r="32.716" fill="#30d8b8"/><path d="M456.765 417.04c0 18.062-14.644 32.706-32.706 32.706-18.074 0-32.719-14.644-32.719-32.706 0-4.602.95-8.994 2.664-12.955 5.021 11.621 16.581 19.752 30.053 19.752 13.46 0 25.02-8.13 30.029-19.752 1.729 3.96 2.679 8.353 2.679 12.955z" fill="#00c6a5"/><path d="M485.748 440.498h-26.913a41.728 41.728 0 007.187-23.46c0-23.139-18.827-41.966-41.966-41.966a41.82 41.82 0 00-11.035 1.483v-83.613c0-12.683-2.321-25.056-6.898-36.772-1.858-4.76-7.224-7.115-11.986-5.251a9.253 9.253 0 00-5.251 11.986c3.734 9.562 5.629 19.667 5.629 30.038v94.322c-7.667 7.608-12.425 18.146-12.425 29.774a41.718 41.718 0 007.187 23.46h-16.44V325.896a9.252 9.252 0 00-9.253-9.253H301.86l-11.578-88.108a116.516 116.516 0 0034.327-17.193c18.078 2.746 34.592 11.357 47.42 24.957 3.506 3.721 9.363 3.889 13.079.383a9.253 9.253 0 00.383-13.08c-12.098-12.827-27.348-22.153-43.973-27.252 19.419-20.871 31.319-48.827 31.319-79.516 0-5.101-.324-10.123-.954-14.863-4.953-39.23-29.227-72.998-64.947-90.335C290.943 3.915 273.806 0 255.999 0c-28.24 0-55.5 10.212-76.758 28.757a117.213 117.213 0 00-11.059 11.026c-14.82 16.89-24.536 37.758-27.786 60.112l-.001.007a118.222 118.222 0 00-1.233 16.934c0 30.676 11.89 58.623 31.295 79.491-41.334 12.684-71.48 51.178-71.48 96.614v32.961a9.252 9.252 0 009.253 9.253 9.252 9.252 0 009.253-9.253V292.94c0-41.223 30.367-75.486 69.905-81.599a116.543 116.543 0 0034.335 17.196l-11.588 88.106h-61.717a9.252 9.252 0 00-9.253 9.253v59.098c0 5.111 4.142 9.253 9.253 9.253s9.253-4.142 9.253-9.253v-49.846h60.484c.036 0 .073.007.109.007.052 0 .104-.006.157-.007h75.155c.052.001.103.007.157.007.037 0 .074-.007.111-.007h60.488v105.35H242.736a9.252 9.252 0 00-9.253 9.253 9.252 9.252 0 009.253 9.253h233.759v34.49H35.503v-34.49h168.68a9.252 9.252 0 009.253-9.253 9.252 9.252 0 00-9.253-9.253h-46.514v-17.323c0-5.111-4.142-9.253-9.253-9.253s-9.253 4.142-9.253 9.253v17.323h-21.68v-77.986c0-5.111-4.142-9.253-9.253-9.253s-9.253 4.142-9.253 9.253v77.986H26.25a9.252 9.252 0 00-9.253 9.253v52.996A9.252 9.252 0 0026.25 512h459.499a9.252 9.252 0 009.253-9.253V449.75a9.252 9.252 0 00-9.254-9.252zM217.818 80.285c7.385 6.363 20.296 15.23 40.489 22.181 4.834 1.666 10.098-.907 11.761-5.738 1.662-4.833-.906-10.098-5.738-11.761-28.774-9.904-39.526-23.724-39.576-23.788-1.784-2.447-4.621-3.837-7.673-3.802a9.256 9.256 0 00-7.507 4.118c-9.039 13.559-31.528 22.596-47.817 27.298.277-.927.571-1.846.874-2.762 13.129-39.636 51.588-67.524 93.366-67.524 14.997 0 29.426 3.297 42.871 9.79 22.872 11.101 41.193 31.106 49.662 55.147a98.044 98.044 0 013.263 11.176c-18.894 1.048-36.535.497-52.56-1.644a9.249 9.249 0 00-10.398 7.944c-.677 5.065 2.88 9.721 7.944 10.398 11.577 1.549 23.893 2.323 36.837 2.323 6.71 0 13.598-.222 20.628-.638.048 1.27.082 2.547.082 3.837 0 54.22-44.11 98.329-98.33 98.329s-98.33-44.109-98.33-98.329c0-2.631.121-5.291.338-7.956 13.224-3.129 42.372-11.595 59.814-28.599zm22.041 152.266c5.278.732 10.664 1.12 16.139 1.12 5.477 0 10.865-.388 16.143-1.12l11.051 84.092h-54.393l11.06-84.092zm160.736 184.487c0-12.936 10.524-23.46 23.46-23.46 12.936 0 23.46 10.524 23.46 23.46 0 12.936-10.524 23.46-23.46 23.46-12.936 0-23.46-10.525-23.46-23.46z"/><path d="M273.426 397.077c5.111 0 9.253-4.142 9.253-9.253s-4.142-9.253-9.253-9.253h-36.04c-5.111 0-9.253 4.142-9.253 9.253s4.142 9.253 9.253 9.253h36.04z"/><circle cx="213.127" cy="150.518" r="13.571"/><circle cx="298.077" cy="150.518" r="13.571"/></svg>