<svg height="512" viewBox="0 0 64 64" width="512" xmlns="http://www.w3.org/2000/svg"><path d="M13.656 51.219L18.341 36h4.561l-5.746 17.219zm36.719-.031L45.707 36h-4.561l5.635 17.219z" fill="#a67c52"/><path d="M47 31v5H17v-4.584l-1.374-7.872A29.239 29.239 0 006.892 7.892l3.467-3.843.992.887a29.227 29.227 0 019.049 15.38L22.9 31z" fill="#00807c"/><path d="M32 23.364l1.984-.248 1.305 10.443-1.984.248z" fill="#29485a"/><path d="M19.25 20.931l21.557-2.08.438 4.538-21.557 2.08a2.28 2.28 0 01-2.488-2.05 2.28 2.28 0 012.05-2.488z" fill="#039791"/><path d="M55.733 46L59 49.308a37.813 37.813 0 01-54.343 0L7.883 46a33.372 33.372 0 0047.845.047l.047-.047z" fill="#8c6239"/></svg>