<svg height="512" viewBox="0 0 64 64" width="512" xmlns="http://www.w3.org/2000/svg"><path d="M59 21H5c-2.2 0-4 1.8-4 4v34c0 2.2 1.8 4 4 4h54c2.2 0 4-1.8 4-4V25c0-2.2-1.8-4-4-4z" fill="#545c66"/><path d="M38 21H26c0-1.66.67-3.16 1.76-4.24C28.84 15.67 30.34 15 32 15s3.16.67 4.24 1.76A5.944 5.944 0 0138 21z" fill="#ccd1d9"/><path d="M52.17 26.17l5.66 5.66C57.1 32.55 56.1 33 55 33c-2.21 0-4-1.79-4-4 0-1.1.45-2.1 1.17-2.83zM55 45v-8c2.21 0 4 1.79 4 4s-1.79 4-4 4zm4-16c0 1.1-.45 2.1-1.17 2.83l-5.66-5.66C52.9 25.45 53.9 25 55 25c2.21 0 4 1.79 4 4z" fill="#656d78"/><path d="M8 28h36v28H8z" fill="#5d9cec"/><path d="M55 37v8c-2.21 0-4-1.79-4-4s1.79-4 4-4zM8 56h36V28H8zM7 25h38.01c1.101 0 2 .9 2 2v30c0 1.1-.899 2-2 2H7c-1.1 0-2-.9-2-2V27c0-1.1.9-2 2-2z" fill="#656d78"/><path d="M28.986 28l-4.004 28.063h-3.969L25.017 28zm2.002 0l-4.004 28.063h-.966L30.021 28z" fill="#87bcf4"/><path d="M59 64H5c-2.757 0-5-2.243-5-5V25c0-2.757 2.243-5 5-5h54c2.757 0 5 2.243 5 5v34c0 2.757-2.243 5-5 5zM5 22c-1.654 0-3 1.346-3 3v34c0 1.654 1.346 3 3 3h54c1.654 0 3-1.346 3-3V25c0-1.654-1.346-3-3-3z"/><path d="M45.008 60H7c-1.654 0-3-1.346-3-3V27c0-1.654 1.346-3 3-3h38.008c1.654 0 3 1.346 3 3v30c0 1.654-1.346 3-3 3zM7 26a1 1 0 00-1 1v30a1 1 0 001 1h38.008a1 1 0 001-1V27a1 1 0 00-1-1z"/><path d="M44.003 57H8a1 1 0 01-1-1V28a1 1 0 011-1h36.003a1 1 0 011 1v28a1 1 0 01-1 1zM9 55h34.003V29H9zm46.001-21.002c-2.757 0-5-2.243-5-5s2.243-5 5-5 5 2.243 5 5-2.243 5-5 5zm0-8c-1.654 0-3 1.346-3 3s1.346 3 3 3 3-1.346 3-3-1.346-3-3-3zM38 22a1 1 0 01-1-1c0-2.757-2.243-5-5-5s-5 2.243-5 5a1 1 0 11-2 0c0-3.859 3.141-7 7-7s7 3.141 7 7a1 1 0 01-1 1zm17.001 23.996c-2.757 0-5-2.243-5-5s2.243-5 5-5 5 2.243 5 5-2.243 5-5 5zm0-8c-1.654 0-3 1.346-3 3s1.346 3 3 3 3-1.346 3-3-1.346-3-3-3z"/><path d="M55.001 45.996a1 1 0 01-1-1v-8a1 1 0 112 0v8a1 1 0 01-1 1zm2.828-13.17a.997.997 0 01-.707-.293l-5.656-5.656a.999.999 0 111.414-1.414l5.656 5.656a.999.999 0 01-.707 1.707zm-4.796 17.172c-.553 0-1.005-.447-1.005-1s.442-1 .994-1h.011a1 1 0 110 2zm3.999 0c-.553 0-1.005-.447-1.005-1s.442-1 .994-1h.011a1 1 0 110 2zM59 54h-8a1 1 0 110-2h8a1 1 0 110 2zm0 3h-8a1 1 0 110-2h8a1 1 0 110 2zm0 3.002h-8a1 1 0 110-2h8a1 1 0 110 2zM36.24 17.756a.999.999 0 01-.707-1.707L51.293.293a.999.999 0 111.414 1.414l-15.76 15.756a.997.997 0 01-.707.293zm-8.48 0a.997.997 0 01-.707-.293L11.293 1.707A.999.999 0 1112.707.293l15.76 15.756a.999.999 0 01-.707 1.707z"/></svg>