<svg xmlns="http://www.w3.org/2000/svg" viewBox="0 0 512.007 512.007" width="512" height="512"><path d="M293.696 244.099a7.499 7.499 0 00-5.376-6.09c-72.834-20.573-105.72-121.087-106.043-122.097a7.5 7.5 0 00-13.546-1.636c-33.124 54.177-28.198 116.348-27.978 118.898v.006a7.501 7.501 0 002.737 5.236c21.394 17.455 45.034 28.419 68.365 31.706a110.679 110.679 0 0015.462 1.096c21.782 0 42.932-6.6 63.056-19.706a7.5 7.5 0 003.323-7.413z" fill="#aaa"/><path d="M227.318 271.218c21.782 0 42.932-6.6 63.056-19.706a7.501 7.501 0 00-2.054-13.503c-7.443-2.102-14.462-5.051-21.079-8.632-35.535 16.299-67.558 7.496-89.219-3.782-12.771-6.649-25.137-15.806-36.436-26.823-2.014 19.615-.933 33.236-.832 34.402v.006a7.501 7.501 0 002.737 5.236c21.394 17.455 45.034 28.419 68.365 31.706 5.186.732 10.34 1.096 15.462 1.096z" fill="#999"/><path d="M433.352 272.009a7.498 7.498 0 00-5.701-5.088l-35.704-7.023c-5.109-7.963-20.436-28.514-45.999-35.022-20.113-5.121-41.564-.388-63.76 14.067-41.415 26.97-79.505 17.326-104.167 4.487-23.146-12.051-44.984-32.306-61.491-57.036-15.464-23.167-24.725-48.119-25.407-68.457a7.5 7.5 0 00-13.981-3.516c-.992 1.707-24.341 42.441-28.715 96.915-2.588 32.231 2.066 62.525 13.832 90.039 12.567 29.385 33.267 55.532 61.65 77.916-23.801 2.734-67.699 5.104-106.891-7.339a7.5 7.5 0 00-9.759 6.759c-.157 3.025-3.274 74.722 46.709 130.787a7.498 7.498 0 005.598 2.509l.14-.001a7.501 7.501 0 005.641-2.72c.644-.778 64.992-77.745 123.841-74.232 56.066 3.354 135.082.018 173.854-67.306 23.482-40.775 68.141-87.823 68.59-88.293a7.503 7.503 0 001.72-7.446z" fill="#e0e0e0"/><path d="M433.352 272.009a7.498 7.498 0 00-5.701-5.088l-32.778-6.448c-13.894 15.397-43.311 49.409-60.878 79.914-38.773 67.324-117.789 70.66-173.855 67.306-58.85-3.513-123.198 73.454-123.841 74.232a7.507 7.507 0 01-1.53 1.388c5.32 8.891 11.651 17.716 19.201 26.185a7.498 7.498 0 005.598 2.509l.14-.001a7.501 7.501 0 005.641-2.72c.644-.778 64.992-77.745 123.841-74.232 56.066 3.354 135.082.018 173.854-67.306 23.482-40.775 68.141-87.823 68.59-88.293a7.506 7.506 0 001.718-7.446zM364.744 232.9a72.271 72.271 0 00-2.605-1.521c.272.407.53.8.76 1.159l1.845.362zM94.72 351.946l.142-.016c-.179-.141-.349-.286-.528-.428.13.147.255.297.386.444z" fill="#c4c4c4"/><path d="M329.324 293.514c-7.84 0-14.218-6.378-14.218-14.218s6.378-14.218 14.218-14.218 14.218 6.378 14.218 14.218c0 7.839-6.378 14.218-14.218 14.218z" fill="#464649"/><path d="M406.992 354.559a7.5 7.5 0 01-6.793-10.669c13.558-29.105 19.998-60.484 19.143-93.264-.688-26.385-6.071-53.766-16.001-81.384-17.032-47.372-41.848-79.373-42.097-79.69a7.503 7.503 0 011.278-10.528 7.498 7.498 0 0110.525 1.271c1.068 1.361 26.356 33.896 44.244 83.416 10.54 29.178 16.272 58.191 17.037 86.235.961 35.226-5.948 68.964-20.534 100.278a7.497 7.497 0 01-6.802 4.335z" fill="#006635"/><path d="M428.061 202.022c-.557-1.265-13.948-31.086-40.949-40.393-27.002-9.308-55.923 5.931-57.141 6.584a7.499 7.499 0 00-3.319 9.631c.557 1.265 13.948 31.086 40.949 40.393 6.287 2.167 12.674 3.003 18.796 3.003 20.168 0 37.411-9.085 38.345-9.586a7.502 7.502 0 003.319-9.632z" fill="#45bf7f"/><path d="M386.397 221.239c20.168 0 37.411-9.085 38.345-9.586a7.483 7.483 0 003.546-4.165l-101.862-35.11a7.48 7.48 0 00.226 5.466c.557 1.265 13.948 31.086 40.949 40.393 6.287 2.167 12.674 3.002 18.796 3.002z" fill="#00b76c"/><path d="M455.245 62.75a7.502 7.502 0 00-8.834-5.073c-1.347.309-33.156 7.849-47.377 32.617-14.222 24.768-4.699 56.04-4.287 57.359a7.502 7.502 0 008.834 5.073c1.347-.309 33.155-7.849 47.377-32.617 14.222-24.768 4.7-56.04 4.287-57.359z" fill="#45bf7f"/><path d="M451.821 58.484l-53.641 93.418a7.469 7.469 0 003.72 1.014c.555 0 1.119-.062 1.681-.191 1.347-.309 33.155-7.849 47.377-32.617 14.222-24.768 4.699-56.04 4.287-57.359a7.48 7.48 0 00-3.424-4.265z" fill="#00b76c"/><path d="M366.61 29.731C350.887 5.887 318.674.325 317.31.1a7.504 7.504 0 00-8.504 5.608c-.33 1.342-7.905 33.142 7.818 56.985 15.723 23.843 47.936 29.406 49.3 29.631a7.502 7.502 0 008.504-5.608c.33-1.342 7.904-33.142-7.818-56.985z" fill="#45bf7f"/><path d="M365.923 92.324c.413.068.823.101 1.228.101 1.495 0 2.908-.469 4.109-1.261L311.96 1.24a7.478 7.478 0 00-3.155 4.468c-.33 1.342-7.905 33.142 7.818 56.985 15.723 23.843 47.936 29.406 49.3 29.631z" fill="#00b76c"/><path d="M498.2 185.168c-1.373-.158-33.871-3.689-55.557 14.898-21.685 18.587-23.167 51.243-23.22 52.624a7.5 7.5 0 006.63 7.735c.393.045 3.336.367 7.85.367 11.247 0 32.231-2.001 47.706-15.265 21.685-18.586 23.167-51.243 23.22-52.624a7.498 7.498 0 00-6.629-7.735z" fill="#45bf7f"/><path d="M504.83 192.903a7.482 7.482 0 00-1.8-5.166l-81.806 70.118a7.481 7.481 0 004.83 2.569c.393.045 3.336.367 7.85.367 11.247 0 32.231-2.001 47.706-15.265 21.685-18.585 23.167-51.242 23.22-52.623z" fill="#00b76c"/></svg>