<svg height="512" viewBox="0 0 64 64" width="512" xmlns="http://www.w3.org/2000/svg"><path d="M31.998 27.501a1 1 0 01-1-1v-2.998a1 1 0 112 0v2.998a1 1 0 01-1 1z" fill="#656d78"/><path d="M31.998 24.503a1 1 0 01-1-1A5.008 5.008 0 0136 18.501a1 1 0 110 2 3.006 3.006 0 00-3.002 3.002 1 1 0 01-1 1zm16.009-4.002a1 1 0 110-2c1.654 0 3-1.346 3-3s-1.346-3-3-3a1 1 0 110-2c2.757 0 5 2.243 5 5s-2.243 5-5 5zm-32.013-8.002c-2.757 0-5-2.243-5-5s2.243-5 5-5a1 1 0 110 2c-1.654 0-3 1.346-3 3s1.346 3 3 3a1 1 0 110 2z" fill="#656d78"/><path d="M48.004 20.501H36a1 1 0 110-2h12.004a1 1 0 110 2zm0-8h-32.01a1 1 0 110-2h32.01a1 1 0 110 2zM33.001 4.499H15.994a1 1 0 110-2h17.007a1 1 0 110 2z" fill="#656d78"/><path d="M49 26.55v-.049H16c-8.29 0-15 6.719-15 15 0 8.289 6.71 15 15 15 6.53 0 12.07-4.17 14.13-10h3.74c2.06 5.83 7.6 10 14.13 10 8.28 0 15-6.711 15-15 0-7.94-6.18-14.429-14-14.951z" fill="#e6e9ed"/><path d="M48 56.502c8.28 0 15-6.711 15-15v5c0 8.289-6.72 15-15 15-6.53 0-12.07-4.17-14.13-10v-5c2.06 5.83 7.6 10 14.13 10z" fill="#ccd1d9"/><path d="M30.13 46.502h3.74v5h-3.74z" fill="#aab2bd"/><path d="M30.13 51.502c-2.06 5.83-7.6 10-14.13 10-8.29 0-15-6.711-15-15v-5c0 8.289 6.71 15 15 15 6.53 0 12.07-4.17 14.13-10z" fill="#ccd1d9"/><path d="M34 36.5h-4a1 1 0 110-2h4a1 1 0 110 2z" fill="#aab2bd"/><g fill="#545c66"><path d="M21 40.502a2 2 0 110 4h-3v3a2 2 0 01-2 2c-1.109 0-2-.891-2-2v-3h-3a2 2 0 010-4h3v-3a2 2 0 014 0v3zm22.03 0c1.1 0 2 .9 2 2a2 2 0 01-4 0c0-1.1.9-2 2-2zm5-5c1.1 0 2 .9 2 2a2 2 0 01-4 0c0-1.1.9-2 2-2zm0 10c1.1 0 2 .9 2 2a2 2 0 01-4 0c0-1.1.9-2 2-2zm5-5c1.1 0 2 .9 2 2a2 2 0 01-4 0c0-1.1.9-2 2-2z"/><path d="M9 41.502h14v1H9zm32.03 0h4v1h-4zm10 0h4v1h-4zm-5 5h4v1h-4zm0-10h4v1h-4z"/></g><path d="M43.03 39.502c1.1 0 2 .9 2 2a2 2 0 01-4 0c0-1.1.9-2 2-2zm5-5c1.1 0 2 .9 2 2a2 2 0 01-4 0c0-1.1.9-2 2-2zm0 10c1.1 0 2 .9 2 2a2 2 0 01-4 0c0-1.1.9-2 2-2zm5-5c1.1 0 2 .9 2 2a2 2 0 01-4 0c0-1.1.9-2 2-2zm-32.03 0a2 2 0 110 4h-3v3a2 2 0 01-2 2c-1.109 0-2-.891-2-2v-3h-3a2 2 0 010-4h3v-3a2 2 0 014 0v3z" fill="#656d78"/></svg>