<svg height="512" width="512" xmlns="http://www.w3.org/2000/svg"><path d="M10.004 10h163.03v56.71H10.004zm327.54 0h164.46v56.71h-164.46zM7.853 445.29h492v56.714h-492z" fill="#868eaf"/><path d="M65.02 66.71h50.51v152.87H65.02zm0 312.87h50.51v65.71H65.02zM395.1 66.71h50.5v152.87h-50.5zm0 312.87h50.5v65.71h-50.5zM281.25 184.31v260.98h-50.5V184.78a82.17 82.17 0 0024.53 3.72c9.08 0 17.81-1.47 25.97-4.19z" fill="#dfecff"/><g fill="#ffd0c6"><path d="M122.921 259.577H55.385c-10.522 0-19.052-8.954-19.052-20s8.53-20 19.052-20h67.536c10.522 0 19.052 8.954 19.052 20s-8.53 20-19.052 20zm9.322 40H51.075c-11.046 0-20-8.954-20-20s8.954-20 20-20h81.168c11.046 0 20 8.954 20 20s-8.954 20-20 20zm0 40H51.075c-11.046 0-20-8.954-20-20s8.954-20 20-20h81.168c11.046 0 20 8.954 20 20s-8.954 20-20 20zm-12.098 40H55.36c-10.508 0-19.027-8.954-19.027-20s8.519-20 19.027-20h64.785c10.508 0 19.027 8.954 19.027 20s-8.519 20-19.027 20z"/><path d="M186 240.67v40.32c0 14.36-8.65 26.01-23.01 26.01-7.19 0-10.69-2.91-15.4-7.62-1.19-1.19-2.27-2.5-3.22-3.91a19.938 19.938 0 007.87-15.89c0-11.05-8.95-20-20-20h-2.75l-.51-1.04c2.82-.99 5.35-2.66 7.41-4.82 3.45-3.62 5.58-8.62 5.58-14.14 0-11.05-8.53-20-19.05-20h41.99c11.65 0 21.09 9.44 21.09 21.09zm202.089 18.907h67.536c10.522 0 19.052-8.954 19.052-20s-8.53-20-19.052-20h-67.536c-10.522 0-19.052 8.954-19.052 20 .001 11.046 8.53 20 19.052 20zm-9.322 40h81.168c11.046 0 20-8.954 20-20s-8.954-20-20-20h-81.168c-11.046 0-20 8.954-20 20s8.955 20 20 20zm0 40h81.168c11.046 0 20-8.954 20-20s-8.954-20-20-20h-81.168c-11.046 0-20 8.954-20 20s8.955 20 20 20zm12.098 40h64.785c10.508 0 19.027-8.954 19.027-20s-8.519-20-19.027-20h-64.785c-10.508 0-19.027 8.954-19.027 20s8.519 20 19.027 20z"/><path d="M325.01 240.67v40.32c0 14.36 8.65 26.01 23.01 26.01 7.19 0 10.69-2.91 15.4-7.62 1.19-1.19 2.27-2.5 3.22-3.91a19.938 19.938 0 01-7.87-15.89c0-11.05 8.95-20 20-20h2.75l.51-1.04c-2.82-.99-5.35-2.66-7.41-4.82-3.45-3.62-5.58-8.62-5.58-14.14 0-11.05 8.53-20 19.05-20H346.1c-11.65 0-21.09 9.44-21.09 21.09z"/></g><path d="M255.284 188.505c-45.427 0-82.253-36.826-82.253-82.252V10h164.505v96.253c0 45.426-36.826 82.252-82.252 82.252z" fill="#ffa76b"/><path d="M278.945 70.297c0-13.918-12.05-25.022-26.286-23.448-10.757 1.189-19.453 9.8-20.735 20.547-.764 6.406 1.042 12.379 4.522 17.026 5.006 6.685 7.071 15.116 5.169 23.248l-10.119 28.172h47.702l-10.091-28.051c-1.871-8.005-.206-16.512 4.853-22.992a23.48 23.48 0 004.985-14.502z" fill="#868eaf"/><path d="M502 76.71c5.523 0 10-4.477 10-10s-4.477-10-10-10H347.536V20H502c5.523 0 10-4.477 10-10s-4.477-10-10-10H10C4.477 0 0 4.477 0 10s4.477 10 10 10h153.031v36.71H10c-5.523 0-10 4.477-10 10s4.477 10 10 10h45.02v132.877c-15.851.203-28.687 13.575-28.687 29.991 0 6.397 1.955 12.328 5.273 17.203-6.438 5.507-10.531 13.68-10.531 22.797 0 7.678 2.902 14.688 7.663 20-4.761 5.312-7.663 12.322-7.663 20 0 9.115 4.091 17.287 10.528 22.794-3.315 4.875-5.27 10.807-5.27 17.206 0 16.424 12.838 29.801 28.687 29.991v45.717H10c-5.523 0-10 4.477-10 10s4.477 10 10 10h492c5.523 0 10-4.477 10-10s-4.477-10-10-10h-46.4v-45.708h.05c16.005 0 29.027-13.458 29.027-30 0-6.398-1.954-12.331-5.27-17.206 6.437-5.507 10.528-13.679 10.528-22.794 0-7.678-2.902-14.688-7.663-20 4.761-5.312 7.663-12.322 7.663-20 0-9.116-4.093-17.29-10.531-22.797a30.5 30.5 0 005.273-17.203c0-16.542-13.033-30-29.052-30h-.025V76.71zm-42.065 192.867c5.514 0 10 4.486 10 10s-4.486 10-10 10h-81.168c-5.44 0-9.997-4.559-9.997-9.998 0-5.514 4.486-10 10-10zm10 50.001c0 5.514-4.486 10-10 10h-81.168c-5.514 0-10-4.486-10-10s4.486-10 10-10h81.168c5.514-.001 10 4.485 10 10zm-109.269-89.886c-2.223 6.558-2.154 13.836.198 20.348a30.027 30.027 0 001.866 4.196c-12.714 8.081-17.56 24.884-10.939 38.455.426.873.879 1.734 1.39 2.565-1.822 1.46-3.014 1.743-5.162 1.743-9.603 0-13.01-8.625-13.01-16.01v-40.32c0-6.115 4.975-11.09 11.09-11.09h14.599c-.011.038-.02.077-.032.113zM385.1 76.71v132.87h-39c-17.143 0-31.09 13.947-31.09 31.09v40.32c0 20.866 13.883 36.01 33.01 36.01.297 0 .577-.018.867-.025-.074.859-.12 1.725-.12 2.602 0 11.544 6.559 21.58 16.142 26.594a30.63 30.63 0 00-3.071 13.406c0 14.502 10.009 26.632 23.262 29.404v46.304h-93.85V389.81c0-5.523-4.477-10-10-10s-10 4.477-10 10v45.476h-30.5v-237.93a92.5 92.5 0 0030.5-.239V299.81c0 5.523 4.477 10 10 10s10-4.477 10-10V191.204c33.05-14.046 56.286-46.836 56.286-84.951V76.71zM327.536 20v86.252c0 39.84-32.412 72.252-72.252 72.252s-72.252-32.412-72.252-72.252V20zM220.75 191.793v243.493h-95.22v-46.234c13.44-2.618 23.642-14.834 23.642-29.474 0-4.817-1.11-9.368-3.071-13.406 9.583-5.014 16.141-15.05 16.141-26.594 0-.877-.046-1.744-.12-2.602.29.007.57.025.868.025 19.127 0 33.01-15.144 33.01-36.01v-40.32c0-17.143-13.947-31.09-31.09-31.09h-39.38V76.71h37.501v29.542c0 38.664 23.911 71.842 57.719 85.541zM51.075 329.577c-5.514 0-10-4.486-10-10s4.486-10 10-10h81.168c5.514 0 10 4.486 10 10s-4.486 10-10 10zm-10-50c0-5.514 4.486-10 10-10l81.165.003c5.514 0 10 4.486 10 10 0 2.977-1.385 5.954-3.747 7.791a9.948 9.948 0 01-6.25 2.206H51.075c-5.514 0-10-4.486-10-10zm109.236-49.997h14.6c6.115 0 11.09 4.975 11.09 11.09v40.32c0 7.385-3.407 16.01-13.01 16.01-2.148 0-3.34-.283-5.162-1.743.515-.836.97-1.702 1.398-2.581 3.746-7.694 3.98-16.827.669-24.712A30.17 30.17 0 00149.27 254.9c-.339-.234-.983-.618-.983-.618l.234-.495c3.535-7.68 4.581-15.982 1.817-24.115-.01-.031-.017-.062-.027-.092zM105.53 76.71v132.867H75.02V76.71zM55.385 229.577h67.477c.02 0 .038.003.058.003 4.99 0 9.05 4.486 9.05 10 0 5.008-3.75 9.997-9.049 9.997H55.385c-4.991 0-9.051-4.486-9.051-10s4.06-10 9.051-10zm-9.052 130c0-5.514 4.049-10 9.027-10h64.785c4.978 0 9.027 4.486 9.027 10s-4.05 10-9.027 10H55.36c-4.977 0-9.027-4.486-9.027-10zM75.02 389.58h30.51v45.706H75.02zm330.08 45.706V389.58h30.5v45.706zm50.55-65.709h-64.785c-4.978 0-9.027-4.486-9.027-10s4.05-10 9.027-10h64.785c4.977 0 9.026 4.487 9.026 10 .001 5.514-4.049 10-9.026 10zm9.027-129.999c0 5.514-4.061 10-9.052 10h-67.537c-5.309-.001-9.048-4.986-9.048-9.997 0-5.514 4.06-10 9.05-10l.048-.002h67.486c4.992-.002 9.053 4.484 9.053 9.999zM435.6 209.577h-30.5V76.71h30.5zM502 492H10c-5.523 0-10 4.477-10 10s4.477 10 10 10h492c5.523 0 10-4.477 10-10s-4.477-10-10-10z"/><path d="M290.49 340.29c-2.095-5.029-8.028-7.48-13.06-5.4-5.039 2.082-7.489 8.015-5.41 13.05 2.081 5.038 8.025 7.495 13.06 5.41 5.046-2.09 7.476-8.019 5.41-13.06zm-68.405-207.83a9.999 9.999 0 009.411 13.38h47.702a10 10 0 009.41-13.385l-9.873-27.446c-1.023-5.015.123-10.234 3.108-14.058 4.646-5.951 7.101-13.093 7.101-20.655a33.645 33.645 0 00-11.189-25.033c-7.107-6.365-16.656-9.407-26.196-8.354-15.308 1.693-27.742 14.016-29.565 29.302-1.035 8.676 1.255 17.272 6.448 24.205 3.25 4.34 4.528 9.588 3.544 14.481zm19.768-63.88c.733-6.151 5.74-11.11 11.904-11.792 3.955-.437 7.738.761 10.656 3.375a13.622 13.622 0 014.532 10.134c0 3.059-.991 5.946-2.866 8.348-6.873 8.804-9.318 20.256-6.708 31.421.087.376.197.746.328 1.109l5.275 14.666h-19.26l5.313-14.791c.13-.361.239-.73.326-1.104 2.525-10.801.01-22.29-6.902-31.52-2.099-2.801-3.021-6.297-2.598-9.846z"/></svg>