<svg height="512" viewBox="0 0 300 300" width="512" xmlns="http://www.w3.org/2000/svg"><circle cx="134" cy="116" fill="#ffded5" r="90"/><g fill="#4c241d"><path d="M231.387 269.35a4.003 4.003 0 01-3.865-2.98L200.99 166h-69.07l-12.297 56.369a4 4 0 01-7.817-1.707l12.984-59.516a3.999 3.999 0 013.908-3.146h75.371a4.002 4.002 0 013.867 2.979l27.318 103.348a4 4 0 01-3.867 5.023z"/><path d="M212 198h-88a4 4 0 010-8h88a4 4 0 010 8zm12 48H124a4 4 0 010-8h100a4 4 0 010 8z"/></g><circle cx="110.408" cy="242.082" fill="#bf7e68" r="27.918"/><path d="M110.408 274c-17.6 0-31.918-14.318-31.918-31.918s14.318-31.918 31.918-31.918 31.918 14.318 31.918 31.918S128.008 274 110.408 274zm0-55.836c-13.188 0-23.918 10.73-23.918 23.918S97.221 266 110.408 266s23.918-10.73 23.918-23.918-10.73-23.918-23.918-23.918z" fill="#4c241d"/><circle cx="110.408" cy="242.082" fill="#b5a19c" r="11.941"/><path d="M110.408 258.023c-8.791 0-15.941-7.15-15.941-15.941s7.15-15.941 15.941-15.941 15.941 7.15 15.941 15.941-7.15 15.941-15.941 15.941zm0-23.882c-4.379 0-7.941 3.562-7.941 7.941s3.562 7.941 7.941 7.941 7.941-3.562 7.941-7.941-3.562-7.941-7.941-7.941zM188 70h-40.367a4 4 0 01-4-4c0-13.234 10.766-24 24-24C181.234 42 192 52.766 192 66a4 4 0 01-4 4zm-35.859-8h31.354c-1.781-6.893-8.053-12-15.494-12-7.753 0-14.073 5.107-15.86 12z" fill="#4c241d"/><path d="M236.041 114H96.449v-12.433C96.449 81.924 112.373 66 132.016 66h68.457c19.643 0 35.567 15.924 35.567 35.567V114z" fill="#6b4f5b"/><path d="M236.041 118H96.449a4 4 0 01-4-4v-12.434C92.449 79.75 110.199 62 132.016 62h68.457c21.818 0 39.568 17.75 39.568 39.566V114a4 4 0 01-4 4zm-135.592-8h131.592v-8.434C232.041 84.16 217.879 70 200.473 70h-68.457c-17.406 0-31.566 14.16-31.566 31.566V110z" fill="#4c241d"/><path d="M96.456 114c0 .041-.007.081-.007.122 0 34.693 31.249 62.816 69.796 62.816s69.796-28.124 69.796-62.816c0-.041-.007-.081-.007-.122z" fill="#b5a19c"/><path d="M166.244 180.939c-40.691 0-73.795-29.975-73.795-66.816 0-2.209 1.797-4.123 4.006-4.123h139.578a4 4 0 014 4c.008 36.965-33.097 66.939-73.789 66.939zM100.57 118c2.137 30.525 30.775 54.939 65.674 54.939 34.824 0 63.416-24.309 65.656-54.939z" fill="#4c241d"/><path d="M252 118H80a4 4 0 010-8h172a4 4 0 010 8zm-32.215-16.738a4 4 0 01-3.914-3.199C214.441 91.074 208.213 86 201.064 86a4 4 0 010-8c10.934 0 20.455 7.764 22.643 18.461a3.997 3.997 0 01-3.922 4.801z" fill="#4c241d"/></svg>