<svg height="512" viewBox="0 0 60 60" width="512" xmlns="http://www.w3.org/2000/svg"><g fill="none"><path d="M47.84 15.05L44.15 24A17.11 17.11 0 0043 32.24c.3 3.11 0 8.83-2.12 11.12a3.12 3.12 0 00-.88 2.13V53H25v-7a3.09 3.09 0 00-1.7-2.8c-2.17-1-4.48-5.51-5-8.21-.4-2 .39-.28-6-10.45a2 2 0 01.48-2.63 3 3 0 014.26.74l3.82 5.78a1.28 1.28 0 002.17 0 1.32 1.32 0 00.2-.68 39 39 0 00-.08-4.43c-1.83-17.8-1.73-16.54-1.73-16.73a2.09 2.09 0 014.15-.32l2.31 15.66a.2.2 0 00.39 0c.15-3.55-.08-.43.81-18.91a2.08 2.08 0 114.16 0c.11 2.22.71 16.77.8 18.91a.2.2 0 00.4 0l2.31-15.66a2.083 2.083 0 014.13.54c-1.67 15.66-1.37 12.93-1.67 16a.192.192 0 10.37.1L44 13.33a2.14 2.14 0 011.57-1.16 2.1 2.1 0 012.27 2.88z" fill="#fdd7ad"/><path d="M58.89 54v5.08C53.67 59 53.48 54 47.4 54s-6.3 5.08-11.61 5.08S30.27 54 24.2 54a8.78 8.78 0 00-6.37 2.77c-1.42 1.25-2.65 2.31-5.23 2.31C7.32 59.08 7.09 54 1 54v-5.08c5.34 0 5.45 5.08 11.6 5.08s6.31-5.08 11.6-5.08S29.64 54 35.79 54s6.3-5.08 11.61-5.08 5.48 5.01 11.49 5.08z" fill="#67b9cc"/><path d="M58.89 54c-6 0-6.27-4-11.49-4s-5.54 4-11.61 4-6.32-4-11.59-4-5.5 4-11.6 4S6.32 50 1 50a1 1 0 010-2c6.05 0 6.33 4 11.6 4s5.5-4 11.6-4 6.3 4 11.59 4 5.54-4 11.61-4 6.32 4 11.49 4a1 1 0 010 2zm0 6c-6 0-6.27-4-11.49-4s-5.54 4-11.61 4-6.32-4-11.59-4-5.5 4-11.6 4S6.32 56 1 56a1 1 0 010-2c6.05 0 6.33 4 11.6 4s5.5-4 11.6-4 6.3 4 11.59 4 5.54-4 11.61-4 6.32 4 11.49 4a1 1 0 010 2z" fill="#2fa8cc"/></g></svg>