<svg xmlns="http://www.w3.org/2000/svg" viewBox="0 0 512 512"><circle cx="250.926" cy="146.648" r="139.037" fill="#ffe69b"/><path d="M250.926 293.296c-80.863 0-146.648-65.786-146.648-146.648S170.063 0 250.926 0s146.648 65.786 146.648 146.648-65.786 146.648-146.648 146.648zm0-278.073c-72.468 0-131.425 58.958-131.425 131.425s58.958 131.425 131.425 131.425 131.425-58.958 131.425-131.425S323.393 15.223 250.926 15.223z" fill="#ffb96c"/><path d="M378.061 258.283c10.352-8.373 16.976-21.17 16.976-35.52 0-25.222-20.447-45.669-45.669-45.669h-30.446l-40.595 162.379h71.041c25.222 0 45.669-20.447 45.669-45.669 0-14.35-6.624-27.148-16.976-35.521z" fill="#8d5a46"/><path d="M152.484 177.094c-25.222 0-45.669 20.447-45.669 45.669 0 14.35 6.624 27.148 16.976 35.52-10.352 8.373-16.976 21.17-16.976 35.52 0 25.222 20.447 45.669 45.669 45.669h166.438V177.094H152.484z" fill="#a96950"/><path d="M152.484 132.615c-16.815 0-30.446 13.632-30.446 30.446 0 16.815 13.631 30.446 30.446 30.446h98.442v-60.892h-98.442z" fill="#ffcbb7"/><g fill="#ffb193"><path d="M349.368 132.615h-98.442v60.892h98.442c16.815 0 30.446-13.631 30.446-30.446s-13.631-30.446-30.446-30.446z"/><path d="M344.561 116.202l-93.636-67.996v227.33l98.442-78.145v-50.743a98.316 98.316 0 00-4.806-30.446z"/></g><path d="M250.926 48.206l-93.636 67.996a98.336 98.336 0 00-4.806 30.446v50.743l98.442 78.145c37.553 0 67.996-44.074 67.996-98.442v-30.446c0-54.368-30.443-98.442-67.996-98.442z" fill="#ffcbb7"/><path d="M250.926 48.206c0 37.553 30.443 67.996 67.996 67.996h25.64c-12.825-39.465-49.896-67.996-93.636-67.996z" fill="#8d5a46"/><path d="M250.926 48.206c-43.741 0-80.812 28.531-93.636 67.996h25.64c37.553 0 67.996-30.443 67.996-67.996z" fill="#a96950"/><path d="M220.48 161.538a7.613 7.613 0 01-7.459-6.089h-12.838a7.61 7.61 0 01-7.611-7.611 7.61 7.61 0 017.611-7.611h20.297a7.61 7.61 0 017.611 7.611v6.089a7.61 7.61 0 01-7.611 7.611zm60.892 0a7.61 7.61 0 01-7.612-7.611v-6.089a7.61 7.61 0 017.612-7.611h20.297a7.61 7.61 0 017.612 7.611 7.61 7.61 0 01-7.612 7.611h-12.838a7.613 7.613 0 01-7.459 6.089z" fill="#704b3c"/><path d="M147.409 305.982c-16.232 0-31.178 5.77-42.901 15.352l40.872 37.64V512h38.483L344.43 305.982H147.409z" fill="#fff9fd"/><path d="M104.508 321.334c-15.288 12.496-25.095 31.478-25.095 52.644V512h65.966V358.974l-40.871-37.64z" fill="#f5eaf0"/><path fill="#fff9fd" d="M331.1 512h30.446l-15.223-30.446z"/><path d="M354.442 295.833h-30.446L402.141 512h30.446V373.978c0-43.089-35.056-78.145-78.145-78.145z" fill="#ff5474"/><path d="M323.996 295.833h-15.223L183.862 512H331.1l15.223-30.446L361.546 512h40.595V373.978c0-43.089-35.056-78.145-78.145-78.145z" fill="#ff7671"/><g fill="#ff5474"><circle cx="308.266" cy="473.943" r="7.611"/><path d="M331.1 400.365h30.446V512H331.1z"/></g><path d="M318.922 207.54l-67.996 159.334c54.368 0 98.442-44.074 98.442-98.442V207.54h-30.446z" fill="#a96950"/><path d="M318.922 268.432V207.54h-27.087c-8.34-13.879-23.539-23.167-40.909-23.167s-32.569 9.289-40.909 23.167h-57.533v60.892c0 54.368 44.074 98.442 98.442 98.442 37.553 0 67.996-44.073 67.996-98.442z" fill="#c6795b"/><path d="M256 230.375h-10.149c-4.205 0-7.611-3.407-7.611-7.611s3.407-7.611 7.611-7.611H256c4.205 0 7.612 3.407 7.612 7.611s-3.407 7.611-7.612 7.611z" fill="#ff976f"/><g fill="#ff5474"><circle cx="361.546" cy="343.532" r="7.611"/><circle cx="391.992" cy="373.978" r="7.611"/></g></svg>