<svg height="512" viewBox="0 0 64 64" width="512" xmlns="http://www.w3.org/2000/svg"><path d="M1 51.516h46a3.997 3.997 0 01-4 3.989H5c-2.21 0-4-1.79-4-3.989z" fill="#e6e9ed"/><path d="M55 20.516c4.42 0 8 3.58 8 8v4c0 4.42-3.58 8-8 8H43.62c.59-.96 1.11-1.96 1.55-3H55c2.76 0 5-2.24 5-5v-4a5.001 5.001 0 00-10 0v.489c0 .83-.67 1.5-1.5 1.5s-1.5-.67-1.5-1.5h-.01c.01-.159.01-.33.01-.489v-.011a7.995 7.995 0 018-7.989z" fill="#da4453"/><path d="M29 33.505v2a5 5 0 01-4.99 5c.181-.22 2.3-2.89-.01-6-2.41-3.25 0-6 0-6 2.76 0 5 2.24 5 5z" fill="#844747"/><path d="M24 34.505c2.31 3.11.19 5.78.01 6H24c-2.76 0-5-2.239-5-5v-2c0-2.76 2.24-5 5-5 0 0-2.41 2.75 0 6z" fill="#965353"/><path d="M19 33.505v2c0 2.761 2.24 5 5 5h.01a5 5 0 004.99-5v-2c0-2.76-2.24-5-5-5s-5 2.24-5 5zm28-13.01v8.021c0 .159 0 .33-.01.489a22.76 22.76 0 01-3.37 11.511C39.58 47.105 32.31 51.505 24 51.505c-12.7 0-23-10.3-23-23v-8.01z" fill="#ed5565"/><path d="M24 52.494c-13.233 0-24-10.767-24-24a1 1 0 112 0c0 12.131 9.869 22 22 22s22-9.869 22-22a1 1 0 112 0c0 13.234-10.767 24-24 24zm22.994-31.009H1a1 1 0 110-2h45.994a1 1 0 110 2zM55 41.506a1 1 0 110-2c3.859 0 7-3.14 7-6.998a1 1 0 112 0c0 4.962-4.037 8.998-9 8.998z"/><path d="M54.994 38.506a1 1 0 110-2c2.206 0 4-1.794 4-4a1 1 0 112 0c0 3.308-2.691 6-6 6zM63 29.504a1 1 0 01-1-1c0-3.859-3.141-7-7-7s-7 3.141-7 7a1 1 0 11-2 0c0-4.963 4.037-9 9-9s9 4.037 9 9a1 1 0 01-1 1z"/><path d="M59.994 29.502a1 1 0 01-1-1c0-2.206-1.794-4-4-4s-4 1.794-4 4a1 1 0 11-2 0c0-3.309 2.691-6 6-6s6 2.691 6 6a1 1 0 01-1 1zM1 29.494a1 1 0 01-1-1v-8.009a1 1 0 112 0v8.009a1 1 0 01-1 1zm45.994 0a1 1 0 01-1-1v-8.009a1 1 0 112 0v8.009a1 1 0 01-1 1zM55 41.506H43.619a1 1 0 110-2H55a1 1 0 110 2zm0-3h-9.832a1 1 0 110-2H55a1 1 0 110 2zm-8 13.996H1a1 1 0 110-2h46a1 1 0 110 2zM43 56.5H5.002a1 1 0 110-2H43a1 1 0 110 2z"/><path d="M5 56.5c-2.757 0-5-2.242-5-4.998a1 1 0 112 0A3.003 3.003 0 005 54.5a1 1 0 110 2zm38 0a1 1 0 110-2 3.002 3.002 0 002.998-2.998 1 1 0 112 0A5.004 5.004 0 0143 56.5zm5.498-25.004A2.501 2.501 0 0146 28.998a1 1 0 112 0 .5.5 0 00.498.498.498.498 0 00.496-.498 1 1 0 112 0 2.5 2.5 0 01-2.496 2.498z"/><path d="M49.994 29.998a1 1 0 01-1-1v-.496a1 1 0 112 0v.496a1 1 0 01-1 1zM63 33.508a1 1 0 01-1-1v-4.004a1 1 0 112 0v4.004a1 1 0 01-1 1zm-3.006-.002a1 1 0 01-1-1v-4.004a1 1 0 112 0v4.004a1 1 0 01-1 1zM23.997 41.5c-3.309 0-6-2.691-6-6a1 1 0 112 0c0 2.206 1.794 4 4 4s4-1.794 4-4a1 1 0 112 0c0 3.309-2.691 6-6 6z"/><path d="M28.997 34.498a1 1 0 01-1-1c0-2.206-1.794-4-4-4s-4 1.794-4 4a1 1 0 11-2 0c0-3.309 2.691-6 6-6s6 2.691 6 6a1 1 0 01-1 1z"/><path d="M18.997 36.5a1 1 0 01-1-1v-2.002a1 1 0 112 0V35.5a1 1 0 01-1 1zm10 0a1 1 0 01-1-1v-2.002a1 1 0 112 0V35.5a1 1 0 01-1 1zm-5 5.002a1 1 0 01-.753-1.658c.186-.219 1.798-2.254-.051-4.751-2.282-3.082-.965-6.093.051-7.253a.999.999 0 011.509 1.312c-.193.229-1.798 2.259.048 4.751 2.282 3.082.965 6.095-.051 7.257a.997.997 0 01-.753.342zM8.003 17.5a1 1 0 01-.449-1.895c0-.002.232-.146.31-.481.113-.493-.134-1.229-.694-2.069-.923-1.384-1.244-2.636-.955-3.722a2.77 2.77 0 011.34-1.728 1 1 0 01.917 1.777.797.797 0 00-.332.494c-.113.493.134 1.229.694 2.069.923 1.384 1.244 2.636.955 3.722a2.77 2.77 0 01-1.34 1.728 1.003 1.003 0 01-.446.105zm8 0a1 1 0 01-.449-1.895c0-.002.232-.146.31-.481.113-.493-.134-1.229-.694-2.069-.923-1.384-1.244-2.636-.955-3.722a2.77 2.77 0 011.34-1.728 1 1 0 01.917 1.777.79.79 0 00-.332.493c-.113.493.134 1.229.694 2.069.923 1.384 1.244 2.636.955 3.722a2.77 2.77 0 01-1.34 1.728.99.99 0 01-.446.106zm8 0a1 1 0 01-.449-1.895c0-.002.232-.146.31-.481.113-.493-.134-1.229-.694-2.069-.923-1.384-1.244-2.636-.955-3.722a2.77 2.77 0 011.34-1.728 1.001 1.001 0 01.917 1.777.79.79 0 00-.332.493c-.113.493.134 1.229.694 2.069.923 1.384 1.244 2.636.955 3.722a2.77 2.77 0 01-1.34 1.728.99.99 0 01-.446.106zm8 0a1 1 0 01-.449-1.895c0-.002.232-.146.31-.481.113-.493-.134-1.229-.694-2.069-.923-1.384-1.244-2.636-.955-3.722a2.77 2.77 0 011.34-1.728 1 1 0 01.917 1.777.79.79 0 00-.332.493c-.113.493.134 1.229.694 2.069.923 1.384 1.244 2.636.955 3.722a2.77 2.77 0 01-1.34 1.728.99.99 0 01-.446.106zm8 0a1 1 0 01-.449-1.895c0-.002.232-.146.31-.481.113-.493-.134-1.229-.694-2.069-.923-1.384-1.244-2.636-.955-3.722a2.77 2.77 0 011.34-1.728 1 1 0 01.917 1.777.79.79 0 00-.332.493c-.113.493.134 1.229.694 2.069.923 1.384 1.244 2.636.955 3.722a2.77 2.77 0 01-1.34 1.728.99.99 0 01-.446.106z"/></svg>