<svg xmlns="http://www.w3.org/2000/svg" viewBox="0 0 512.001 512.001"><path d="M360.835 313.801l-25.737-79.077-.405.135c.35-.122 35.486-12.687 80.662-55.184 16.726-15.735 43.041-14.932 58.775 1.796 15.734 16.726 14.93 43.041-1.796 58.775-58.871 55.38-106.286 71.858-111.499 73.555zm-209.666 0l25.737-79.077.405.135c-.35-.122-35.486-12.687-80.662-55.184-16.726-15.735-43.041-14.932-58.775 1.796-15.734 16.726-14.93 43.041 1.796 58.775 58.871 55.38 106.286 71.858 111.499 73.555z" fill="#7cb777"/><path d="M87.643 173.229c.123 2.335.275 4.67.494 7.002l9.96 106.302c29.45 19.154 49.764 26.191 53.073 27.269l25.737-79.077.405.135c-.35-.122-35.486-12.687-80.662-55.184a41.551 41.551 0 00-9.007-6.447zm336.225 7.002c.219-2.332.371-4.667.494-7.002a41.555 41.555 0 00-9.006 6.447c-45.176 42.497-80.312 55.062-80.662 55.184l.405-.135 25.737 79.077c3.309-1.077 23.623-8.114 53.073-27.269l9.959-106.302z" fill="#35925d"/><path d="M341.094 53.799c-23.531-18.191-53.048-29.015-85.092-29.015s-61.561 10.824-85.092 29.015c-37.755 29.186-57.355 76.121-52.904 123.633l14.398 153.68 123.598 28.156L379.6 331.112l14.398-153.68c4.452-47.512-15.148-94.447-52.904-123.633z" fill="#7cb777"/><path d="M364.178 48.531a16.816 16.816 0 01-1.763-11.13c2.168-11.615-8.002-21.785-19.617-19.617-3.802.71-7.733.087-11.13-1.763-10.376-5.651-23.192.878-24.719 12.595a16.82 16.82 0 01-5.116 10.04c-8.581 8.122-6.331 22.328 4.34 27.401a16.823 16.823 0 017.968 7.968c5.073 10.671 19.279 12.921 27.401 4.34a16.82 16.82 0 0110.04-5.116c11.717-1.526 18.247-14.342 12.596-24.718z" fill="#ff98c5"/><path d="M256.002 359.268l-136.005 28.156 16.628 85.224c3.61 18.5 19.818 31.852 38.667 31.852h161.42c18.849 0 35.057-13.351 38.667-31.852l16.628-85.224-136.005-28.156z" fill="#fd6f71"/><path d="M176.626 472.649l-16.628-85.224 116.004-24.016-20-4.141-136.005 28.156 16.628 85.224c3.61 18.5 19.818 31.852 38.667 31.852h40c-18.849 0-35.057-13.351-38.666-31.851z" fill="#e34b4c"/><path d="M392.007 331.112h-272.01c-8.688 0-15.731 7.043-15.731 15.731v24.851c0 8.688 7.043 15.731 15.731 15.731h272.01c8.688 0 15.731-7.043 15.731-15.731v-24.851c0-8.688-7.043-15.731-15.731-15.731z" fill="#efedee"/><path d="M144.267 371.694v-24.851c0-8.688 7.043-15.73 15.731-15.73h-40c-8.688 0-15.731 7.042-15.731 15.73v24.851c0 8.688 7.043 15.73 15.731 15.73h40c-8.688 0-15.731-7.043-15.731-15.73z" fill="#d2d2d2"/><path d="M183.468 175.067a7.5 7.5 0 00-7.5 7.5v13.125a7.5 7.5 0 0015 0v-13.125a7.5 7.5 0 00-7.5-7.5zm145.045 28.126a7.5 7.5 0 007.5-7.5v-13.125a7.5 7.5 0 00-15 0v13.125a7.5 7.5 0 007.5 7.5zm-72.523 7.006c9.14 0 17.723-3.821 23.546-10.483 2.726-3.119 2.408-7.856-.711-10.583s-7.857-2.408-10.583.71c-2.975 3.403-7.44 5.355-12.252 5.355s-9.278-1.952-12.252-5.355a7.5 7.5 0 10-11.294 9.872c5.824 6.662 14.406 10.484 23.546 10.484z"/><circle cx="331.392" cy="48.792" r="12.319"/><path d="M492.89 211.459c.4-13.104-4.326-25.578-13.308-35.127-9.237-9.82-22.27-15.452-35.756-15.452-12.542 0-24.482 4.735-33.622 13.333a366.391 366.391 0 01-9.162 8.307l.411-4.388a149.466 149.466 0 00-9.15-67.184l10.359-4.302a7.5 7.5 0 004.05-9.803 7.498 7.498 0 00-9.803-4.049l-10.661 4.428a145.387 145.387 0 00-17.122-26.451 24.292 24.292 0 001.937-3.157 24.304 24.304 0 00-.312-22.67 9.343 9.343 0 01-.977-6.166 24.22 24.22 0 00-5.183-19.982c-4.647-5.595-11.449-8.805-18.661-8.805-3.71 0-7.188 1.352-10.688-.556a24.352 24.352 0 00-11.609-2.977c-10.954 0-20.424 7.373-23.373 17.639a145.915 145.915 0 00-36.772-6.618V7.5a7.5 7.5 0 00-15 0v9.978c-22.665 1.125-44.339 7.349-63.887 18.289l-5.65-9.315c-2.147-3.542-6.76-4.671-10.302-2.523s-4.671 6.76-2.523 10.302l5.775 9.522a151.332 151.332 0 00-5.592 4.113c-16.975 13.122-30.876 30.052-40.603 49.347l-10.638-4.418a7.5 7.5 0 00-5.753 13.852l10.343 4.296c-8.109 21.271-11.271 44.378-9.134 67.19l.411 4.387a365.943 365.943 0 01-9.161-8.306c-9.139-8.598-21.08-13.333-33.622-13.333-13.486 0-26.519 5.632-35.756 15.452-18.542 19.712-17.591 50.834 2.121 69.376 35.543 33.436 67.068 53.027 88.327 63.912l1.311 13.991h-4.172c-12.809 0-23.23 10.421-23.23 23.231v24.851c0 10.607 7.148 19.57 16.879 22.341l15.619 80.05c4.286 21.97 23.644 37.916 46.028 37.916h161.42c22.384 0 41.741-15.946 46.028-37.916l15.619-80.05c9.73-2.771 16.879-11.734 16.879-22.341v-24.851c0-12.81-10.421-23.231-23.23-23.231h-4.172l1.311-13.991c21.259-10.885 52.784-30.477 88.327-63.912 9.549-8.982 15.028-21.146 15.429-34.25zM323.635 21.458c1.542 0 3.033.387 4.435 1.15a24.516 24.516 0 0016.094 2.549c6.347-1.186 12.045 4.558 10.868 10.868a24.39 24.39 0 002.549 16.094c1.492 2.74 1.536 5.906.119 8.685-1.362 2.673-4.024 4.575-6.994 4.989-5.561.773-10.749 3.326-14.622 7.417-3.331 3.519-9.075 3.861-12.781.723-1.572-1.331-2.355-3.233-3.374-4.97-2.437-4.157-6.19-7.61-10.546-9.679-2.818-1.339-4.714-3.875-5.202-6.957a9.321 9.321 0 012.798-8.224c4.026-3.809 6.681-9.022 7.397-14.518.687-5.278 5.284-8.127 9.259-8.127zM44.797 234.783c-13.687-12.875-14.348-34.486-1.472-48.173 6.508-6.919 15.327-10.729 24.83-10.729a33.947 33.947 0 0123.344 9.258 374.066 374.066 0 0021.436 18.696l8.234 87.888c-19.844-11.04-46.583-28.917-76.372-56.94zm164.876 103.829h182.322c4.538 0 8.23 3.692 8.23 8.231v24.851c0 4.539-3.692 8.231-8.23 8.231h-52.322a7.5 7.5 0 000 15h43.217l-14.884 76.288C365.09 486.155 351.924 497 336.7 497H175.28c-15.224 0-28.39-10.845-31.305-25.788l-14.885-76.288h180.583a7.5 7.5 0 000-15H119.985c-4.538 0-8.23-3.692-8.23-8.231v-24.851c0-4.539 3.692-8.231 8.23-8.231h59.688a7.5 7.5 0 000-15h-40.45l-1.829-19.525-9.717-103.715-2.215-23.639c-1.909-20.381.883-41.018 8.06-60.034l7.72 3.206c3.776 1.568 8.234-.273 9.803-4.049a7.499 7.499 0 00-4.05-9.803l-7.382-3.066c8.694-16.895 20.956-31.723 35.872-43.254a133.69 133.69 0 014.216-3.124l4.354 7.178c2.119 3.494 6.81 4.642 10.302 2.523a7.5 7.5 0 002.523-10.302l-4.482-7.39c17.198-9.528 36.211-15.001 56.093-16.102v9.552a7.5 7.5 0 0015 0v-9.555c10.053.563 19.938 2.24 29.538 5.05-.017.026-.03.054-.047.08-3.227 4.957-4.541 11.187-3.616 17.031a24.306 24.306 0 0013.577 18.157 9.396 9.396 0 014.415 4.415c3.755 7.898 11.932 13.375 20.674 13.834 7.022.369 14.086-2.435 18.926-7.537l.021-.021c1.419-1.52 3.457-2.56 5.563-2.834a24.303 24.303 0 004.496-1.017 130.254 130.254 0 0115.319 23.322l-7.369 3.061a7.499 7.499 0 00-4.05 9.803c1.565 3.769 6.044 5.611 9.803 4.05l7.707-3.201a134.427 134.427 0 018.073 60.028l-2.111 22.53-9.821 104.828-1.829 19.522H209.673a7.5 7.5 0 000 14.999zm257.511-103.829c-29.789 28.022-56.527 45.899-76.372 56.939l8.234-87.888a373.753 373.753 0 0021.437-18.696 33.946 33.946 0 0123.343-9.258c9.503 0 18.322 3.811 24.83 10.729 6.237 6.63 9.519 15.293 9.241 24.392-.278 9.099-4.083 17.545-10.713 23.782z"/></svg>