<svg height="512" width="512" xmlns="http://www.w3.org/2000/svg"><path d="M256 190.667a14.996 14.996 0 01-10.606-4.394l-34.889-34.888c-30.952-30.952-31.007-81.095 0-112.103l34.889-34.888a14.996 14.996 0 0121.212 0l34.889 34.888c30.952 30.953 31.007 81.096 0 112.103l-34.889 34.888A14.996 14.996 0 01256 190.667z" fill="#ffdc46"/><path d="M301.495 151.385c31.007-31.007 30.952-81.15 0-112.103L266.606 4.394A14.996 14.996 0 00256 0v190.667c3.979 0 7.794-1.581 10.606-4.394z" fill="#fa0"/><path d="M266.607 46.82c-5.858-5.858-15.355-5.858-21.213 0l-13.676 13.676c-19.235 19.235-19.273 50.404 0 69.675l13.676 13.676c5.858 5.858 15.355 5.858 21.213 0l13.676-13.676c19.235-19.235 19.272-50.404 0-69.675z" fill="#fa0"/><path d="M352.4 447.733H159.6c-8.284 0-15-6.716-15-15V175.667c0-8.284 6.716-15 15-15h192.8c8.284 0 15 6.716 15 15v257.067c0 8.284-6.716 14.999-15 14.999z" fill="#e9dfda"/><path d="M367.4 432.733V175.667c0-8.284-6.716-15-15-15H256v287.067h96.4c8.284-.001 15-6.716 15-15.001z" fill="#dad0cb"/><path d="M159.6 160.667c-8.284 0-15 6.716-15 15v127.467c43.708 0 79.266-35.559 79.266-79.267v-63.2z" fill="#f3eee9"/><path d="M352.4 160.667h-64.257v127.467c0 43.705 35.554 79.262 79.257 79.267V175.667c0-8.285-6.716-15-15-15z" fill="#e9dfda"/><path d="M432.733 512H79.267a14.996 14.996 0 01-10.606-4.394L4.394 443.34A15.002 15.002 0 0115 417.733h482a15 15 0 0110.606 25.607l-64.267 64.267A15 15 0 01432.733 512z" fill="#5a4650"/><path d="M443.34 507.606l64.267-64.267a15.002 15.002 0 00-10.606-25.607H256V512h176.733a15 15 0 0010.607-4.394z" fill="#002323"/><path d="M266.607 143.846l13.676-13.676c19.236-19.234 19.272-50.404 0-69.675L266.607 46.82A14.954 14.954 0 00256 42.426V148.24c3.839 0 7.678-1.465 10.607-4.394z" fill="#ec8500"/></svg>