<svg height="512" viewBox="0 0 64 64" width="512" xmlns="http://www.w3.org/2000/svg"><g data-name="Stroke copy 2"><path d="M35 6h-2V4a1 1 0 00-2 0v2h-2a1 1 0 000 2h2v6a1 1 0 002 0V8h2a1 1 0 000-2z" fill="#2d72bc"/><path d="M32 11l-8 14h16z" fill="#fcbc04"/><path d="M38.16 21.78L32 11v3a8 8 0 006.16 7.78z" fill="#f9e109"/><path d="M32 19l-8 6v36h16V25z" fill="#d0d8da"/><path d="M28 31v-9l-4 3v36h16V43a12 12 0 01-12-12zm31 30H40V37l19 8z" fill="#93999a"/><path d="M59 45l-19-8v24h19v-3h-1a15 15 0 01-15-15v-.74z" fill="#656b76"/><path d="M40 50l-8-6-8 6v11h16z" fill="#d0d8da"/><path d="M5 61h19V37L5 45z" fill="#656b76"/><path d="M32 52a3 3 0 013 3v6h-6v-6a3 3 0 013-3z" fill="#fcbc04"/><path d="M35 39h-6v-6l3-4 3 4z" fill="#57b7eb"/><path d="M32 29l-1.37 1.83L33 34v5h2v-6z" fill="#4891d3"/><path d="M44 48h10v8H44z" fill="#57b7eb"/><path d="M50.54 56A15 15 0 0144 48.35V56zM20 56H10v-8h10z" fill="#4891d3"/><path d="M61 46l-21-9v-4l21 9zM3 46l21-9v-4L3 42z" fill="#fcbc04"/><path d="M32 52a3 3 0 00-2.24 1H30a3 3 0 013 3v5h2v-6a3 3 0 00-3-3z" fill="#e59730"/><path d="M29 35.79V39h2.07A12.17 12.17 0 0129 35.79z" fill="#4891d3"/><path d="M40 33v2l21 9v-2zM3 42v2l21-9v-2z" fill="#f9e109"/><path d="M54 51h-4v-3h-2v3h-4v2h4v3h2v-3h4zm-34 0h-4v-3h-2v3h-4v2h4v3h2v-3h4z" fill="#2d72bc"/><path d="M50 51v-3h-2v3h-2.66a14.77 14.77 0 001.51 2H48v1.14a14.84 14.84 0 002 1.52V53h4v-2z" fill="#4891d3"/></g></svg>