<svg xmlns="http://www.w3.org/2000/svg" viewBox="0 0 512 512"><path fill="#57bae5" d="M18.539 471.966L62.005 512H450.01l43.466-40.034"/><path fill="#34a9d1" d="M18.539 471.966L62.005 512h31.137l-43.466-40.034z"/><path d="M269.227 77.607c-18.441-5.227-40.436-.258-40.436 18.166v37.174h54.432V95.773c.001-10.072-6.273-15.38-13.996-18.166z" fill="#57bae5"/><path d="M271.576 78.567c-14.422-6.528-42.784-3.469-42.784 17.206v37.174h31.137V95.773c-.001-9.026 5.041-14.22 11.647-17.206z" fill="#34a9d1"/><path d="M407.105 225.14v-41.069c0-10.63-8.616-19.246-19.246-19.246H124.152c-10.628 0-19.244 8.616-19.244 19.246v114.198h302.199V252.2" fill="#7c5437"/><path d="M387.859 164.825H263.298c-2.705 47.172 7.089 92.822 27.614 133.444h116.193V184.071c0-10.629-8.616-19.246-19.246-19.246z" fill="#8e5e3d"/><path d="M342.182 164.825V142.81c0-6.062-4.913-10.975-10.976-10.975H180.808c-6.062 0-10.976 4.913-10.976 10.975v22.015h172.35z" fill="#ff4b4e"/><path d="M331.205 131.835H267.29a263.435 263.435 0 00-3.991 32.99h78.884V142.81c-.001-6.061-4.914-10.975-10.978-10.975z" fill="#fc5162"/><path d="M155.29 164.825h-31.139c-10.628 0-19.244 8.616-19.244 19.246v114.198h31.137V184.071c0-10.629 8.616-19.246 19.246-19.246z" fill="#603d26"/><path d="M211.944 131.835h-31.137c-6.062 0-10.976 4.913-10.976 10.975v22.015h31.137V142.81c0-6.061 4.914-10.975 10.976-10.975z" fill="#ef2235"/><path d="M254.903.134a31.315 31.315 0 00-18.909 28.761c0 19.189 16.683 28.989 20.014 28.989 3.134 0 20.014-9.577 20.014-28.989C276.02 9.353 258.308-1.337 254.903.134z" fill="#f99830"/><path d="M387.859 164.825H124.153c-8.72 0-16.085 5.798-18.449 13.748-1.016 3.43-.797 4.266-.797 20.249l35.811 23.267c12.638 8.211 23.703 3.27 27.608.977l24.499-15.919.002-.001c11.198-7.276 21.08-2.755 24.421-.782 43.056 27.974 34.26 28.104 77.516 0 3.341-1.973 13.223-6.494 24.421.782l.002.001 24.499 15.919c3.904 2.293 14.97 7.233 27.608-.977l35.811-23.267V184.07c0-10.631-8.618-19.245-19.246-19.245z" fill="#ffc373"/><path d="M387.859 164.825H263.298c-1.15 20.062-.075 39.849 3.312 59.701 1.241-.628-1.074.831 28.154-18.16 3.341-1.973 13.223-6.494 24.421.782l.002.001 24.499 15.919c3.904 2.293 14.97 7.233 27.608-.977l35.811-23.267c0-16.206.033-15.387-.1-16.72-.987-9.715-9.186-17.279-19.146-17.279z" fill="#fcca8d"/><path d="M136.044 184.071c0-10.63 8.616-19.246 19.246-19.246-31.405 0-33.27-.612-38.283 1.385a19.254 19.254 0 00-12.1 17.86v14.752l31.137 20.23v-34.981z" fill="#f7ac52"/><path d="M454.189 368.964v-45.451c0-13.943-11.301-25.244-25.243-25.244H83.067c-13.942 0-25.241 11.301-25.241 25.244v116.204h396.363v-44.065" fill="#7c5437"/><path d="M428.945 298.269H290.912c32.834 64.99 91.893 114.466 163.277 134.511V323.514c0-13.944-11.302-25.245-25.244-25.245z" fill="#8e5e3d"/><path d="M495.094 439.717H16.919c-9.213 0-16.68 7.468-16.68 16.681 0 9.212 7.467 16.681 16.68 16.681h478.176c9.213 0 16.682-7.468 16.682-16.681-.001-9.212-7.47-16.681-16.683-16.681z" fill="#bad8e8"/><path d="M495.094 456.398H16.918c-6.169 0-11.546-3.359-14.429-8.34-6.438 11.109 1.613 25.02 14.429 25.02h478.176c9.213 0 16.682-7.468 16.682-16.681 0-3.042-.828-5.885-2.251-8.34-2.885 4.982-8.259 8.341-14.431 8.341z" fill="#91c5db"/><path d="M114.205 298.269H83.067c-13.942 0-25.241 11.301-25.241 25.244v116.204h31.137V323.513c0-13.943 11.3-25.244 25.242-25.244z" fill="#603d26"/><path d="M57.826 323.513v15.431l32.378 21.038c12.638 8.212 23.703 3.27 27.608.978l24.499-15.919.002-.001c11.198-7.276 21.082-2.754 24.421-.782 42.85 27.837 34.94 27.855 76.605.783 0 0 5.453-3.988 12.726-3.988 3.756.031 8.072 1.042 12.607 3.987l.002.001c24.427 15.872 28.496 19.672 36.866 19.935 4.595.217 9.175-1.089 12.791-3.208 15.116-9.823 8.513-5.532 26.947-17.509 3.339-1.972 13.223-6.494 24.421.782l.002.001 24.499 15.919c3.904 2.292 14.969 7.234 27.61-.978l32.378-21.038v-15.431c0-13.943-11.301-25.244-25.243-25.244H83.067c-13.942-.001-25.241 11.3-25.241 25.243z" fill="#ffc373"/><path d="M428.945 298.269H290.912a262.812 262.812 0 0038.406 56.359c1.733-1.127-.833.54 15.96-10.371 3.339-1.972 13.223-6.494 24.421.782l.002.001 24.499 15.919c3.904 2.292 14.969 7.234 27.61-.978l32.378-21.038v-15.431c.001-13.942-11.301-25.243-25.243-25.243z" fill="#fcca8d"/><path d="M88.963 323.513c0-13.943 11.299-25.244 25.242-25.244H83.067c-13.942 0-25.241 11.301-25.241 25.244v15.431l31.137 20.231v-35.662z" fill="#f7ac52"/><circle cx="173.981" cy="266.139" r="10.83" fill="#00cdb3"/><circle cx="282.964" cy="248.351" r="10.83" fill="#57bae5"/><circle cx="356.281" cy="259.414" r="10.83" fill="#00cdb3"/><path d="M298.551 280.713a8.34 8.34 0 014.005-11.095l15.046-7.066c4.171-1.957 9.139-.166 11.096 4.006 1.957 4.168.162 9.135-4.005 11.094l-15.048 7.066a8.34 8.34 0 01-11.094-4.005z" fill="#ff4b4e"/><path d="M220.584 269.982l-14.184-8.665a8.34 8.34 0 018.694-14.235l14.186 8.665a8.338 8.338 0 012.77 11.464 8.341 8.341 0 01-11.466 2.771z" fill="#ffca54"/><circle cx="322.138" cy="407.26" r="10.83" fill="#57bae5"/><circle cx="213.155" cy="389.472" r="10.83" fill="#00cdb3"/><circle cx="139.838" cy="400.526" r="10.83" fill="#ff4b4e"/><path d="M186.474 425.837l-15.046-7.065a8.342 8.342 0 01-4.005-11.095c1.957-4.169 6.925-5.96 11.094-4.005l15.048 7.066a8.34 8.34 0 11-7.091 15.099z" fill="#ffca54"/><path d="M379.053 418.772l-15.048-7.064A8.342 8.342 0 01360 400.613c1.957-4.169 6.925-5.96 11.094-4.006l15.048 7.065a8.344 8.344 0 014.005 11.095 8.34 8.34 0 01-11.094 4.005z" fill="#57bae5"/><path d="M264.07 408.33a8.341 8.341 0 012.77-11.464l14.186-8.666a8.344 8.344 0 0111.466 2.77c2.4 3.93 1.158 9.063-2.772 11.466l-14.186 8.665a8.337 8.337 0 01-11.464-2.771z" fill="#ffca54"/></svg>