<svg xmlns="http://www.w3.org/2000/svg" viewBox="0 0 511.999 511.999"><path d="M511.999 230.469c-36.574 0-36.574-33.536-73.147-33.536s-36.574 33.536-73.147 33.536c-36.572 0-36.572-33.536-73.144-33.536s-36.571 33.536-73.141 33.536c-36.569 0-36.569-33.536-73.138-33.536-36.57 0-36.57 33.536-73.141 33.536S36.57 196.933 0 196.933v84.596c36.571 0 36.571 33.536 73.141 33.536s36.57-33.536 73.141-33.536c36.569 0 36.569 33.536 73.138 33.536 36.571 0 36.571-33.536 73.141-33.536 36.572 0 36.572 33.536 73.144 33.536 36.574 0 36.574-33.536 73.147-33.536s36.574 33.536 73.147 33.536" fill="#319fbc"/><path d="M511.999 145.873c-36.574 0-36.574-33.536-73.147-33.536s-36.574 33.536-73.147 33.536c-36.572 0-36.572-33.536-73.144-33.536s-36.571 33.536-73.141 33.536c-36.569 0-36.569-33.536-73.138-33.536-36.57 0-36.57 33.536-73.141 33.536S36.57 112.337 0 112.337v84.596c36.571 0 36.571 33.536 73.141 33.536s36.57-33.536 73.141-33.536c36.569 0 36.569 33.536 73.138 33.536 36.571 0 36.571-33.536 73.141-33.536 36.572 0 36.572 33.536 73.144 33.536 36.574 0 36.574-33.536 73.147-33.536s36.574 33.536 73.147 33.536" fill="#2690a8"/><path d="M511.999 315.066c-36.574 0-36.574-33.536-73.147-33.536s-36.574 33.536-73.147 33.536c-36.572 0-36.572-33.536-73.144-33.536s-36.571 33.536-73.141 33.536c-36.569 0-36.569-33.536-73.138-33.536-36.57 0-36.57 33.536-73.141 33.536S36.57 281.529 0 281.529v84.596c36.571 0 36.571 33.536 73.141 33.536s36.57-33.536 73.141-33.536c36.569 0 36.569 33.536 73.138 33.536 36.571 0 36.571-33.536 73.141-33.536 36.572 0 36.572 33.536 73.144 33.536 36.574 0 36.574-33.536 73.147-33.536s36.574 33.536 73.147 33.536" fill="#40b3db"/></svg>