<svg height="512pt" viewBox="0 0 512 512" width="512pt" xmlns="http://www.w3.org/2000/svg"><path d="M382.871 371.191C254.855 360.816 151.184 257.145 140.81 129.13c-3.149-38.813 2.168-75.996 14.195-110.016 2.629-7.43-5.152-14.383-12.027-10.527C56.512 57.086 0 152.64 8.3 260.602c9.902 128.793 114.304 233.195 243.097 243.097C359.36 512 454.91 455.49 503.414 369.02c3.856-6.87-3.098-14.652-10.527-12.027-34.02 12.031-71.203 17.348-110.016 14.2zm0 0" fill="#ffeaa8"/><path d="M103.691 223.93c0-13.282-8.972-24.047-20.039-24.047-11.07 0-20.043 10.765-20.043 24.047s8.973 24.05 20.043 24.05c11.067 0 20.04-10.77 20.04-24.05zm87.622 183.808c-9.532-7.547-22.012-7.66-27.88-.254-5.863 7.407-2.89 19.528 6.641 27.075 9.528 7.546 22.012 7.66 27.875.253s2.89-19.527-6.637-27.074zm0 0" fill="#fff5d7"/><path d="M492.887 356.992a260.911 260.911 0 01-13.223 4.281c-41.738 71.278-119.066 119.184-207.629 119.184-132.82 0-240.492-107.672-240.492-240.492 0-88.563 47.906-165.89 119.184-207.63a260.911 260.911 0 014.28-13.222c2.626-7.43-5.155-14.383-12.027-10.527C56.512 57.086 0 152.64 8.3 260.602c9.903 128.793 114.305 233.195 243.102 243.097C359.36 512 454.914 455.49 503.414 369.02c3.856-6.87-3.098-14.652-10.527-12.027zm0 0" fill="#f6d190"/><path d="M178.418 244.238a56.238 56.238 0 00-6.719 3.328c-16.699 9.723-27.324 32.68-27.926 48.512-1.175 30.969 25.125 56.117 56.114 56.117 21.785 0 40.625-12.437 49.925-30.574-28.597-20.789-52.937-47.129-71.394-77.383zm0 0" fill="#f6d190"/><path d="M318.762 429.168c-16.188 4.77-27.145 15.984-24.477 25.043 2.672 9.062 17.961 12.543 34.149 7.77 16.187-4.77 27.144-15.985 24.472-25.047-2.668-9.059-17.957-12.54-34.144-7.766zm0 0" fill="#fff5d7"/><path d="M296.086 183.848c-17.711 0-32.066-14.356-32.066-32.063 0 17.707-14.356 32.063-32.067 32.063 17.711 0 32.067 14.359 32.067 32.066 0-17.707 14.355-32.066 32.066-32.066zm0 0" fill="#ffeaa8"/><path d="M219.93 332.152c-30.993 0-56.114-25.125-56.114-56.113 0-10.41 2.938-20.125 7.88-28.476-16.692 9.718-27.923 27.804-27.923 48.515 0 30.992 25.125 56.117 56.118 56.117 20.601 0 38.464-11.195 48.222-27.746-8.289 4.848-17.883 7.703-28.183 7.703zm0 0" fill="#ecbd83"/><path d="M508.254 354.77c-4.399-5.227-11.414-7.13-17.867-4.848-34.282 12.125-70.254 16.765-106.91 13.793-60.141-4.875-117.125-31.418-160.45-74.742-43.324-43.325-69.867-100.309-74.742-160.45-2.973-36.656 1.668-72.628 13.793-106.91 2.281-6.453.379-13.468-4.851-17.867-5.086-4.285-12.122-4.953-17.918-1.7-44.582 25.005-81.16 61.88-105.782 106.638C8.027 155.043-3.28 207.777.824 261.176c10.176 132.347 117.653 239.824 250 250 7.153.55 14.285.824 21.399.824 46.004 0 90.941-11.441 131.093-33.527 44.758-24.621 81.63-61.2 106.637-105.782 3.254-5.796 2.586-12.832-1.7-17.921zm-11.383 10.582c-23.633 42.136-58.484 76.71-100.781 99.976-43.797 24.09-93.63 34.777-144.113 30.89-125.04-9.613-226.582-111.152-236.196-236.19-3.883-50.485 6.801-100.317 30.89-144.118 23.266-42.297 57.837-77.148 99.977-100.781.118-.067.247-.14.407-.14.14 0 .308.058.515.23.438.37.563.84.364 1.39-12.832 36.29-17.743 74.348-14.602 113.125 5.164 63.688 33.25 124.004 79.09 169.844a275.387 275.387 0 0027.488 24.063c-9.027 13.078-23.957 21.05-40.02 21.05-26.808 0-48.617-21.808-48.617-48.613 0-9.566 2.774-18.816 8.02-26.758a7.505 7.505 0 00-2.125-10.394 7.496 7.496 0 00-10.39 2.125c-6.872 10.402-10.505 22.512-10.505 35.027 0 35.074 28.54 63.613 63.618 63.613 20.914 0 40.382-10.3 52.207-27.257 38.672 26.351 83.511 42.449 130.168 46.234 38.773 3.14 76.836-1.773 113.12-14.605.551-.196 1.024-.07 1.391.367.368.437.223.695.094.922zm0 0"/><path d="M111.191 223.93c0-17.395-12.355-31.547-27.539-31.547-15.187 0-27.543 14.152-27.543 31.547 0 17.398 12.356 31.55 27.543 31.55 15.184 0 27.54-14.152 27.54-31.55zm-27.539 16.55c-6.8 0-12.543-7.578-12.543-16.55 0-8.97 5.743-16.547 12.543-16.547 6.797 0 12.54 7.578 12.54 16.547 0 8.972-5.743 16.55-12.54 16.55zm112.301 161.391c-5.91-4.68-12.976-7.293-19.898-7.355-7.535-.043-14.27 2.964-18.512 8.324-4.246 5.36-5.652 12.62-3.863 19.926 1.648 6.726 5.812 13.007 11.722 17.687 6.164 4.879 13.368 7.3 20.125 7.3 7.227 0 13.934-2.773 18.286-8.269 4.246-5.359 5.652-12.62 3.863-19.925-1.653-6.727-5.813-13.008-11.723-17.688zm-3.898 28.3c-3.18 4.013-11.282 3.321-17.34-1.48-3.262-2.582-5.617-6.043-6.465-9.496-.398-1.629-.793-4.71 1.05-7.043 1.805-2.277 4.805-2.636 6.505-2.636h.113c3.55.03 7.46 1.53 10.723 4.113 3.261 2.582 5.617 6.043 6.464 9.496.399 1.633.793 4.715-1.05 7.047zm161.566 5.442a7.498 7.498 0 00-5.703 8.942c.473 2.14-6.406 10.156-22.145 13.636-15.738 3.48-25.355-.882-25.828-3.023-.472-2.145 6.407-10.156 22.145-13.64a7.5 7.5 0 10-3.242-14.645c-22.024 4.87-36.446 18.426-33.547 31.523 2.23 10.086 13.887 16.086 29.191 16.086 4.567 0 9.461-.535 14.52-1.656 22.027-4.871 36.449-18.422 33.55-31.52a7.497 7.497 0 00-8.94-5.703zm-233.898-94.929h-4.524v-4.524a7.5 7.5 0 10-15 0v4.524h-4.523a7.5 7.5 0 00-7.5 7.5 7.5 7.5 0 007.5 7.504h4.523v4.523a7.5 7.5 0 1015 0v-4.524h4.524a7.5 7.5 0 007.5-7.503 7.5 7.5 0 00-7.5-7.5zm165.632 62.32l-6.722-6.723 6.722-6.719a7.497 7.497 0 000-10.605 7.497 7.497 0 00-10.605 0l-6.723 6.719-6.718-6.719a7.502 7.502 0 00-10.61 0c-2.926 2.926-2.926 7.676 0 10.606l6.723 6.718-6.723 6.723c-2.926 2.93-2.926 7.68 0 10.605a7.484 7.484 0 005.305 2.2c1.918 0 3.84-.735 5.305-2.2l6.718-6.718 6.723 6.718a7.475 7.475 0 005.3 2.2c1.923 0 3.84-.735 5.305-2.2a7.497 7.497 0 000-10.605zM90.371 157.086a7.477 7.477 0 005.305 2.2 7.475 7.475 0 005.3-2.2l2.715-2.711 2.711 2.71c1.465 1.466 3.387 2.2 5.305 2.2s3.84-.734 5.305-2.2a7.504 7.504 0 000-10.605l-2.715-2.714 2.715-2.711c2.925-2.93 2.925-7.68 0-10.606a7.502 7.502 0 00-10.61 0l-2.71 2.711-2.715-2.71a7.497 7.497 0 00-10.606 0 7.497 7.497 0 000 10.605l2.715 2.71-2.715 2.715a7.497 7.497 0 000 10.606zm141.582 34.262c13.547 0 24.567 11.023 24.567 24.566 0 4.14 3.359 7.5 7.5 7.5s7.5-3.36 7.5-7.5c0-13.547 11.02-24.566 24.566-24.566a7.5 7.5 0 100-15c-13.547 0-24.566-11.02-24.566-24.567 0-4.14-3.36-7.5-7.5-7.5s-7.5 3.36-7.5 7.5c0 13.547-11.02 24.567-24.567 24.567a7.5 7.5 0 100 15zm32.067-16.41a39.841 39.841 0 008.91 8.91 39.94 39.94 0 00-8.91 8.914 39.94 39.94 0 00-8.91-8.914 39.841 39.841 0 008.91-8.91zm88.18 92.566h4.523v4.523a7.5 7.5 0 007.504 7.5 7.5 7.5 0 007.5-7.5v-4.523h4.523c4.14 0 7.5-3.36 7.5-7.5s-3.36-7.5-7.5-7.5h-4.523v-4.524a7.5 7.5 0 00-7.5-7.5 7.5 7.5 0 00-7.504 7.5v4.524h-4.524c-4.14 0-7.5 3.36-7.5 7.5s3.36 7.5 7.5 7.5zm0 0"/></svg>