<svg xmlns="http://www.w3.org/2000/svg" viewBox="0 0 383.186 383.186"><path d="M226.704 124.057a8.88 8.88 0 00-6.16-1.92h-33.84l31.6-35.28 2.96-3.28 1.92-2.32c.527-.742.957-1.549 1.28-2.4a8.002 8.002 0 00.56-2.88 6 6 0 00-2.96-5.76 17.929 17.929 0 00-8.4-1.6h-39.68a8.64 8.64 0 00-5.84 1.76 5.92 5.92 0 00-2.08 4.72c0 2.72.88 4.32 2.72 4.96 2.6.736 5.3 1.06 8 .96h25.6c-1.067 1.493-2.48 3.253-4.24 5.28l-6.64 7.52-8.64 9.6-10.32 11.44c-3.6 4-5.92 6.72-7.04 8a7.52 7.52 0 00.72 10.32 10.879 10.879 0 007.52 2.4h46.72a9.116 9.116 0 006.24-1.84 6.083 6.083 0 002.08-4.72 6.398 6.398 0 00-2.08-4.96zm70.56 40.239a7.039 7.039 0 00-4.96-1.52h-26.88l25.2-28.16 2.4-2.64 1.52-1.84a8.553 8.553 0 001.04-1.92 6.574 6.574 0 00.48-2.32 4.802 4.802 0 00-2.32-4.64 14.24 14.24 0 00-6.72-1.28h-31.36a6.958 6.958 0 00-4.64 1.44 4.721 4.721 0 00-1.68 3.76c0 2.16.72 3.44 2.16 4 2.077.608 4.238.879 6.4.8h20.16c-.88 1.2-2 2.56-3.36 4.24l-5.28 6-6.88 8-8 9.12c-2.88 3.2-4.773 5.387-5.68 6.56a6 6 0 00.56 8 8.64 8.64 0 005.68 1.52h37.28a7.282 7.282 0 004.96-1.44 4.88 4.88 0 001.6-3.76 5.12 5.12 0 00-1.68-3.92zm83.84-44.719a8.88 8.88 0 00-6.16-1.92h-33.76l31.6-35.28 2.88-3.6 1.92-2.32c.525-.744.955-1.55 1.28-2.4a8.002 8.002 0 00.56-2.88 6 6 0 00-2.96-5.76 17.995 17.995 0 00-8.8-1.84h-39.2a8.64 8.64 0 00-5.84 1.76 5.92 5.92 0 00-2.08 4.72c0 2.72.88 4.32 2.72 4.96 2.6.735 5.3 1.059 8 .96h25.6c-1.067 1.493-2.453 3.253-4.16 5.28l-6.64 7.52-8.64 9.6-10.32 11.44c-3.6 4-5.92 6.72-7.04 8a7.36 7.36 0 00-1.68 4.48 7.44 7.44 0 002.4 5.84 10.88 10.88 0 007.36 2.16h46.72a9.116 9.116 0 006.24-1.84 6.083 6.083 0 002.08-4.72 6.394 6.394 0 00-2.08-4.16z"/><path d="M351.132 252.524a8 8 0 00-6.508-.148h.08c-86.719 35.869-186.096-5.353-221.965-92.072a169.92 169.92 0 013.005-136.728 8 8 0 00-10.32-10.8C20.363 51.826-25.044 160.544 14.005 255.605c39.049 95.061 147.767 140.468 242.829 101.419a186.081 186.081 0 0098.111-93.848 8.001 8.001 0 00-3.813-10.652z"/></svg>