<svg height="511pt" viewBox="-44 0 511 511.999" width="511pt" xmlns="http://www.w3.org/2000/svg"><path d="M396.938 36.766c-23.102-10.871-50.645-.961-61.516 22.144l-82.383 175.067c-.918 1.949-3.855 1.195-3.719-.957L261 49.164c1.621-25.48-17.723-47.45-43.203-49.066-25.453-1.641-47.45 17.722-49.07 43.203L154.03 274.582c-1.617 25.48 17.727 47.45 43.207 49.066 1 .063 1.989.094 2.977.094 12.328 0 23.652-4.894 32.004-12.926 4.066 10.942 12.242 20.368 23.64 25.73a46.038 46.038 0 0019.657 4.415c17.351 0 33.984-9.816 41.859-26.559L419.082 98.277c10.871-23.101.957-50.64-22.144-61.511zm0 0" fill="#da9d81"/><path d="M33.664 372.938c0 76.8 62.262 139.062 139.063 139.062h12.296c76.805 0 139.063-62.262 139.063-139.063v-11.183l-61.64-65.879H77.913zm0 0" fill="#c7856a"/><path d="M64.57 372.938l44.25-77.063H77.914l-44.25 77.063c0 76.8 62.262 139.062 139.063 139.062h12.296c3.13 0 6.23-.117 9.305-.316-72.465-4.79-129.758-65.075-129.758-138.746zm0 0" fill="#ba775b"/><path d="M92.195 402.063c-24.207 8.12-50.41-4.918-58.53-29.125l-30.75-91.68c-8.122-24.203 4.917-50.41 29.124-58.531 24.207-8.122 50.414 4.921 58.531 29.128l57.368 25.657-26.614 66.02c8.117 24.206-4.922 50.413-29.129 58.53zm0 0" fill="#da9d81"/><path d="M249.32 233.02v-.012l-12.34-4.73a71.674 71.674 0 00-25.761-4.786c-21.778 0-42.145 10.063-55.617 26.383l-1.57 24.707c-1.622 25.48 17.722 47.45 43.202 49.066 1 .063 1.993.094 2.977.094 12.332 0 23.652-4.894 32.008-12.93 4.062 10.946 12.242 20.372 23.64 25.735a46.078 46.078 0 0019.657 4.41c17.351 0 33.98-9.816 41.859-26.555l22.043-46.847-86.61-33.211c-1.093 1.465-3.617.672-3.488-1.324zm0 0" fill="#ba775b"/><path d="M324.086 361.75l-61.64-65.875h-123.2c.188 28.785 17.73 55.914 46.191 66.828l102.473 39.293a71.695 71.695 0 0025.766 4.785c2.125 0 4.234-.105 6.328-.293a139.479 139.479 0 004.086-33.55V361.75zm0 0" fill="#ba775b"/><path d="M179.855 372.66c-24.207 8.121-50.414-4.922-58.53-29.129l-34.43-102.633c-8.118-24.207 4.921-50.414 29.128-58.53 24.207-8.122 50.41 4.917 58.532 29.124L208.98 314.13c8.122 24.207-4.917 50.41-29.125 58.531zm0 0" fill="#edb798"/><path d="M208.984 314.125l-28.12-83.824c-16.587 7.773-30.087 21.734-36.868 39.414-14.21 37.062 4.379 78.773 41.441 92.988l7.676 2.942c15.36-11.66 22.344-32.22 15.871-51.52zm0 0" fill="#da9d81"/><path d="M313.676 381.027a46.077 46.077 0 01-16.543-3.078l-102.477-39.293c-23.84-9.144-35.754-35.879-26.613-59.719s35.875-35.753 59.719-26.613l102.476 39.293c23.84 9.145 35.754 35.88 26.614 59.719-7.055 18.394-24.586 29.691-43.176 29.691zm0 0" fill="#edb798"/></svg>