<svg height="512" width="512" xmlns="http://www.w3.org/2000/svg"><g data-name="filled outline"><path d="M280 216h-48V48a24 24 0 0124-24 24 24 0 0124 24z" fill="#dc9315"/><path d="M264 25.47A23.929 23.929 0 00248 48v168h32V48a23.929 23.929 0 00-16-22.53z" fill="#c48412"/><path d="M144 212.085L50.088 232 25.2 114.61a48.007 48.007 0 013.417-30.165 48 48 0 0175.129-15.931A48 48 0 01119.107 94.7z" fill="#ce9c77"/><path d="M56.492 115.969a8 8 0 01-1.652-15.828l31.308-6.633a8 8 0 013.317 15.656L58.156 115.8a8.086 8.086 0 01-1.664.169zm6.637 31.304a8 8 0 01-1.652-15.828l31.308-6.633a8 8 0 013.315 15.657L64.793 147.1a8.092 8.092 0 01-1.664.173zm6.637 31.305a8 8 0 01-1.653-15.828l31.309-6.633a8 8 0 013.316 15.656l-31.308 6.633a8.1 8.1 0 01-1.664.172z" fill="#be906e"/><path d="M143.134 208l-10.335-48.737L80 208z" fill="#c39372"/><path d="M96 208l104-96v104H96z" fill="#fbeebd"/><path d="M425.862 99.327l8.974-30.76-46.582-11.582-8.974 30.76a80 80 0 00-46.5 54.387L304 238.96l108.691 27.024 28.783-96.826a80.006 80.006 0 00-15.612-69.831z" fill="#bef5fa"/><path d="M434.836 68.566l-31.664-7.872-7.892 27.052a80 80 0 00-46.5 54.387L320 238.959l93.792 23.32 27.682-93.121a80 80 0 00-15.612-69.831z" fill="#b6eaef"/><path d="M388.048 23.875l62.08 15.424-7.712 31.04-62.08-15.424z" fill="#4298d1"/><path d="M403.465 60.978l7.712-31.04 38.986 9.686-7.712 31.04z" fill="#3e8cc7"/><path d="M313.134 208.232l109.206 25.291 19.134-64.365-108.691-27.025z" fill="#4298d1"/><path d="M328 210.419l94.689 21.93 18.785-63.191-94.243-23.432z" fill="#3e8cc7"/><path d="M374.96 464H137.04a64 64 0 01-63.578-56.664L56 256h400l-17.462 151.336A64 64 0 01374.96 464z" fill="#dc9315"/><path d="M480 256H32a16 16 0 01-16-16v-16a16 16 0 0116-16h8l88 24 88-24h264a16 16 0 0116 16v16a16 16 0 01-16 16z" fill="#ec9e15"/><g fill="#c48412"><path d="M88 376a47.8 47.8 0 00-17.758 3.433l3.22 27.9a63.986 63.986 0 0044.886 53.841A47.992 47.992 0 0088 376zm232 16h16v16h-16zm-32 0h16v16h-16zm0 32h16v16h-16zm0-96h16v16h-16zm0 32h16v16h-16zm64 32h16v16h-16zm0 32h16v16h-16zm-32 0h16v16h-16zm0-64h16v16h-16z"/><path d="M255.058 384.487a28.521 28.521 0 00-51.965-11.787 9.053 9.053 0 01-15.066 0 28.521 28.521 0 00-51.965 11.787l-.012.082a92.538 92.538 0 0011.262 59l11.616 20.328c.022.039.058.067.081.106h28.551l8-8 8 8h28.551c.023-.039.058-.067.081-.106l11.616-20.328a92.538 92.538 0 0011.262-59z"/></g><path d="M454.151 272.02L456 256H56l1.849 16.02z" fill="#d38e14"/><path d="M128 304l-88-96h176z" fill="#f85542"/><path d="M164 256H76l44 48z" fill="#d38e14"/><path d="M299.951 256H242.01a23.925 23.925 0 007.03 16.97l171.7 171.7a63.763 63.763 0 0017.8-37.331l1.319-11.431z" fill="#c48412"/><path d="M75.998 256H88l-40-48-16 .002z" fill="#dc9315"/><path d="M128 304.002l-88-96h176z" fill="#97d9a9"/><path d="M194.688 384h-.18a8.006 8.006 0 01-7.824-8.172 68.417 68.417 0 0143.054-62.117l2.848-1.141a8 8 0 015.945 14.86l-2.851 1.14a52.416 52.416 0 00-33 47.6 8.006 8.006 0 01-7.992 7.83z" fill="#c48412"/><path d="M202.688 376h-.18a8.006 8.006 0 01-7.824-8.172 68.417 68.417 0 0143.054-62.117l2.848-1.141a8 8 0 015.945 14.86l-2.851 1.14a52.416 52.416 0 00-33 47.6 8.006 8.006 0 01-7.992 7.83z" fill="#a55e00"/><path d="M226.224 464a16.088 16.088 0 01-11.376-4.712L203.56 448l-11.288 11.288A16.088 16.088 0 01180.9 464a16.087 16.087 0 01-13.968-8.106l-11.616-20.327a92.542 92.542 0 01-11.262-59l.012-.082A28.521 28.521 0 01172.3 352a28.523 28.523 0 0123.731 12.7 9.053 9.053 0 0015.066 0 28.523 28.523 0 0123.727-12.7 28.521 28.521 0 0128.234 24.487l.012.082a92.542 92.542 0 01-11.262 59l-11.616 20.327A16.087 16.087 0 01226.224 464z" fill="#f85542"/><path d="M203.559 403.758a43.834 43.834 0 01-19.579-4.6 8 8 0 117.157-14.312 27.9 27.9 0 0024.843 0 8 8 0 117.157 14.312 43.82 43.82 0 01-19.578 4.6z" fill="#ff756a"/><circle cx="88" cy="416" fill="#ff9201" r="48"/><path d="M88 400h-.18a8.006 8.006 0 01-7.82-8.172 68.417 68.417 0 0143.055-62.117l2.847-1.141a8 8 0 015.946 14.86L129 344.57a52.416 52.416 0 00-33 47.6 8.005 8.005 0 01-8 7.83z" fill="#a55e00"/><path d="M88 403.758a43.817 43.817 0 01-19.578-4.6 8 8 0 017.156-14.312 27.9 27.9 0 0024.844 0 8 8 0 117.156 14.312 43.817 43.817 0 01-19.578 4.6z" fill="#e18005"/><path d="M282.98 239.029A24 24 0 00242.01 256h57.941z" fill="#dc9315"/><rect fill="#f5b02e" height="328" rx="24" transform="rotate(-45 364.971 341.097)" width="48" x="341.005" y="177.005"/><path d="M480 200h-39.365l8.357-28.232.07-.221v-.026l.138-.466a88.294 88.294 0 00-14.54-73.375l5.673-19.5.339.085a8.114 8.114 0 001.93.234 8.011 8.011 0 007.765-6.07l7.719-31.055a8.006 8.006 0 00-5.836-9.695l-62.109-15.445a8.013 8.013 0 00-9.7 5.836l-7.718 31.055a7.967 7.967 0 005.519 9.545l-5.613 19.307a89.162 89.162 0 00-29.117 22.265 88.088 88.088 0 00-18.383 35.633L307.234 200H288V48a32 32 0 00-64 0v152h-16v-88a8 8 0 00-13.426-5.875l-54.228 50.057-13.4-63.127A56.006 56.006 0 0017.371 116.3L35.089 200H32a24.027 24.027 0 00-24 24v16a24.027 24.027 0 0024 24h16.869l11.9 103.108A55.95 55.95 0 00111.006 467a71.48 71.48 0 0026.033 5h237.922a72.1 72.1 0 0056.4-27.385l16 16a32 32 0 0045.254-45.258L450.554 373.3l12.58-109.3H480a24.027 24.027 0 0024-24v-16a24.027 24.027 0 00-24-24zM440.629 45.281l-3.859 15.524-2.056-.512L390.188 49.2l3.855-15.5zm-84.969 69.383a72.754 72.754 0 0126.723-19.531 8.028 8.028 0 004.582-5.141l6.8-23.391 31.03 7.716-6.635 22.808a7.986 7.986 0 001.481 7.289 72.221 72.221 0 0115.527 54.9l-92.221-22.886a72.264 72.264 0 0112.713-21.764zm-17.377 37.1l92.94 23.06L423.194 200h-99.267zm-88.908 65.615A31.187 31.187 0 00241.132 248h-50.944l29.333-32h31.558c-.556.479-1.179.851-1.704 1.375zM58.188 216h139.624L128 292.164zM240 48a16 16 0 0132 0v152h-32zm-48 152h-75.539L192 130.273zM35.9 87.844a39.76 39.76 0 0136.425-23.2 39.1 39.1 0 0126.164 9.851A39.977 39.977 0 01111.3 96.383l15.373 72.423L92.876 200h-41.43l-18.423-87.023A39.9 39.9 0 0135.9 87.844zM24 240v-16a8.008 8.008 0 018-8h4.479l4.3 4.693c.029.03.052.06.081.089L65.812 248H32a8.008 8.008 0 01-8-8zm24 176a39.94 39.94 0 0134.241-39.417 68.338 68.338 0 00-1.74 10.036 27.527 27.527 0 01-4.923-1.775 8 8 0 00-7.156 14.312 43.946 43.946 0 0039.156 0 8 8 0 10-7.156-14.312 27.154 27.154 0 01-3.852 1.388 52.652 52.652 0 011.872-8.674A39.926 39.926 0 1148 416zm79.943 39.178a55.923 55.923 0 0014.786-27.4 99.575 99.575 0 005.638 11.761L157.775 456h-20.736a55.811 55.811 0 01-9.096-.822zm75.612-78.444a17.02 17.02 0 0014.191-7.593 20.52 20.52 0 0137.4 8.562 84.965 84.965 0 01-10.289 53.9l-11.621 20.32c-2.492 4.359-9.2 5.266-12.738 1.711l-11.289-11.289a8 8 0 00-11.313 0l-11.281 11.281a8.367 8.367 0 01-12.746-1.7L162.258 431.6a85.015 85.015 0 01-10.278-53.985 20.521 20.521 0 0137.391-8.476 17.019 17.019 0 0014.184 7.595zM374.961 456H249.343l9.411-16.461a101.1 101.1 0 0012.223-64.187 36.485 36.485 0 00-56.615-25.052 52.3 52.3 0 0129.318-29.73l2.851-1.14a8 8 0 00-5.945-14.86l-2.848 1.141a68.262 68.262 0 00-41.01 47.662 36.521 36.521 0 00-60.595 22.065 99.145 99.145 0 00-.87 10.655 56.209 56.209 0 00-29.549-23.175A52.379 52.379 0 01129 344.57l2.852-1.14a8 8 0 00-5.946-14.86l-2.847 1.141a68.266 68.266 0 00-34.289 30.328c-.259 0-.51-.039-.77-.039a55.959 55.959 0 00-11.8 1.275L64.977 264h15.5l41.623 45.406a8 8 0 0011.8 0L175.521 264h75.229l169.182 169.185A56.012 56.012 0 01374.961 456zm106.344-6.695a16.381 16.381 0 01-22.629 0L260.688 251.312c-.29-.289-.5-.627-.768-.933-.014-.014-.023-.031-.037-.046a15.96 15.96 0 0123.429-21.645l32.913 32.912.1.1 164.98 164.974a16.033 16.033 0 010 22.631zm-45.2-90.453L341.252 264h105.775zM488 240a8.008 8.008 0 01-8 8H325.251l-30.626-30.625c-.523-.524-1.148-.9-1.7-1.375H480a8.008 8.008 0 018 8z"/><path d="M56.492 115.969a8.086 8.086 0 001.664-.172l31.309-6.633a8 8 0 00-3.317-15.656l-31.308 6.633a8 8 0 001.652 15.828zm4.985 15.476a8 8 0 001.652 15.828 8.092 8.092 0 001.664-.171l31.307-6.633a8 8 0 00-3.317-15.657zm6.636 31.305a8 8 0 001.653 15.828 8.1 8.1 0 001.664-.172l31.308-6.633a8 8 0 00-3.316-15.656zM180.4 388.422a8 8 0 003.578 10.734 43.948 43.948 0 0039.157 0 8 8 0 10-7.157-14.312 27.9 27.9 0 01-24.843 0 8.006 8.006 0 00-10.735 3.578zM320 392h16v16h-16zm-32 0h16v16h-16zm0 32h16v16h-16zm0-96h16v16h-16zm0 32h16v16h-16zm64 32h16v16h-16zm0 32h16v16h-16zm-32 0h16v16h-16zm0-64h16v16h-16z"/></g></svg>