<svg xmlns="http://www.w3.org/2000/svg" viewBox="0 0 504.516 504.516"><path d="M146.811 411.089l-20.874-19.298-43.717 43.323c-14.966 14.966-34.658 18.905-49.625 3.545-10.24-10.24-5.514-29.932 9.058-45.292 5.12-5.514 6.302-13.785 1.575-19.692-5.514-7.089-15.36-7.483-21.662-1.182 0 0-10.634 12.997-14.178 21.268-10.24 23.237-11.422 45.292 6.695 63.803 12.997 12.997 29.932 18.511 47.262 16.935 14.572-1.182 27.569-8.271 38.203-18.117l47.263-45.293zm296.173-319.41c-3.151-3.151-7.877-3.545-11.422-.788l-41.748 32.689c-.394 0-.394.394 0 .788l20.48 20.874c.394.394.394 0 .788 0l32.295-42.142c2.757-3.544 2.364-8.27-.393-11.421z" fill="#4681a0"/><path d="M146.811 411.089l-20.874-19.298 170.535-171.717 20.086 20.086-169.747 170.929z" fill="#dadfe1"/><path d="M260.633 256.701l20.086 20.086 27.963-28.751-19.692-20.086-28.357 28.751z" fill="#c4c8ca"/><path d="M413.445 366.978c28.751 28.751 41.748 63.409 30.72 80.345 2.757-2.363 5.908-5.12 8.665-7.877 80.345-80.345 65.378-225.674-33.477-324.529S175.168 1.095 94.824 81.439c-2.757 2.757-5.12 5.514-7.877 8.665 16.935-11.028 51.594 1.969 80.345 30.72 27.963 27.963 40.566 61.046 31.902 78.769-1.575 3.545-1.575 7.483 1.182 10.24l1.182 1.182c2.757 2.757 6.695 3.151 10.24 1.182 17.723-9.058 50.806 3.938 78.769 31.902 27.963 27.963 40.566 61.046 31.902 78.769-1.575 3.545-1.575 7.483 1.182 10.24l1.182 1.182c2.757 2.757 6.695 3.151 10.24 1.182 17.326-9.454 50.803 3.543 78.372 31.506z" fill="#e2574c"/><path d="M436.288 396.122c11.815 20.086 15.36 39.778 7.877 51.2 2.757-2.363 5.908-5.12 8.665-7.877 78.769-78.769 65.772-220.554-28.357-319.015h-2.363c63.409 88.222 67.348 202.437 14.178 275.692z" fill="#c74c43"/><path d="M407.538 103.889c-60.258-1.969-136.665 32.689-200.862 96.886l-7.089 7.483 1.182 1.575 1.182 1.182c2.757 2.757 6.695 3.151 10.24 1.182 17.723-9.058 50.806 3.938 78.769 31.902s40.566 61.046 31.902 78.769c-1.575 3.545-1.575 7.483 1.182 10.24l1.182 1.182c.394.394.788.788 1.575 1.182l7.483-7.089c64.197-64.197 98.855-140.997 96.492-200.862-3.545-3.938-7.089-7.877-11.028-11.815-4.333-4.334-8.272-7.879-12.21-11.817z" fill="#f2f1ef"/></svg>