<svg viewBox="-12 0 511 512" xmlns="http://www.w3.org/2000/svg"><path d="M206.68 443.684c-13.774 6.535-29.075 9.976-44.403 9.976-27.644 0-53.64-10.765-73.195-30.32-19.55-19.555-30.316-45.547-30.316-73.195 0-27.653 10.765-53.645 30.316-73.196s45.543-30.316 73.191-30.316c16.102 0 32.18 3.8 46.485 10.996 9.855 4.941 18.844 11.445 26.719 19.32a100.72 100.72 0 017.359 8.2c29.988 37.042 30.48 90.558 1.473 128.156.48.62.964 1.234 1.457 1.843a103.146 103.146 0 007.363 8.192c7.875 7.87 16.863 14.375 26.715 19.316.687.348 1.383.688 2.078 1.016 20.789-26.54 32.21-59.664 32.21-93.535 0-34.664-11.956-68.532-33.671-95.371a152.758 152.758 0 00-10.8-12.004 152.894 152.894 0 00-24.337-19.793c-24.68-16.149-53.398-24.684-83.054-24.684-40.563 0-78.696 15.793-107.375 44.473-59.204 59.21-59.204 155.555 0 214.765 28.683 28.684 66.824 44.477 107.382 44.473 29.25 0 57.586-8.3 82.024-24.016" fill="#ffae55"/><path d="M364.027 118.61L326.29 70.616l-37.738 47.992zm0 0" fill="#5396a8"/><path d="M271.898 70.617l-33.98 47.992h50.633l37.738-47.992zm108.782 0h-54.39l37.737 47.992h50.633zm-42.442 128.129l25.79-80.137H288.55l25.793 80.145" fill="#fff"/><path d="M314.344 198.754l-25.793-80.145h-50.633l61.797 82.004m53.168-.023l61.777-81.98h-50.633l-25.789 80.136" fill="#5396a8"/><path d="M433.707 242.758c-28.684-28.68-66.816-44.473-107.383-44.473-29.246 0-57.582 8.305-82.023 24.02a152.453 152.453 0 0125.36 20.457 152.68 152.68 0 0112.26 13.84c13.778-6.532 29.079-9.973 44.407-9.973 27.652 0 53.649 10.766 73.195 30.32 19.551 19.551 30.317 45.543 30.317 73.196 0 27.648-10.766 53.644-30.317 73.195-19.554 19.55-45.546 30.316-73.191 30.316-16.105 0-32.18-3.804-46.484-10.996-9.856-4.945-18.844-11.445-26.72-19.32a101.663 101.663 0 01-7.358-8.192c-29.985-37.046-30.477-90.566-1.477-128.156a81.492 81.492 0 00-1.457-1.844 100.72 100.72 0 00-7.36-8.199c-7.874-7.875-16.863-14.379-26.714-19.32a92.587 92.587 0 00-2.078-1.016c-20.79 26.54-32.215 59.664-32.215 93.54 0 34.66 11.96 68.53 33.676 95.367a151.984 151.984 0 0010.8 12.003 152.691 152.691 0 0024.332 19.793C267.957 493.465 296.676 502 326.32 502h.016c40.562-.004 78.695-15.8 107.371-44.477 59.203-59.21 59.203-155.554 0-214.765zm0 0" fill="#fcd888"/><path d="M134.582 423.781a9.933 9.933 0 01-3.82-.761 10.07 10.07 0 01-1.73-.918 10.69 10.69 0 01-1.52-1.25 9.725 9.725 0 01-1.239-1.524 10.098 10.098 0 01-.921-1.719 10.082 10.082 0 01-.77-3.828c0-.652.07-1.312.2-1.953a10.223 10.223 0 011.491-3.597 9.694 9.694 0 012.758-2.762c.543-.36 1.121-.668 1.73-.918a9.99 9.99 0 011.872-.57 9.835 9.835 0 013.91 0 10.11 10.11 0 013.59 1.488c.55.36 1.058.781 1.52 1.242a9.913 9.913 0 012.172 3.25c.25.598.437 1.23.57 1.867.128.64.187 1.3.187 1.953 0 .649-.059 1.309-.187 1.957-.133.633-.32 1.262-.57 1.871a10.093 10.093 0 01-3.692 4.493 10.11 10.11 0 01-3.59 1.488c-.648.129-1.3.191-1.961.191zm0 0"/><path d="M440.781 235.688h-.004c-19.941-19.938-44.168-34.032-70.609-41.422l52.48-69.637c.016-.02 1.993-2.629 1.993-5.363 0-3.204-1.778-6.375-1.856-6.485L388.84 64.84a9.995 9.995 0 00-8.16-4.223H271.902a10 10 0 00-8.164 4.223l-33.945 47.937c-.078.11-1.809 2.805-1.809 6.989 0 2.441 1.934 4.84 1.95 4.863l52.511 69.68a160.764 160.764 0 00-38.144 16.257c-24.793-14.597-52.992-22.28-82.031-22.28-43.23 0-83.875 16.835-114.446 47.401-63.097 63.114-63.097 165.801 0 228.91 30.574 30.567 71.223 47.403 114.457 47.4 29.012 0 57.235-7.684 82.02-22.274C269.098 504.32 297.289 512 326.32 512h.148c43.183-.04 83.777-16.871 114.312-47.406 63.102-63.11 63.102-165.797 0-228.906zm-86.824-53.141l17.36-53.938h23.288zm21.55-101.93l19.821 27.992h-26.441l-22.012-27.992zm-25.202 47.992l-19.227 59.746c-1.582-.042-3.164-.07-4.754-.07-1.61 0-3.215.028-4.82.074l-19.23-59.75zm-24.016-41.812l17.156 21.812h-34.308zm-49.219-6.18h28.633l-22.012 27.992H257.25zm-19.093 47.992h23.285l17.36 53.934zM162.28 491.996c-37.894.004-73.52-14.75-100.312-41.539-55.305-55.312-55.305-145.312 0-200.625 26.789-26.793 62.414-41.547 100.3-41.547 27.325 0 53.794 7.754 76.626 22.434l.91.59c.015.007.03.02.047.03l.007.005a142.869 142.869 0 0122.73 18.488 143.809 143.809 0 0110.087 11.207l.012.02.105.129c.184.226.367.457.547.683.02.027.043.05.058.074.22.274.438.551.653.825.012.015.023.027.031.043 19.395 24.777 30.05 55.695 30.05 87.324 0 28.789-8.882 57.125-25.152 80.672a93.441 93.441 0 01-18.78-14.54 96.632 96.632 0 01-3.27-3.44c12.39-18.755 19.011-41.157 18.765-63.919-.27-24.652-8.582-48.695-23.465-68.004a.17.17 0 01-.023-.027c-.031-.04-.062-.082-.094-.121l-.058-.078c-.106-.137-.211-.274-.32-.407l-.044-.054c-.109-.145-.218-.281-.328-.422-.011-.016-.023-.027-.035-.043-.105-.137-.215-.27-.32-.402l-.106-.13c-.043-.054-.086-.109-.129-.16a8.784 8.784 0 00-.191-.237 110.803 110.803 0 00-8.039-8.95c-8.625-8.625-18.469-15.746-29.258-21.164l-.035-.02c-.121-.062-.242-.12-.363-.183-.086-.04-.168-.082-.25-.121l-.344-.172c-.113-.055-.223-.11-.336-.164-.105-.051-.215-.102-.32-.156-.121-.06-.246-.118-.367-.176a21.51 21.51 0 01-.297-.14c-.004 0-.004-.005-.004-.005h-.004c-15.11-7.168-31.887-10.945-48.695-10.945-30.317 0-58.82 11.805-80.262 33.246-21.438 21.438-33.246 49.945-33.246 80.266s11.808 58.824 33.246 80.265c21.445 21.446 49.949 33.254 80.27 33.254 14.124 0 28.308-2.687 41.456-7.824a164.05 164.05 0 008.133 8.758c4.41 4.41 9.07 8.562 13.942 12.43-19.606 9.831-41.297 14.972-63.528 14.972zm135.227-230.824a94.355 94.355 0 0128.82-4.543c24.98 0 48.461 9.726 66.121 27.39 17.664 17.665 27.39 41.145 27.39 66.126 0 24.976-9.726 48.46-27.39 66.125-17.66 17.664-41.144 27.386-66.117 27.386a94.18 94.18 0 01-28.832-4.543c17.25-26.25 26.637-57.379 26.637-88.976 0-31.672-9.371-62.723-26.63-88.965zm-53.195 133.863c-15.063-27.726-15.118-61.984-.02-89.781 15.062 27.726 15.117 61.984.02 89.781zm-144.528 4.047a9.981 9.981 0 007.88 3.832 9.932 9.932 0 006.16-2.129c4.35-3.406 5.109-9.691 1.702-14.039-8.25-10.527-12.613-23.187-12.613-36.601 0-32.754 26.649-59.399 59.399-59.399 4.394 0 8.714.469 12.93 1.406-7.055 18.414-10.774 38.114-10.774 58 0 31.672 9.37 62.727 26.629 88.965a94.255 94.255 0 01-28.82 4.543c-24.973 0-48.458-9.726-66.126-27.39-17.66-17.665-27.386-41.149-27.386-66.125 0-24.98 9.726-48.461 27.386-66.125 17.664-17.665 41.149-27.387 66.121-27.387 9.786 0 19.551 1.55 28.832 4.543a160.117 160.117 0 00-7.417 12.476 79.35 79.35 0 00-21.372-2.906c-43.78 0-79.402 35.617-79.402 79.399 0 17.93 5.836 34.851 16.871 48.937zm326.852 51.371c-26.79 26.79-62.41 41.543-100.305 41.547h-.129c-27.203-.023-53.558-7.734-76.312-22.316-.121-.079-.239-.157-.36-.23a142.748 142.748 0 01-23.516-19 141.761 141.761 0 01-10.097-11.224c-.434-.535-.86-1.074-1.285-1.613-.059-.074-.113-.148-.172-.219-19.36-24.765-29.992-55.652-29.992-87.246 0-28.789 8.883-57.125 25.156-80.675a93.67 93.67 0 0122.05 17.984c-12.394 18.754-19.01 41.156-18.765 63.922.266 24.59 8.54 48.578 23.34 67.847a110.193 110.193 0 001.727 2.188 112.16 112.16 0 008.082 8.992c8.632 8.637 18.492 15.762 29.293 21.184.71.355 1.421.703 2.136 1.043.114.058.227.11.34.164 15.063 7.105 31.77 10.855 48.504 10.855h.004c30.316 0 58.816-11.808 80.258-33.246 21.437-21.441 33.246-49.945 33.246-80.27 0-30.32-11.809-58.824-33.246-80.265s-49.942-33.25-80.266-33.25c-14.129 0-28.308 2.688-41.457 7.82a164.198 164.198 0 00-8.14-8.757 164.675 164.675 0 00-13.938-12.43c16.25-8.149 33.934-13.074 52.164-14.524a143.657 143.657 0 0111.367-.45 144.648 144.648 0 0111.332.446c33.621 2.637 64.875 16.997 88.98 41.098 55.305 55.313 55.305 145.313 0 200.625zM326.29 38c-5.524 0-10-4.477-10-10V10c0-5.523 4.476-10 10-10 5.522 0 10 4.477 10 10v18c0 5.523-4.478 10-10 10zm-80.61 33.39a9.961 9.961 0 01-7.07-2.93l-12.731-12.726c-3.902-3.906-3.902-10.238 0-14.144 3.906-3.906 10.238-3.906 14.144 0l12.727 12.726c3.906 3.907 3.906 10.239 0 14.145a9.968 9.968 0 01-7.07 2.93zm161.218 0a9.968 9.968 0 01-7.07-2.93c-3.902-3.905-3.902-10.237 0-14.144l12.73-12.726c3.903-3.906 10.235-3.906 14.141 0s3.906 10.238 0 14.144l-12.726 12.727a9.976 9.976 0 01-7.075 2.93zm0 0"/><path d="M458.29 152h-18c-5.524 0-10-4.477-10-10s4.476-10 10-10h18c5.522 0 10 4.477 10 10s-4.478 10-10 10zm-246 0h-18c-5.524 0-10-4.477-10-10s4.476-10 10-10h18c5.523 0 10 4.477 10 10s-4.477 10-10 10zm0 0"/></svg>