<svg xmlns="http://www.w3.org/2000/svg" width="424.225" height="424.225"><path d="M119.579 401.738H304.15v22.487H119.579zm184.571-10.751H119.579v-39.023c25.954 19.056 57.945 30.347 92.542 30.347 34.375 0 66.176-11.161 92.029-29.996v38.672zM267.341 28.15c0-15.523 12.631-28.15 28.137-28.15 15.538 0 28.159 12.638 28.159 28.15v151.521l-56.296-54.399V28.15zm-38.897 75.409c10.541 0 20.168 5.976 24.978 15.296-1.146.145-2.259.565-3.14 1.447-24.063 24.065-24.063 63.197 0 87.259l5.627 5.629c-2.814 12.809-14.311 22.079-27.465 22.079-15.538 0-28.161-12.635-28.161-28.149v-75.405c0-15.538 12.623-28.156 28.161-28.156zm49.628 131.847c-.231-.031-.441-.127-.673-.127h-22.352c4.001-3.779 7.308-8.305 9.439-13.533l13.657 13.67c-.03-.01-.051-.01-.071-.01zM161.383 103.559c15.524 0 28.144 12.633 28.144 28.144v53.754c0 15.531-12.63 28.153-28.144 28.153-15.526 0-28.146-12.636-28.146-28.153v-53.754c-.005-15.526 12.62-28.144 28.146-28.144z"/><path d="M94.324 48.954c15.536 0 28.158 12.632 28.158 28.145v108.352c0 21.455 17.449 38.899 38.896 38.899 11.223 0 21.347-4.768 28.452-12.399 1.139 9.123 5.482 17.261 11.832 23.307h-87.458a5.367 5.367 0 00-5.375 5.376 5.377 5.377 0 005.375 5.375h142.829l-47.572 26.987c-2.575 1.454-3.483 4.745-2.027 7.313a5.379 5.379 0 004.683 2.719c.897 0 1.811-.221 2.646-.693l65.278-37.05c.205-.117.33-.305.51-.441.314-.231.599-.452.851-.735.231-.262.377-.535.557-.828a5.43 5.43 0 00.462-.914c.114-.346.158-.715.221-1.081.021-.226.125-.431.125-.667 0-.109-.062-.194-.062-.299-.011-.116.042-.231.021-.337l22.993 22.982a5.353 5.353 0 003.8 1.575c1.376 0 2.75-.526 3.802-1.575a5.36 5.36 0 000-7.602l-55.429-55.416c-19.508-19.512-19.807-51.006-1.003-70.948.031.113.031.215.073.328.036.103.026.226.067.328.06.113.158.205.211.315.262.522.561 1.013.981 1.419.01.01.021.026.031.045l99.781 96.421c-.651 43.234-20.194 81.949-50.73 108.279-.84.395-1.507 1.025-2.047 1.769-25.281 21.009-57.755 33.671-93.117 33.671-80.479 0-145.942-65.481-145.942-145.934V77.109c-.018-15.523 12.605-28.155 28.127-28.155z"/></svg>