<svg height="512" viewBox="0 0 64 64" width="512" xmlns="http://www.w3.org/2000/svg"><g data-name="Filled outline"><path d="M49 58H15l12-26h10z" fill="#dd3e46"/><path d="M5 30h4v24H5z" fill="#aad5e8"/><path d="M7 26a2 2 0 012 2v2H5v-2a2 2 0 012-2z" fill="#73c7e5"/><path d="M3 54h8v4H3z" fill="#2075a0"/><path d="M55 30h4v24h-4z" fill="#aad5e8"/><path d="M57 26a2 2 0 012 2v2h-4v-2a2 2 0 012-2z" fill="#73c7e5"/><path d="M53 54h8v4h-8z" fill="#2075a0"/><path d="M21 26h22v6H21z" fill="#84615e"/><path d="M23 20h18v6H23z" fill="#ffe2b0"/><path d="M27 26h10v6H27z" fill="#d3843d"/><path d="M29 20h6v6h-6z" fill="#66342e"/><path d="M13 27h4v14h-4z" fill="#aad5e8"/><path d="M15 23a2 2 0 012 2v2h-4v-2a2 2 0 012-2z" fill="#73c7e5"/><path d="M47 27h4v14h-4z" fill="#aad5e8"/><path d="M49 23a2 2 0 012 2v2h-4v-2a2 2 0 012-2z" fill="#73c7e5"/><path d="M9 40h11v2H9zm35 0h11v2H44z" fill="#2075a0"/><g fill="#fcf05a"><path d="M50 15a5.006 5.006 0 01-5-5 1 1 0 012 0 3 3 0 003 3 1 1 0 010 2z"/><path d="M50 15a5.006 5.006 0 01-5-5 1 1 0 012 0 3 3 0 003 3 1 1 0 010 2z"/><path d="M42 15a1 1 0 010-2 3 3 0 003-3 1 1 0 012 0 5.006 5.006 0 01-5 5zm4 4a1 1 0 01-1-1 5.006 5.006 0 015-5 1 1 0 010 2 3 3 0 00-3 3 1 1 0 01-1 1z"/><path d="M46 19a1 1 0 01-1-1 5.006 5.006 0 015-5 1 1 0 010 2 3 3 0 00-3 3 1 1 0 01-1 1z"/><path d="M46 19a1 1 0 01-1-1 3 3 0 00-3-3 1 1 0 010-2 5.006 5.006 0 015 5 1 1 0 01-1 1zm-22-8a5.006 5.006 0 01-5-5 1 1 0 012 0 3 3 0 003 3 1 1 0 010 2z"/><path d="M24 11a5.006 5.006 0 01-5-5 1 1 0 012 0 3 3 0 003 3 1 1 0 010 2z"/><path d="M16 11a1 1 0 010-2 3 3 0 003-3 1 1 0 012 0 5.006 5.006 0 01-5 5zm4 4a1 1 0 01-1-1 5.006 5.006 0 015-5 1 1 0 010 2 3 3 0 00-3 3 1 1 0 01-1 1z"/><path d="M20 15a1 1 0 01-1-1 5.006 5.006 0 015-5 1 1 0 010 2 3 3 0 00-3 3 1 1 0 01-1 1z"/><path d="M20 15a1 1 0 01-1-1 3 3 0 00-3-3 1 1 0 010-2 5.006 5.006 0 015 5 1 1 0 01-1 1z"/></g><path d="M38.563 33H43a1 1 0 001-1v-6a1 1 0 00-1-1h-1v-5a1 1 0 00-1-1H23a1 1 0 00-1 1v5h-1a1 1 0 00-1 1v6a1 1 0 001 1h4.437L14.092 57.581A1 1 0 0015 59h34a1 1 0 00.908-1.419zM28 27h8v4h-8zm14 4h-4v-4h4zm-2-6h-4v-4h4zm-6-4v4h-4v-4zm-10 0h4v4h-4zm-2 6h4v4h-4zm-5.438 30L27.64 33h8.72l11.077 24z"/><path d="M61 53h-1V28a3 3 0 00-6 0v12h-2V25a3 3 0 00-6 0v15h-2v2h10v11h-1a1 1 0 00-1 1v4a1 1 0 001 1h8a1 1 0 001-1v-4a1 1 0 00-1-1zM48 25a1 1 0 012 0v1h-2zm0 15V28h2v12zm8-12a1 1 0 012 0v1h-2zm0 3h2v22h-2zm4 26h-6v-2h6zM20 42v-2h-2V25a3 3 0 00-6 0v15h-2V28a3 3 0 00-6 0v25H3a1 1 0 00-1 1v4a1 1 0 001 1h8a1 1 0 001-1v-4a1 1 0 00-1-1h-1V42zm-6-17a1 1 0 012 0v1h-2zm0 3h2v12h-2zm-8 0a1 1 0 012 0v1H6zm4 29H4v-2h6zm-4-4V31h2v22zm36-38a3 3 0 013 3 1 1 0 002 0 3 3 0 013-3 1 1 0 000-2 3 3 0 01-3-3 1 1 0 00-2 0 3 3 0 01-3 3 1 1 0 000 2zm4-2.031A4.988 4.988 0 0047.031 14 4.988 4.988 0 0046 15.031 4.988 4.988 0 0044.969 14 4.988 4.988 0 0046 12.969zM16 11a3 3 0 013 3 1 1 0 002 0 3 3 0 013-3 1 1 0 000-2 3 3 0 01-3-3 1 1 0 00-2 0 3 3 0 01-3 3 1 1 0 000 2zm4-2.031A4.988 4.988 0 0021.031 10 4.988 4.988 0 0020 11.031 4.988 4.988 0 0018.969 10 4.988 4.988 0 0020 8.969z"/></g></svg>