<svg height="512pt" viewBox="0 0 512 512" width="512pt" xmlns="http://www.w3.org/2000/svg"><path d="M503.469 247.465v238.933c-.031 9.414-7.656 17.04-17.07 17.067H25.601c-9.414-.028-17.04-7.653-17.067-17.067V240.98a25.728 25.728 0 017.508-18.09l19.113-19.113a25.725 25.725 0 0118.094-7.511h98.3a25.725 25.725 0 0118.095 7.511l19.113 19.114a25.728 25.728 0 0018.09 7.507h279.55c9.415.028 17.04 7.653 17.07 17.067zm0 0" fill="#0377bc"/><path d="M477.867 247.465v238.933c-.027 9.414-7.652 17.04-17.066 17.067H25.6c-9.414-.028-17.039-7.653-17.066-17.067V240.98a25.728 25.728 0 017.508-18.09l19.113-19.113a25.725 25.725 0 0118.094-7.511h72.703a25.716 25.716 0 0118.09 7.511l19.113 19.114a25.737 25.737 0 0018.094 7.507H460.8c9.415.028 17.04 7.653 17.067 17.067zm0 0" fill="#02a9f4"/><path d="M51.2 281.602h102.402c4.71 0 8.53 3.82 8.53 8.53V307.2a8.533 8.533 0 01-8.53 8.535H51.199a8.533 8.533 0 01-8.531-8.535v-17.066a8.532 8.532 0 018.531-8.531zm0 0" fill="#00695c"/><path d="M51.2 281.602H128a8.533 8.533 0 018.535 8.53V307.2a8.534 8.534 0 01-8.535 8.535H51.2a8.533 8.533 0 01-8.532-8.535v-17.066a8.532 8.532 0 018.531-8.531zm0 0" fill="#009688"/><path d="M238.934 213.332H256a8.534 8.534 0 018.535 8.535v17.067c0 4.71-3.82 8.53-8.535 8.53h-17.066a8.533 8.533 0 01-8.536-8.53v-17.067a8.534 8.534 0 018.536-8.535zm0-68.266H256a8.534 8.534 0 018.535 8.536v17.066c0 4.71-3.82 8.531-8.535 8.531h-17.066a8.533 8.533 0 01-8.536-8.531v-17.066a8.534 8.534 0 018.536-8.536zm0-68.266H256a8.533 8.533 0 018.535 8.532v17.066a8.534 8.534 0 01-8.535 8.536h-17.066a8.534 8.534 0 01-8.536-8.536V85.332c0-4.71 3.82-8.531 8.536-8.531zm0-68.265H256a8.533 8.533 0 018.535 8.531v17.067A8.534 8.534 0 01256 42.668h-17.066a8.534 8.534 0 01-8.536-8.535V17.066c0-4.71 3.82-8.53 8.536-8.53zm0 0" fill="#3f51b5"/><path d="M307.2 213.332h17.066a8.534 8.534 0 018.535 8.535v17.067c0 4.71-3.82 8.53-8.535 8.53h-17.067a8.532 8.532 0 01-8.531-8.53v-17.067a8.533 8.533 0 018.531-8.535zm0-136.532h17.066a8.533 8.533 0 018.535 8.532v17.066a8.534 8.534 0 01-8.535 8.536h-17.067a8.533 8.533 0 01-8.531-8.536V85.332c0-4.71 3.82-8.531 8.531-8.531zm0 0" fill="#ffdc00"/><path d="M375.469 145.066h17.066c4.711 0 8.531 3.82 8.531 8.536v17.066c0 4.71-3.82 8.531-8.53 8.531h-17.067a8.533 8.533 0 01-8.535-8.531v-17.066a8.534 8.534 0 018.535-8.536zm0-136.531h17.066a8.532 8.532 0 018.531 8.531v17.067a8.533 8.533 0 01-8.53 8.535h-17.067a8.534 8.534 0 01-8.535-8.535V17.066c0-4.71 3.82-8.53 8.535-8.53zm0 0" fill="#ef314c"/><path d="M443.734 213.332h17.067c4.71 0 8.531 3.82 8.531 8.535v17.067c0 4.71-3.82 8.53-8.531 8.53h-17.067a8.533 8.533 0 01-8.535-8.53v-17.067a8.534 8.534 0 018.535-8.535zm0 0" fill="#9d27b0"/><path d="M238.934 281.602H256a8.533 8.533 0 018.535 8.53V307.2a8.534 8.534 0 01-8.535 8.535h-17.066a8.534 8.534 0 01-8.536-8.535v-17.066c0-4.711 3.82-8.531 8.536-8.531zm0 0" fill="#3f51b5"/><path d="M375.469 281.602h17.066a8.531 8.531 0 018.531 8.53V307.2a8.533 8.533 0 01-8.53 8.535h-17.067a8.534 8.534 0 01-8.535-8.535v-17.066a8.533 8.533 0 018.535-8.531zm0 0" fill="#ef314c"/><path d="M307.2 349.867h17.066a8.533 8.533 0 018.535 8.531v17.067a8.534 8.534 0 01-8.535 8.535h-17.067a8.533 8.533 0 01-8.531-8.535v-17.067c0-4.71 3.82-8.53 8.531-8.53zm0 0" fill="#ffdc00"/><path d="M375.469 418.133h17.066a8.533 8.533 0 018.531 8.535v17.066a8.532 8.532 0 01-8.53 8.532h-17.067a8.533 8.533 0 01-8.535-8.532v-17.066a8.534 8.534 0 018.535-8.535zm0 0" fill="#ef314c"/><path d="M443.734 76.8h17.067a8.533 8.533 0 018.531 8.532v17.066a8.533 8.533 0 01-8.531 8.536h-17.067a8.534 8.534 0 01-8.535-8.536V85.332c0-4.71 3.82-8.531 8.535-8.531zm0 273.067h17.067c4.71 0 8.531 3.82 8.531 8.531v17.067a8.533 8.533 0 01-8.531 8.535h-17.067a8.534 8.534 0 01-8.535-8.535v-17.067c0-4.71 3.82-8.53 8.535-8.53zm0-341.332h17.067c4.71 0 8.531 3.82 8.531 8.531v17.067a8.533 8.533 0 01-8.531 8.535h-17.067a8.534 8.534 0 01-8.535-8.535V17.066c0-4.71 3.82-8.53 8.535-8.53zm0 0" fill="#9d27b0"/><path d="M153.602 324.266H51.199c-9.422-.008-17.054-7.645-17.066-17.067v-17.066c.012-9.422 7.644-17.059 17.066-17.067h102.403c9.421.008 17.054 7.645 17.066 17.067v17.066c-.012 9.422-7.645 17.059-17.066 17.067zM51.199 290.133v17.066h102.414l-.011-17.066zm110.934 119.469H42.668a8.534 8.534 0 110-17.067h119.465a8.533 8.533 0 110 17.067zm68.265 34.132H42.668a8.534 8.534 0 110-17.066h187.73a8.533 8.533 0 110 17.066zm-119.464 34.133H42.668a8.534 8.534 0 110-17.066h68.266c4.71 0 8.535 3.82 8.535 8.531a8.536 8.536 0 01-8.535 8.535zM256 256h-17.066c-9.422-.008-17.059-7.645-17.067-17.066v-17.067c.008-9.422 7.645-17.058 17.067-17.066H256c9.422.008 17.059 7.644 17.066 17.066v17.067c-.007 9.421-7.644 17.058-17.066 17.066zm-17.066-34.133v17.067h17.078L256 221.867zM256 187.734h-17.066c-9.422-.011-17.059-7.644-17.067-17.066v-17.066c.008-9.422 7.645-17.059 17.067-17.067H256c9.422.008 17.059 7.645 17.066 17.067v17.066c-.007 9.422-7.644 17.055-17.066 17.066zm-17.066-34.132v17.066h17.078L256 153.602zM256 119.465h-17.066c-9.422-.008-17.059-7.645-17.067-17.067V85.332c.008-9.422 7.645-17.055 17.067-17.066H256c9.422.011 17.059 7.644 17.066 17.066v17.066c-.007 9.422-7.644 17.059-17.066 17.067zm-17.066-34.133v17.066h17.078L256 85.332zM256 51.2h-17.066c-9.422-.009-17.059-7.645-17.067-17.067V17.066C221.875 7.645 229.512.008 238.934 0H256c9.422.008 17.059 7.645 17.066 17.066v17.067c-.007 9.422-7.644 17.058-17.066 17.066zm-17.066-34.134v17.067h17.078L256 17.066zM324.266 256h-17.067c-9.422-.008-17.054-7.645-17.066-17.066v-17.067c.012-9.422 7.644-17.058 17.066-17.066h17.067c9.421.008 17.058 7.644 17.066 17.066v17.067c-.008 9.421-7.644 17.058-17.066 17.066zm-17.067-34.133v17.067h17.082l-.015-17.067zm17.067-102.402h-17.067c-9.422-.008-17.054-7.645-17.066-17.067V85.332c.012-9.422 7.644-17.055 17.066-17.066h17.067c9.421.011 17.058 7.644 17.066 17.066v17.066c-.008 9.422-7.644 17.059-17.066 17.067zm-17.067-34.133v17.066h17.082l-.015-17.066zm85.336 102.402H375.47c-9.422-.011-17.059-7.644-17.07-17.066v-17.066c.011-9.422 7.648-17.059 17.07-17.067h17.066c9.422.008 17.055 7.645 17.067 17.067v17.066c-.012 9.422-7.645 17.055-17.067 17.066zm-17.066-34.132v17.066h17.078l-.012-17.066zM392.535 51.2H375.47c-9.422-.009-17.059-7.645-17.07-17.067V17.066C358.41 7.645 366.046.008 375.468 0h17.066c9.422.008 17.055 7.645 17.067 17.066v17.067c-.012 9.422-7.645 17.058-17.067 17.066zM375.47 17.065v17.067h17.078l-.012-17.067zM460.8 256h-17.066c-9.421-.008-17.058-7.645-17.066-17.066v-17.067c.008-9.422 7.644-17.058 17.066-17.066h17.067c9.422.008 17.054 7.644 17.066 17.066v17.067c-.012 9.421-7.644 17.058-17.066 17.066zm-17.066-34.133v17.067h17.079l-.012-17.067zm-51.199 102.399H375.47c-9.422-.008-17.059-7.645-17.07-17.067v-17.066c.011-9.422 7.648-17.059 17.07-17.067h17.066c9.422.008 17.055 7.645 17.067 17.067v17.066c-.012 9.422-7.645 17.059-17.067 17.067zm-17.066-34.133v17.066h17.078l-.012-17.066zm-51.203 102.402h-17.067c-9.422-.012-17.054-7.648-17.066-17.07v-17.067c.012-9.421 7.644-17.054 17.066-17.066h17.067c9.421.012 17.058 7.645 17.066 17.066v17.067c-.008 9.422-7.644 17.058-17.066 17.07zm-17.067-34.137v17.067h17.082l-.015-17.067zM392.535 460.8H375.47c-9.422-.01-17.059-7.644-17.07-17.066v-17.066c.011-9.422 7.648-17.059 17.07-17.066h17.066c9.422.007 17.055 7.644 17.067 17.066v17.066c-.012 9.422-7.645 17.055-17.067 17.067zm-17.066-34.132v17.066h17.078l-.012-17.066zM460.8 119.465h-17.066c-9.421-.008-17.058-7.645-17.066-17.067V85.332c.008-9.422 7.644-17.055 17.066-17.066h17.067c9.422.011 17.054 7.644 17.066 17.066v17.066c-.012 9.422-7.644 17.059-17.066 17.067zm-17.066-34.133v17.066h17.079l-.012-17.066zM460.8 392.535h-17.066c-9.421-.012-17.058-7.648-17.066-17.07v-17.067c.008-9.421 7.644-17.054 17.066-17.066h17.067c9.422.012 17.054 7.645 17.066 17.066v17.067c-.012 9.422-7.644 17.058-17.066 17.07zm-17.066-34.137v17.067h17.079l-.012-17.067zM460.8 51.2h-17.066c-9.421-.009-17.058-7.645-17.066-17.067V17.066C426.676 7.645 434.312.008 443.734 0h17.067c9.422.008 17.054 7.645 17.066 17.066v17.067c-.012 9.422-7.644 17.058-17.066 17.066zm-17.066-34.134v17.067h17.079l-.012-17.067zm0 0"/><path d="M486.398 512H25.602C11.469 511.984.016 500.531 0 486.398V241.004a33.886 33.886 0 0110-24.137l19.133-19.133a33.886 33.886 0 0124.137-10h98.257a33.895 33.895 0 0124.141 10l19.133 19.133a16.964 16.964 0 0012.07 5h23.527a8.533 8.533 0 018.536 8.531v8.536H256v-8.536c0-4.71 3.82-8.53 8.535-8.53h34.133c4.71 0 8.531 3.82 8.531 8.53v8.536h17.067v-8.536c0-4.71 3.82-8.53 8.535-8.53h102.398a8.533 8.533 0 018.535 8.53v8.536h17.067v-8.536c0-4.71 3.82-8.53 8.531-8.53h17.066c14.133.015 25.586 11.468 25.602 25.597v238.933c-.016 14.133-11.469 25.586-25.602 25.602zM53.27 204.8a16.97 16.97 0 00-12.07 5l-19.134 19.134a16.964 16.964 0 00-5 12.07v245.394a8.549 8.549 0 008.536 8.536h460.796a8.549 8.549 0 008.536-8.536V247.465a8.548 8.548 0 00-8.536-8.531h-8.53c-.013 9.421-7.645 17.058-17.067 17.066h-17.067c-9.422-.008-17.058-7.645-17.066-17.066h-85.336c-.008 9.421-7.645 17.058-17.066 17.066h-17.067c-9.422-.008-17.054-7.645-17.066-17.066h-17.067c-.007 9.421-7.644 17.058-17.066 17.066h-17.066c-9.422-.008-17.059-7.645-17.067-17.066h-14.996a33.902 33.902 0 01-24.137-10L163.602 209.8a16.973 16.973 0 00-12.075-5zm0 0"/><path d="M256 324.266h-17.066c-9.422-.008-17.059-7.645-17.067-17.067v-17.066c.008-9.422 7.645-17.059 17.067-17.067H256c9.422.008 17.059 7.645 17.066 17.067v17.066c-.007 9.422-7.644 17.059-17.066 17.067zm-17.066-34.133v17.066h17.078L256 290.133zm0 0"/></svg>