<svg height="512pt" viewBox="0 -39 512 512" width="512pt" xmlns="http://www.w3.org/2000/svg"><path d="M397.684 229.977c0 78.476-63.621 142.093-142.094 142.093-78.477 0-142.098-63.617-142.098-142.093 0-78.477 63.621-142.094 142.098-142.094 78.473 0 142.094 63.617 142.094 142.094zm0 0" fill="#fab03c"/><path d="M397.68 229.973c0 78.48-63.614 142.093-142.09 142.093-78.48 0-142.094-63.613-142.094-142.093 0-25.88 6.922-50.137 19.016-71.04 24.558 42.473 70.484 71.04 123.078 71.04 52.59 0 98.515-28.567 123.074-71.04 12.094 20.903 19.016 45.16 19.016 71.04zm0 0" fill="#fd8f3e"/><path d="M255.59 46.059a7.726 7.726 0 01-7.727-7.727V7.727a7.725 7.725 0 1115.45 0v30.605a7.725 7.725 0 01-7.723 7.727zm-95.817 25.675a7.724 7.724 0 01-6.699-3.863l-15.3-26.508c-2.137-3.691-.868-8.418 2.828-10.55a7.72 7.72 0 0110.55 2.828l15.305 26.504a7.727 7.727 0 01-6.684 11.59zM89.61 141.883a7.697 7.697 0 01-3.856-1.04l-26.504-15.3a7.727 7.727 0 017.727-13.383l26.503 15.305a7.723 7.723 0 012.829 10.55 7.72 7.72 0 01-6.7 3.868zm388.23 95.82h-30.606a7.726 7.726 0 01-7.726-7.726 7.726 7.726 0 017.726-7.727h30.606a7.725 7.725 0 017.722 7.727 7.725 7.725 0 01-7.722 7.726zm-413.899 0H33.34a7.726 7.726 0 01-7.727-7.726 7.726 7.726 0 017.727-7.727h30.6c4.27 0 7.727 3.46 7.727 7.727a7.726 7.726 0 01-7.727 7.726zm357.622-95.82a7.718 7.718 0 01-6.696-3.867 7.716 7.716 0 012.828-10.551L444.2 112.16a7.727 7.727 0 017.727 13.383l-26.504 15.3a7.7 7.7 0 01-3.86 1.04zm-70.161-70.149a7.728 7.728 0 01-6.684-11.59l15.302-26.503a7.72 7.72 0 0110.554-2.828 7.724 7.724 0 012.828 10.55l-15.3 26.508a7.724 7.724 0 01-6.7 3.863zm0 0" fill="#f8e98e"/><path d="M512 283.016V413.87c0 11.379-9.227 20.606-20.605 20.606H20.605C9.227 434.473 0 425.25 0 413.87V283.016c0-5.688 4.613-10.301 10.3-10.301h491.4c5.687 0 10.3 4.613 10.3 10.3zm0 0" fill="#38aaff"/><path d="M512 355.656v58.215c0 11.379-9.227 20.606-20.605 20.606H20.605C9.227 434.473 0 425.25 0 413.87v-58.215zm0 0" fill="#2081f6"/><path d="M512 283.016v23.234H0v-23.234c0-5.688 4.613-10.301 10.3-10.301h491.4c5.687 0 10.3 4.613 10.3 10.3zm0 0" fill="#a0ecff"/><path d="M391.14 272.715a141.385 141.385 0 01-15.648 33.531 142.733 142.733 0 01-53.57 49.41c-19.8 10.477-42.383 16.41-66.332 16.41-23.953 0-46.535-5.933-66.332-16.41a142.644 142.644 0 01-53.57-49.41 141.456 141.456 0 01-15.649-33.531zm0 0" fill="#f6cb43"/><path d="M321.922 355.656c-19.8 10.477-42.383 16.41-66.332 16.41-23.953 0-46.535-5.933-66.336-16.41zm0 0" fill="#fab03c"/><path d="M391.14 272.715a141.385 141.385 0 01-15.648 33.531H135.684a141.61 141.61 0 01-15.649-33.531zm0 0" fill="#f8e98e"/><path d="M214.64 332.36H89.329a7.726 7.726 0 110-15.454h125.313a7.726 7.726 0 110 15.453zm0 0" fill="#38aaff"/><path d="M383.68 340.086h-84.41a7.724 7.724 0 01-7.727-7.727 7.726 7.726 0 017.727-7.726h84.41a7.726 7.726 0 110 15.453zm0 0" fill="#f6cb43"/><path d="M428.656 384.762H402.25a7.725 7.725 0 110-15.45h26.41a7.725 7.725 0 11-.004 15.45zm0 0" fill="#38aaff"/></svg>