<svg xmlns="http://www.w3.org/2000/svg" viewBox="0 0 511.998 511.998"><path d="M323.669 263.214l-67.668-16.839-59.247 14.999-63.109 135.565 61.58 100.097c19.452 4.89 39.808 7.498 60.777 7.498 64.59 0 123.419-24.644 167.614-65.035v-72.565l-99.947-103.72z" fill="#ff98c5"/><path d="M310.527 13.483L168.648 76.895l54.441 76.812 53.04 46.353 90.545 46.057 126-66.135C465.99 96.837 396.718 32.778 310.527 13.483z" fill="#7cb777"/><path d="M276.13 200.061s106.414-35.158 216.545-20.078c7.69 23.961 11.859 49.501 11.859 76.017 0 72.672-31.195 138.052-80.919 183.497C332.362 364.687 256 246.374 256 246.374l20.13-46.313z" fill="#fadc60"/><path d="M176.649 114.664l-38.005-40.77-61.027 9.073C34.205 127.715 7.467 188.731 7.467 256c0 27.163 4.373 53.3 12.427 77.766l88.43-53.024 64.377-72.201-12.186-44.309 16.134-49.568z" fill="#85e7ff"/><path d="M296.005 474.529c-20.969 0-41.326-2.608-60.777-7.498-29.556-7.429-57.007-20.154-81.29-37.102l41.283 67.106c19.452 4.89 39.808 7.498 60.777 7.498 64.59 0 123.419-24.644 167.613-65.035v-.213c-37.3 22.369-80.944 35.244-127.606 35.244z" fill="#eb5e8a"/><path d="M172.7 208.543l24.053 52.83s-25.89 96.171-1.529 235.661c-82.682-20.783-148.901-82.985-175.329-163.268C87.184 246.863 172.7 208.543 172.7 208.543z" fill="#b6a4ff"/><path d="M256 7.467c18.733 0 36.979 2.087 54.527 6.016-61.35 66.827-87.439 140.225-87.439 140.225l-62.574 10.526s-33.418-41.438-82.898-81.266C122.786 36.411 186.009 7.467 256 7.467z" fill="#fd6f71"/><circle cx="212.768" cy="200.057" r="63.358" fill="#efedee"/><path d="M59.9 303.763c-8.054-24.466-12.427-50.605-12.427-77.766 0-54.363 17.468-104.638 47.082-145.546l-16.937 2.518C34.205 127.715 7.467 188.731 7.467 256c0 27.163 4.373 53.3 12.427 77.766l41.716-25.013a232.509 232.509 0 01-1.71-4.99z" fill="#57d0e6"/><path d="M87.341 90.984a249.727 249.727 0 0130.282-38.02 250.337 250.337 0 0110.174-9.886l-.005.003a250.036 250.036 0 00-19.811 13.292c-.181.134-.36.27-.541.405a245.942 245.942 0 00-5.656 4.351c-.2.159-.402.314-.602.474a249.681 249.681 0 00-11.493 9.747c-.46.415-.916.835-1.373 1.253a245.932 245.932 0 00-4.086 3.824c-.49.469-.984.935-1.47 1.409a246.627 246.627 0 00-5.145 5.135 530.724 530.724 0 019.726 8.013z" fill="#e34b4c"/><path d="M92.671 443.31c29.348 25.619 64.765 44.226 102.553 53.725a707.492 707.492 0 01-6.576-46.849C128.101 421.139 81.144 368.295 59.9 303.763a246.588 246.588 0 01-3.422-11.343c-12.382 12.323-24.763 26.081-36.583 41.346a246.71 246.71 0 0011.731 29.213c14.587 30.544 35.544 58.069 61.045 80.331z" fill="#937fe6"/><path d="M12.848 336.144a253.502 253.502 0 0016.871 39.686 7.5 7.5 0 0010.141 3.112 7.5 7.5 0 003.112-10.141 240.608 240.608 0 01-14.635-33.541 418.822 418.822 0 012.83-3.549 426.99 426.99 0 0145.026-47.621c16.999-15.466 35.234-29.392 54.177-42.383.945-.632 18.43-11.202 18.256-11.571.057.121.122.238.18.359a70.036 70.036 0 004.896 8.637 71.344 71.344 0 0027.42 24.325 71.42 71.42 0 006.769 2.987c-3.767 17.169-6.103 34.626-7.788 52.112-1.851 19.301-2.719 38.562-2.757 57.953-.071 36.547 2.804 73.12 8.435 109.228.051.326.097.647.149.974-51.362-15.589-96.278-48.109-127.382-92.481a7.5 7.5 0 00-10.448-1.836 7.5 7.5 0 00-1.836 10.448c35.406 50.506 87.669 86.556 147.164 101.511 82.719 20.793 172.328-1.74 235.279-59.275 25.995-23.758 46.48-52.019 60.884-83.995 25.806-57.289 29.454-123.536 10.257-183.349C472.226 91.662 400.322 25.937 312.199 6.209 259.711-5.542 203.941-.429 154.559 20.92 61.653 61.083 0 154.875 0 256.046c0 27.158 4.379 54.301 12.848 80.098zm155.448-169.59c7.651-10.025 18.628-17.549 30.985-20.639.05-.012.1-.022.15-.035 32.354-7.928 64.93 15.156 68.848 48.036 3.593 30.155-20.016 58.864-50.085 61.785-28.893 2.807-56.632-18.949-60.691-47.747-2.057-14.59 1.847-29.678 10.793-41.4zm87.738 330.524a242.21 242.21 0 01-54.21-6.133c-.82-4.902-1.591-9.81-2.306-14.728-7.455-51.23-9.365-103.434-4.512-155.005 1.594-16.958 3.703-34.145 7.418-50.86l.031-.142c.005.221 6.387.639 7.121.673 11.665.533 23.401-1.848 33.923-6.916a71.888 71.888 0 0010.894-6.481c9.484 14.03 19.373 27.791 29.534 41.339 23.676 31.567 48.789 62.116 75.893 90.81 15.983 16.92 32.661 33.206 50.329 48.368.327.281 1.648 1.414 1.983 1.698-43.559 37.065-98.65 57.377-156.098 57.377zM481.668 171.14c-.667-.07-30.21-2.354-44.332-2.354-2.52-.011-5.049-.008-7.588.021-4.086.046-7.462 3.508-7.416 7.586.046 4.09 3.489 7.48 7.585 7.415 2.593-.029 5.175-.035 7.746-.021 16.476.084 32.957 1.047 49.311 3.078 6.699 22.386 10.092 45.634 10.092 69.181 0 34.455-7.116 67.722-21.151 98.878-12.669 28.123-30.335 53.195-52.564 74.613-.816-.688-1.63-1.378-2.444-2.073-18.406-15.711-35.545-32.762-52.224-50.278l-.071-.075c-22.842-24.366-44.094-50.137-64.547-76.527-11.731-15.171-23.247-30.612-33.886-46.571-.369-.538-4.808-6.417-4.554-6.701 3.25-3.643 6.063-7.624 8.536-11.83 5.217-9.063 8.437-19.335 9.276-29.763l.185-.055a406.637 406.637 0 016.493-1.849c15.87-4.394 32.167-8.45 48.456-10.956 10.366-1.803 20.742-3.486 31.182-4.812a528.947 528.947 0 0130.599-3.024c4.06-.284 7.243-3.943 6.958-8.007-.285-4.068-3.941-7.245-8.007-6.958-11.402.799-22.85 1.822-34.17 3.439a607.066 607.066 0 00-25.32 3.855c-18.942 3.293-38.094 7.561-56.743 12.827l-.1.029a71.073 71.073 0 00-9.705-27.014c-7.623-12.478-19.037-22.518-32.917-28.376-.311-.131-.619-.269-.932-.396l.092-.199c9.998-21.544 21.658-42.304 34.804-62.083 10.102-15.199 21.096-29.817 32.999-43.653a410.062 410.062 0 015.849-6.652c77.183 18.77 140.579 75.145 168.508 149.305zM160.511 34.69c30.201-13.056 62.34-19.676 95.523-19.676a242.91 242.91 0 0140.19 3.349 486.296 486.296 0 00-6.928 8.246c-10.994 13.341-21.136 27.38-30.529 41.89-11.782 18.181-21.827 37.142-31.503 56.493a420.882 420.882 0 00-2.449 5.279c-.171-.03-.344-.049-.515-.077-18.929-3.078-38.674 1.749-54.02 13.273a70.935 70.935 0 00-9.892 8.973c-9.445-10.939-19.361-21.468-29.588-31.677-13.358-13.336-27.311-26.123-41.832-38.186l-.14-.117c20.928-20.187 45.007-36.238 71.683-47.77zM78.315 93.239l.381.315c20.332 16.839 39.495 35.116 57.479 54.439 5.137 5.519 10.205 11.109 15.076 16.865l.049.058a70.252 70.252 0 00-7.892 20.847l-.026.121c-1.959 9.566-1.893 19.62.165 29.167.042.194.071.391.114.584l-.471.28c-21.39 12.619-41.719 27.094-60.827 42.952-21.364 17.73-41.202 37.329-58.973 58.666-.111.133-.223.262-.352.417-5.337-20.129-8.036-40.889-8.036-61.904 0-60.697 22.431-118.24 63.313-162.807z"/></svg>