<svg xmlns="http://www.w3.org/2000/svg" viewBox="0 0 297 297"><path d="M16.173 92.554L40.797 67.93 65.42 92.554c1.85 1.849 4.274 2.774 6.699 2.774s4.849-.925 6.699-2.774c3.7-3.7 3.7-9.699 0-13.399L54.196 54.532l24.623-24.623A9.475 9.475 0 0065.42 16.51L40.797 41.133 16.173 16.509A9.475 9.475 0 002.774 29.908l24.623 24.623L2.775 79.155a9.475 9.475 0 0013.398 13.399zM204.11 204.446a9.476 9.476 0 00-13.399 0l-24.623 24.623-24.624-24.623a9.476 9.476 0 00-13.399 0c-3.7 3.701-3.7 9.699 0 13.399l24.624 24.623-24.624 24.624a9.475 9.475 0 0013.398 13.399l24.624-24.624 24.623 24.623a9.446 9.446 0 006.699 2.774 9.446 9.446 0 006.699-2.774c3.7-3.701 3.7-9.699 0-13.399l-24.623-24.623 24.623-24.623c3.702-3.7 3.702-9.7.002-13.399zm.738-132.849l-38.207-33.213c-3.949-3.434-9.933-3.013-13.365.935-3.433 3.949-3.014 9.932.935 13.365l20.262 17.614c-59.804 7.822-95.214 39.074-114.899 65.49-18.186 24.404-26.156 48.415-29.026 59a43.818 43.818 0 015.773-.394c4.696 0 9.217.755 13.459 2.136 3.162-10.426 10.559-30.26 25.443-50.029 24.639-32.726 58.867-51.999 101.926-57.48l-18.88 21.719c-3.433 3.949-3.014 9.932.935 13.365a9.435 9.435 0 006.211 2.324 9.451 9.451 0 007.154-3.259l33.213-38.208a9.472 9.472 0 00-.934-13.365zM36.322 209.998c-15.436 0-27.995 12.558-27.995 27.995 0 15.437 12.558 27.996 27.995 27.996 15.437 0 27.996-12.559 27.996-27.996s-12.559-27.995-27.996-27.995zM269.005 48.91c-15.437 0-27.996 12.558-27.996 27.995 0 15.437 12.558 27.996 27.996 27.996 15.436 0 27.995-12.558 27.995-27.996 0-15.436-12.558-27.995-27.995-27.995z"/></svg>