<svg height="512" viewBox="0 0 64 64" width="512" xmlns="http://www.w3.org/2000/svg"><path d="M50 41.5v.01a6 6 0 01-6-6.01v-.01c0-6.521-5.2-11.83-11.69-11.99h-.62C25.2 23.66 20 28.97 20 35.49v.01a6 6 0 01-6 6.01v-.01c-3.32 0-6 2.68-6 6v4h48v-4c0-3.32-2.68-6-6-6z" fill="#da4453"/><path d="M63 23.5v4c0 1.1-.9 2-2 2H49c-1.1 0-2-.9-2-2v-4c0-1.1.9-2 2-2h12c1.1 0 2 .9 2 2zm-46 0v4c0 1.1-.9 2-2 2H3c-1.1 0-2-.9-2-2v-4c0-1.1.9-2 2-2h12c1.1 0 2 .9 2 2z" fill="#656d78"/><path d="M61 20.5v1H49v-1c0-1.66-1.34-3-3-3h-2.25c.16-.64.25-1.31.25-2h-3c0 .71-.15 1.39-.42 2H23.42a4.94 4.94 0 01-.42-2h-3c0 .69.09 1.36.25 2H18c-1.66 0-3 1.34-3 3v1H3v-1c0-8.29 6.71-15 15-15h28c8.29 0 15 6.71 15 15z" fill="#545c66"/><path d="M43.75 17.5c-.89 3.45-4.02 6-7.75 6h-3.69c-.1-.01-.21-.01-.31-.01s-.21 0-.31.01H28c-3.73 0-6.86-2.55-7.75-6-.16-.64-.25-1.31-.25-2h3a5.005 5.005 0 005 5h8a5.004 5.004 0 005-5h3c0 .69-.09 1.36-.25 2z" fill="#656d78"/><path d="M36 28.57c3.82 2.21 5.14 7.1 2.93 10.93-2.21 3.82-7.109 5.13-10.93 2.93-3.82-2.21-5.14-7.109-2.93-10.93s7.1-5.14 10.93-2.93z" fill="#e6e9ed"/><path d="M58 53.5v3c0 1.1-.9 2-2 2H8c-1.1 0-2-.9-2-2v-3c0-1.1.9-2 2-2h48c1.1 0 2 .9 2 2z" fill="#ed5565"/><path d="M15 30.498H3c-1.654 0-3-1.346-3-3v-4.001c0-1.654 1.346-3 3-3h12c1.654 0 3 1.346 3 3v4.001c0 1.654-1.346 3-3 3zM3 22.497a1 1 0 00-1 1v4.001a1 1 0 001 1h12a1 1 0 001-1v-4.001a1 1 0 00-1-1zm58 8.001H49c-1.654 0-3-1.346-3-3v-4.001c0-1.654 1.346-3 3-3h12c1.654 0 3 1.346 3 3v4.001c0 1.654-1.346 3-3 3zm-12-8.001a1 1 0 00-1 1v4.001a1 1 0 001 1h12a1 1 0 001-1v-4.001a1 1 0 00-1-1z"/><path d="M3 21.499a1 1 0 01-1-1c0-8.822 7.178-16 16-16a1 1 0 110 2c-7.72 0-14 6.28-14 14a1 1 0 01-1 1zm12 0a1 1 0 01-1-1c0-2.206 1.794-4 4-4a1 1 0 110 2c-1.103 0-2 .897-2 2a1 1 0 01-1 1zm45.999 0a1 1 0 01-1-1c0-7.72-6.28-14-14-14a1 1 0 110-2c8.822 0 16 7.178 16 16a1 1 0 01-1 1zm-12 0a1 1 0 01-1-1c0-1.103-.897-2-2-2a1 1 0 110-2c2.206 0 4 1.794 4 4a1 1 0 01-1 1z"/><path d="M45.999 6.499H18a1 1 0 110-2h27.999a1 1 0 110 2zm-25.744 12H18a1 1 0 110-2h2.255a1 1 0 110 2zM3 22.497a1 1 0 01-1-1v-.998a1 1 0 112 0v.998a1 1 0 01-1 1zm12 0a1 1 0 01-1-1v-.998a1 1 0 112 0v.998a1 1 0 01-1 1zm34 0a1 1 0 01-1-1v-.998a1 1 0 112 0v.998a1 1 0 01-1 1zm12 0a1 1 0 01-1-1v-.998a1 1 0 112 0v.998a1 1 0 01-1 1z"/><path d="M28.002 24.5c-4.963 0-9-4.037-9-9a1 1 0 112 0c0 3.859 3.141 7 7 7a1 1 0 110 2z"/><path d="M28.002 21.5c-3.309 0-6-2.691-6-6a1 1 0 112 0c0 2.206 1.794 4 4 4a1 1 0 110 2zm7.996 3a1 1 0 110-2c3.859 0 7-3.141 7-7a1 1 0 112 0c0 4.963-4.037 9-9 9z"/><path d="M35.998 21.499a1 1 0 110-2 4.004 4.004 0 003.999-3.999 1 1 0 112 0 6.006 6.006 0 01-5.999 5.999zM23.002 16.5h-3a1 1 0 110-2h3a1 1 0 110 2z"/><path d="M43.998 16.5h-3.001a1 1 0 110-2h3.001a1 1 0 110 2zm-8 4.999h-7.996a1 1 0 110-2h7.996a1 1 0 110 2zm0 3.001h-7.996a1 1 0 110-2h7.996a1 1 0 110 2z"/><path d="M40.581 18.499H23.418a1 1 0 110-2h17.163a1 1 0 110 2zm5.418 0h-2.254a1 1 0 110-2h2.254a1 1 0 110 2zM56 59.501H8c-1.654 0-3-1.346-3-3v-3c0-1.654 1.346-3 3-3h48c1.654 0 3 1.346 3 3v3c0 1.654-1.346 3-3 3zm-48-7a1 1 0 00-1 1v3a1 1 0 001 1h48a1 1 0 001-1v-3a1 1 0 00-1-1zm-.001-4.004a1 1 0 01-1-1c0-3.859 3.141-7 7-7a1 1 0 110 2c-2.757 0-5 2.243-5 5a1 1 0 01-1 1z"/><path d="M14 42.506a1 1 0 110-2 5.006 5.006 0 005.001-5.001 1 1 0 112 0A7.01 7.01 0 0114 42.506zm-6.001 9.995a1 1 0 01-1-1v-4.004a1 1 0 112 0v4.004a1 1 0 01-1 1zm48.003-4.004a1 1 0 01-1-1c0-2.757-2.243-5-5-5a1 1 0 110-2c3.859 0 7 3.141 7 7a1 1 0 01-1 1z"/><path d="M50.001 42.506A7.01 7.01 0 0143 35.505a1 1 0 112 0 5.006 5.006 0 005.001 5.001 1 1 0 110 2zm6.001 9.995a1 1 0 01-1-1v-4.004a1 1 0 112 0v4.004a1 1 0 01-1 1z"/><path d="M44 36.493a1 1 0 01-1-1c0-6.065-4.935-11-11-11-6.064 0-10.999 4.935-10.999 11a1 1 0 11-2 0c0-7.168 5.831-13 12.999-13s13 5.832 13 13a1 1 0 01-1 1z"/><path d="M32.03 31.499c-.553 0-1.005-.447-1.005-1s.442-1 .994-1h.011a1 1 0 110 2zm-2.499.67c-.553 0-1.005-.447-1.005-1s.442-1 .994-1h.011a1 1 0 110 2zm-1.829 1.829c-.553 0-1.005-.447-1.005-1s.442-1 .994-1h.011a1 1 0 110 2zm-.67 2.499c-.553 0-1.005-.447-1.005-1s.442-1 .994-1h.011a1 1 0 110 2zm.67 2.499c-.553 0-1.005-.447-1.005-1s.442-1 .994-1h.011a1 1 0 110 2zm1.83 1.829c-.553 0-1.005-.447-1.005-1s.442-1 .994-1h.011a1 1 0 110 2zm2.499.669c-.553 0-1.005-.447-1.005-1s.442-1 .994-1h.011a1 1 0 110 2zm2.499-.67c-.553 0-1.005-.447-1.005-1s.442-1 .994-1h.011a1 1 0 110 2z"/><path d="M31.99 44.498a9 9 0 01-4.491-1.206c-4.297-2.481-5.774-7.996-3.295-12.293a9.041 9.041 0 017.808-4.501c1.57 0 3.122.417 4.488 1.205 2.081 1.202 3.57 3.144 4.192 5.466s.303 4.748-.899 6.828a9.033 9.033 0 01-7.803 4.501zm.022-16a7.034 7.034 0 00-6.075 3.501c-1.929 3.342-.779 7.631 2.563 9.561a6.992 6.992 0 003.491.938 7.026 7.026 0 006.07-3.501c.936-1.618 1.184-3.504.7-5.311s-1.643-3.316-3.261-4.251a6.99 6.99 0 00-3.488-.937z"/><path d="M34.528 32.167c-.553 0-1.005-.447-1.005-1s.442-1 .994-1h.011a1 1 0 110 2z"/></svg>