<svg height="512" viewBox="0 0 64 64" width="512" xmlns="http://www.w3.org/2000/svg"><path d="M54.498 61h-6c0-1.65 1.34-3 3-3s3 1.35 3 3zm-13-54h20v4h-20z" fill="#e6e9ed"/><path d="M41.498 3h20v4h-20z" fill="#ccd1d9"/><path d="M61.498 11v18c0 5.52-4.48 10-10 10s-10-4.48-10-10V11z" fill="#ffce54"/><path d="M1.498 29.01h34c0 9.391-7.6 17-17 17-9.38 0-17-7.61-17-17z" fill="#ed5565"/><path d="M35.508 16v13l-.01.01h-34V16z" fill="#ccd1d9"/><path d="M18.502 47.004c-9.925 0-18-8.075-18-18a1 1 0 112 0c0 8.822 7.178 16 16 16s16-7.178 16-16a1 1 0 112 0c0 9.925-8.075 18-18 18zm32.994-7.008c-6.065 0-11-4.935-11-11a1 1 0 112 0c0 4.963 4.037 9 9 9s9-4.037 9-9a1 1 0 112 0c0 6.066-4.934 11-11 11z"/><path d="M1.5 30a1 1 0 01-1-1V16a1 1 0 112 0v13a1 1 0 01-1 1z"/><path d="M35.506 17H1.5a1 1 0 110-2h34.006a1 1 0 110 2z"/><path d="M35.506 30a1 1 0 01-1-1V16a1 1 0 112 0v13a1 1 0 01-1 1zM18.502 62.002a1 1 0 01-1-1V46.004a1 1 0 112 0v14.998a1 1 0 01-1 1z"/><path d="M30.506 62.002H6.5a1 1 0 110-2h24.006a1 1 0 110 2zM51.498 59a1 1 0 01-1-1V38.996a1 1 0 112 0V58a1 1 0 01-1 1zM62.5 62.002H40.496a1 1 0 110-2H62.5a1 1 0 110 2zM41.496 29.498a1 1 0 01-1-1v-25.5a1 1 0 112 0v25.5a1 1 0 01-1 1z"/><path d="M61.498 3.998H41.496a1 1 0 110-2h20.002a1 1 0 110 2z"/><path d="M61.498 29.996a1 1 0 01-1-1V2.998a1 1 0 112 0v25.998a1 1 0 01-1 1zm-25.996.008h-34a1 1 0 110-2h34a1 1 0 110 2z"/><path d="M61.498 11.998H41.496a1 1 0 110-2h20.002a1 1 0 110 2zm0-4H41.496a1 1 0 110-2h20.002a1 1 0 110 2zm-32.964 30c-.553 0-1.005-.447-1.005-1s.442-1 .994-1h.011a1 1 0 110 2zm-3.002 3.004c-.553 0-1.005-.447-1.005-1s.442-1 .994-1h.011a1 1 0 110 2zm32.03-9.014c-.553 0-1.005-.447-1.005-1s.442-1 .994-1h.011a1 1 0 110 2zm-3.004 3.004c-.553 0-1.005-.447-1.005-1s.442-1 .994-1h.011a1 1 0 110 2zM54.498 62a1 1 0 01-1-1c0-1.103-.897-2-2-2s-2 .897-2 2a1 1 0 11-2 0c0-2.206 1.794-4 4-4s4 1.794 4 4a1 1 0 01-1 1z"/></svg>