<svg xmlns="http://www.w3.org/2000/svg" viewBox="0 0 434.56 434.56" width="512" height="512"><circle cx="217.279" cy="217.281" r="209.78" fill="#0071ce"/><circle cx="217.279" cy="217.281" r="209.78" fill="#e8e8e8"/><path d="M217.279 7.501c-31.97 0-62.262 7.164-89.379 19.955 94.548-6.881 175.748 30.945 218.084 88.311l.002.006c6.819-15.469 12.042-32.537 15.255-51.063-37.568-35.463-88.223-57.209-143.962-57.209zm84.619 170.756C254.19 113.536 157.027 73.655 47.021 94.723c-15.815 21.932-27.496 47.038-33.905 74.185 87.882-32.288 169.337-2.957 204.164 48.373 29.157-2.119 59.264-15.648 84.621-39.02l-.003-.004z" fill="#00b3e3"/><path d="M398.955 322.17c15.985-27.688 24.927-57.504 27.408-87.383-41.315 85.322-114.673 136.73-185.522 144.712l-.007-.001c9.987 13.639 22.158 26.697 36.596 38.742 49.494-14.803 93.656-47.8 121.525-96.07zm-190.189-12.096c79.904-8.957 163.023-73.162 199.782-178.964-11.087-24.662-26.988-47.332-47.294-66.455-15.978 92.253-82.107 148.13-143.975 152.625-12.743 26.311-16.08 59.147-8.518 92.794h.005zM35.606 322.17c15.984 27.688 37.336 50.339 61.972 67.428-53.233-78.441-61.075-167.675-32.563-233.022l.004-.006c-16.805 1.83-34.199 5.842-51.85 12.322C1.243 219.157 7.737 273.899 35.606 322.17z" fill="#0071ce"/><path d="M65.014 156.578c-28.512 65.347-20.669 154.579 32.563 233.019 29.384 20.382 63.446 32.832 98.694 36.409-73.25-84.734-87.291-188.819-55.098-262.497l.002-.003c-22.885-7.143-48.744-9.92-76.158-6.938l-.003.01z" fill="#ffc843"/><path d="M141.174 163.51c-32.193 73.678-18.15 177.763 55.098 262.499 26.9 2.729 54.484.293 81.198-7.73-71.903-59.965-87.231-145.172-60.19-200.998-16.413-24.191-43.184-43.5-76.104-53.773l-.002.002z" fill="#0071ce"/><path d="M370.919 63.64C329.88 22.601 275.316 0 217.279 0c-58.037 0-112.6 22.602-153.639 63.641C22.601 104.68 0 159.243 0 217.279c0 58.037 22.601 112.602 63.64 153.64 41.038 41.039 95.601 63.641 153.639 63.642 58.038 0 112.601-22.602 153.64-63.641 41.039-41.039 63.64-95.603 63.64-153.64 0-58.038-22.601-112.601-63.64-153.64zm29.527 67.869c-17.11 47.763-44.895 89.109-80.498 119.712-31.556 27.124-68.671 44.888-105.229 50.493-5.014-27.642-2.405-54.59 7.572-77.37 31.91-3.485 63.519-19.394 89.468-45.145 26.309-26.107 44.807-60.164 53.995-99.141a203.07 203.07 0 0134.692 51.451zM217.279 15c52.23 0 99.899 19.899 135.827 52.513-2.237 11.639-5.335 22.838-9.249 33.512-39.585-46.615-102.016-75.76-171.441-81.002A202.153 202.153 0 01217.279 15zm-87.314 19.835c84.666-5.72 163.532 25.511 207.349 81.914-8.849 18.946-20.483 35.896-34.618 50.279-25.039-30.977-60.257-55.016-102.393-69.788C158.396 82.549 112 78.134 65.043 84.237c17.984-20.553 40.048-37.449 64.922-49.402zm-78.473 66.691c49.893-9.048 99.565-5.654 143.848 9.869 39.268 13.766 73.21 37.027 96.343 65.885-21.432 18.163-46.074 29.377-70.791 32.127-18.974-25.892-48.555-45.313-83.83-54.908-35.808-9.74-74.604-8.719-112.999 2.852 6.257-20.13 15.588-38.917 27.429-55.825zM15.001 217.278c0-14.648 1.58-28.934 4.552-42.707 11.234-3.901 22.52-6.83 33.759-8.783C32.776 223.259 38.68 291.739 68.696 354.38c-33.31-36.072-53.695-84.248-53.695-137.102zm87.845 166.704c-47.215-70.434-59.565-154.284-32.645-220.39 20.832-1.81 41.328-.209 60.852 4.84-14.306 37.174-17.516 79.693-9.24 123.568 8.24 43.69 27.65 86.125 56.469 123.771-27.547-5.402-53.104-16.411-75.436-31.789zm114.433 35.578c-5.822 0-11.583-.262-17.282-.746-32.819-38.705-54.741-83.449-63.444-129.592-7.712-40.89-4.539-81.915 8.884-116.378 26.446 9.48 48.479 25.213 63.219 45.243-12.936 29.378-14.964 64.706-5.637 100.053 9.467 35.881 29.75 68.967 58.968 96.432a202.235 202.235 0 01-44.708 4.988zm61.876-9.692c-8.994-7.779-17.172-16.087-24.482-24.842 60.16-10.975 116.618-50.465 155.867-107.966-19.479 62.843-68.835 112.664-131.385 132.808zm-34.829-38.371c-11.983-17.137-20.845-35.688-26.235-55.12 39.346-6.196 77.774-24.676 111.635-53.781 33.716-28.98 60.76-67.007 78.954-110.788 7.047 20.545 10.88 42.568 10.88 65.472 0 5.23-.2 10.416-.592 15.548-37.372 76.215-103.869 128.921-174.642 138.669z"/></svg>