<svg height="512pt" viewBox="0 -18 512 512" width="512pt" xmlns="http://www.w3.org/2000/svg"><path d="M273.656 194.207c0-9.816-14.3-27.64-8.828-34.992V44.137C264.828 19.863 244.965 0 220.691 0c-24.277 0-44.14 19.863-44.14 44.137v79.765c5.472 7.356 0 33.688 0 43.496V256c8.058-10.832 38.508-18 52.965-18 14.468 0 27.254 7.152 35.312 18zm0 0" fill="#1a9172"/><path d="M220.691 229.516c-4.875 0-8.828-3.953-8.828-8.825V79.45a8.829 8.829 0 018.828-8.828c4.871 0 8.825 3.953 8.825 8.828v141.242c0 4.871-3.953 8.825-8.825 8.825zm0 0" fill="#be7c6d"/><path d="M220.691 229.516a8.799 8.799 0 01-6.242-2.586 8.813 8.813 0 010-12.48l17.656-17.657a8.813 8.813 0 0112.48 0 8.818 8.818 0 010 12.484L226.93 226.93a8.79 8.79 0 01-6.239 2.586zm0-79.446a8.815 8.815 0 01-6.242-2.586 8.818 8.818 0 010-12.484l17.656-17.656a8.82 8.82 0 0112.48 0 8.818 8.818 0 010 12.484l-17.655 17.656a8.806 8.806 0 01-6.239 2.586zm0 35.309a8.799 8.799 0 01-6.242-2.586l-17.656-17.656a8.813 8.813 0 010-12.48 8.818 8.818 0 0112.484 0l17.653 17.655a8.813 8.813 0 010 12.481 8.79 8.79 0 01-6.239 2.586zm0 0" fill="#be7c6d"/><path d="M88.277 35.309c-24.277 0-44.14 19.863-44.14 44.14v114.758c0 .3.09.582.09.89 2.832-.574 5.746 87.387 8.738 87.387 23.976 0 43.566-41.52 44.05-17.656.028-.008.063-27.375.087-27.383l35.312 53.864V79.449c0-24.277-19.863-44.14-44.137-44.14zm0 0" fill="#3d6f44"/><path d="M423.723 35.309c-24.274 0-44.137 19.863-44.137 44.14v27.383l8.828 193.297c.027.008.063 0 .09.008.484-23.86 46.555-61.793 70.531-61.793 2.992 0 5.906-43.82 8.738-43.246 0-.309.09-.59.09-.891V79.449c0-24.277-19.863-44.14-44.14-44.14zm0 0" fill="#61b872"/><path d="M326.621 353.102v-202.77c-7.406-5.621-16.527-9.09-26.484-9.09-24.274 0-44.137 19.86-44.137 44.137v53.285c5.473 7.352-8.828 16.348-8.828 26.164v88.274c0 6.765 15.988 13.109 13.242 18.847 7.113 14.875 22.211 25.293 39.723 25.293 14.46 0 27.254-7.14 35.312-17.972-5.472-7.356-8.828-16.352-8.828-26.168zm0 0" fill="#3d6f44"/><path d="M52.965 397.242c-24.274 0-44.137-19.863-44.137-44.14V238.344c0-24.274 19.863-44.137 44.137-44.137 24.277 0 44.137 19.863 44.137 44.137v114.758c0 24.277-19.86 44.14-44.137 44.14zm0 0" fill="#61b872"/><path d="M52.965 335.45a8.822 8.822 0 01-6.242-2.587 8.825 8.825 0 010-12.484l17.656-17.656a8.825 8.825 0 0112.484 0 8.825 8.825 0 010 12.484l-17.656 17.656a8.815 8.815 0 01-6.242 2.586zm0 35.308a8.806 8.806 0 01-6.242-2.586L29.07 350.516a8.813 8.813 0 010-12.48 8.813 8.813 0 0112.48 0l17.657 17.655a8.813 8.813 0 010 12.48 8.799 8.799 0 01-6.242 2.587zm88.277-35.308a8.815 8.815 0 01-6.242-2.587 8.818 8.818 0 010-12.484l17.656-17.656a8.82 8.82 0 0112.48 0 8.818 8.818 0 010 12.484l-17.652 17.656a8.822 8.822 0 01-6.242 2.586zm0 35.308a8.799 8.799 0 01-6.242-2.586l-17.656-17.656a8.82 8.82 0 010-12.48 8.818 8.818 0 0112.484 0l17.656 17.655a8.82 8.82 0 010 12.48 8.806 8.806 0 01-6.242 2.587zm0-114.758a8.799 8.799 0 01-6.242-2.586 8.818 8.818 0 010-12.484l17.656-17.653a8.813 8.813 0 0112.48 0 8.813 8.813 0 010 12.48l-17.652 17.657a8.806 8.806 0 01-6.242 2.586zm0 35.309a8.799 8.799 0 01-6.242-2.586l-17.656-17.653a8.825 8.825 0 010-12.484 8.825 8.825 0 0112.484 0l17.656 17.656a8.82 8.82 0 010 12.48 8.806 8.806 0 01-6.242 2.587zm0 0" fill="#be7c6d"/><path d="M220.691 397.242c-24.277 0-44.14-19.863-44.14-44.14v-88.274c0-24.277 19.863-44.137 44.14-44.137 24.274 0 44.137 19.86 44.137 44.137v88.274c0 24.277-19.863 44.14-44.137 44.14zm0 0" fill="#61b872"/><path d="M220.691 361.93a8.799 8.799 0 01-6.242-2.586 8.813 8.813 0 010-12.48l17.656-17.657a8.813 8.813 0 0112.48 0 8.813 8.813 0 010 12.48l-17.655 17.657a8.79 8.79 0 01-6.239 2.586zM52.965 436.34c-4.871 0-8.828-3.957-8.828-8.828V273.656a8.829 8.829 0 0117.656 0v153.856c0 4.87-3.953 8.828-8.828 8.828zm0 0" fill="#be7c6d"/><path d="M459.035 397.242c24.274 0 44.137-19.863 44.137-44.14V238.344c0-24.274-19.863-44.137-44.137-44.137-24.277 0-44.137 19.863-44.137 44.137v114.758c0 24.277 19.86 44.14 44.137 44.14zm0 0" fill="#1a9172"/><path d="M459.035 335.45a8.815 8.815 0 01-6.242-2.587l-17.656-17.656a8.825 8.825 0 010-12.484 8.825 8.825 0 0112.484 0l17.656 17.656a8.825 8.825 0 010 12.484 8.822 8.822 0 01-6.242 2.586zm0 35.308a8.799 8.799 0 01-6.242-2.586 8.813 8.813 0 010-12.48l17.656-17.657a8.813 8.813 0 0112.48 0 8.813 8.813 0 010 12.48l-17.652 17.657a8.806 8.806 0 01-6.242 2.586zm0 0" fill="#be7c6d"/><path d="M370.758 397.242c24.277 0 44.14-19.863 44.14-44.14V150.07c0-24.277-19.863-44.14-44.14-44.14-24.274 0-44.137 19.863-44.137 44.14v203.032c0 24.277 19.863 44.14 44.137 44.14zm0 0" fill="#23a24d"/><g fill="#be7c6d"><path d="M370.758 476.691c-4.871 0-8.828-3.957-8.828-8.828V185.38c0-4.871 3.957-8.828 8.828-8.828 4.875 0 8.828 3.957 8.828 8.828v282.484c0 4.871-3.953 8.828-8.828 8.828zm0 0"/><path d="M370.758 335.45a8.822 8.822 0 01-6.242-2.587l-17.653-17.656a8.818 8.818 0 010-12.484 8.82 8.82 0 0112.48 0L377 320.379a8.818 8.818 0 010 12.484 8.815 8.815 0 01-6.242 2.586zm0 35.308a8.806 8.806 0 01-6.242-2.586 8.82 8.82 0 010-12.48l17.656-17.657a8.818 8.818 0 0112.484 0 8.82 8.82 0 010 12.48L377 368.173a8.799 8.799 0 01-6.242 2.586zm0-114.758a8.806 8.806 0 01-6.242-2.586l-17.653-17.656a8.813 8.813 0 010-12.48 8.813 8.813 0 0112.48 0L377 240.93a8.818 8.818 0 010 12.484 8.799 8.799 0 01-6.242 2.586zm0 35.309a8.806 8.806 0 01-6.242-2.586 8.82 8.82 0 010-12.48l17.656-17.657a8.825 8.825 0 0112.484 0 8.825 8.825 0 010 12.484L377 288.723a8.799 8.799 0 01-6.242 2.586zM300.137 432.55c-4.871 0-8.828-3.952-8.828-8.827V185.379c0-4.871 3.957-8.828 8.828-8.828 4.875 0 8.828 3.957 8.828 8.828v238.344a8.829 8.829 0 01-8.828 8.828zm0 0"/><path d="M300.137 335.45a8.806 8.806 0 01-6.239-2.587l-17.656-17.656a8.818 8.818 0 010-12.484 8.82 8.82 0 0112.48 0l17.657 17.656a8.818 8.818 0 010 12.484 8.815 8.815 0 01-6.242 2.586zm0-79.45a8.79 8.79 0 01-6.239-2.586l-17.656-17.656a8.813 8.813 0 010-12.48 8.813 8.813 0 0112.48 0l17.657 17.652a8.818 8.818 0 010 12.484 8.799 8.799 0 01-6.242 2.586zm158.898 180.34c-4.875 0-8.828-3.957-8.828-8.828V273.656a8.829 8.829 0 0117.656 0v153.856c0 4.87-3.957 8.828-8.828 8.828zm0 0"/></g><path d="M176.55 353.102v-88.274c0-9.816 3.356-18.812 8.829-26.164V150.07c0-24.277-19.863-44.14-44.137-44.14-24.277 0-44.14 19.863-44.14 44.14v203.032c0 24.277 19.863 44.14 44.14 44.14 17.512 0 32.61-10.418 39.723-25.293-2.746-5.738-4.414-12.082-4.414-18.847zm0 0" fill="#23a24d"/><path d="M141.242 457.297c-4.875 0-8.828-3.957-8.828-8.828v-263.09c0-4.871 3.953-8.828 8.828-8.828 4.871 0 8.828 3.957 8.828 8.828v263.09c0 4.87-3.957 8.828-8.828 8.828zm79.449-3.039a8.829 8.829 0 01-8.828-8.828V300.137c0-4.871 3.953-8.828 8.828-8.828 4.871 0 8.825 3.957 8.825 8.828V445.43a8.823 8.823 0 01-8.825 8.828zm0 0" fill="#be7c6d"/><path d="M396.438 448.352c2.55 0 4.968.77 7.292 1.855 8.016-19.324 21.875-26.484 37.649-26.484 15.773 0 29.625 7.16 37.648 26.484 2.325-1.086 4.743-1.855 7.293-1.855 14.176 0 25.68 6.046 25.68 28.34H370.758c0-22.294 11.496-28.34 25.68-28.34zm-256 0c2.55 0 4.968.77 7.292 1.855 8.016-19.324 21.875-26.484 37.649-26.484 15.773 0 29.625 7.16 37.648 26.484 2.325-1.086 4.743-1.855 7.293-1.855 14.176 0 25.68 6.046 25.68 28.34H114.758c0-22.294 11.496-28.34 25.68-28.34zm0 0" fill="#61b872"/><path d="M128 450.648c-3.7-1.57-7.902-2.296-12.438-2.296-2.55 0-4.968.77-7.292 1.855-8.024-19.324-21.875-26.484-37.649-26.484-15.773 0-29.625 7.16-37.648 26.484-2.325-1.086-4.743-1.855-7.293-1.855-14.188 0-25.68 6.046-25.68 28.34h114.758c0-15.16 5.375-22.7 13.242-26.044zm0 0" fill="#23a24d"/><path d="M345.078 448.352c-2.55 0-4.969.77-7.289 1.855-8.016-19.324-21.875-26.484-37.652-26.484-15.774 0-29.625 7.16-37.649 26.484-2.32-1.086-4.742-1.855-7.293-1.855-4.535 0-8.738.726-12.437 2.296 7.867 3.344 13.242 10.883 13.242 26.043h114.758c0-22.293-11.492-28.34-25.68-28.34zm0 0" fill="#3d6f44"/></svg>