<svg viewBox="0 0 512 512.001" xmlns="http://www.w3.org/2000/svg"><path d="M70.617 484.387l-45.96-45.961 24.25-24.25 21.71 21.71c13.39 13.391 13.39 35.106 0 48.5zM197.668 416v-40h30.664c22.094 0 40 17.91 40 40zm0 0" fill="#ffc66c"/><path d="M370 199.988h-82.902l-43.567-20.652-.258.457.258-.523-32.66-16.11c-21.59-10.644-47.723-1.777-58.367 19.813L103.668 282h89.2l32.945-66.809.035-.066 52.25 24.863.023-.05v.05H370c11.047 0 20-8.953 20-20s-8.953-20-20-20zm0 0" fill="#ade5ff"/><path d="M143.668 282h69.914c13.3 0 24.086 10.781 24.086 24.082V376h-40v-39.918c0-7.777-6.3-14.082-14.078-14.082h-18.133c-12.035 0-21.789 9.758-21.789 21.793v14.922a41.733 41.733 0 01-12.227 29.512L77.2 442.469l-28.281-28.285 54.75-54.75-1.844-2.914a66.757 66.757 0 01-1.027-69.668l2.871-4.852zm0 0" fill="#72d8ff"/><path d="M173.598 161.113l-17.48-8.62c-21.587-10.645-47.72-1.774-58.364 19.812L63.18 242.406c-7.856 15.93-1.203 35.211 14.8 42.906l19.239 9.254zm0 0" fill="#36d28f"/><path d="M281.313 113.656c0 24.852-20.149 45-45 45s-45-20.148-45-45 20.148-45 45-45 45 20.149 45 45zm0 0" fill="#ffd0bb"/><path d="M502 60c0 27.613-22.387 50-50 50s-50-22.387-50-50 22.387-50 50-50 50 22.387 50 50zm0 0" fill="#ffc66c"/><path d="M457.07 312.89a21.405 21.405 0 00-15.511 6.653l-69.793 73.352A74.394 74.394 0 01317.879 416H213.582a23.374 23.374 0 00-16.406 6.727l-72.79 71.738a26.209 26.209 0 01-18.39 7.535H502V312.89zm0 0" fill="#ffb954"/><path d="M502 302.89h-44.93c-8.562 0-16.855 3.555-22.757 9.758L369 381.293V249.988h1c16.543 0 30-13.457 30-30s-13.457-30-30-30h-1V136c0-5.523-4.477-10-10-10s-10 4.477-10 10v53.988h-59.652l-40.602-19.246c-.258-.156-.52-.308-.793-.445l-4.344-2.14c26.891-3.583 47.704-26.65 47.704-54.5 0-30.329-24.672-55-55-55-30.325 0-55 24.671-55 55 0 13.323 4.765 25.55 12.675 35.077a53.762 53.762 0 00-18.14 2.34l-15.305-7.55c-26.5-13.067-58.691-2.141-71.758 24.359l-34.57 70.101c-4.992 10.118-5.711 21.559-2.035 32.223 3.68 10.664 11.304 19.23 21.468 24.121l10.84 5.211c-5.64 19.375-3.437 40.324 6.551 58.383l-.883.883c0 .004-.008.007-.008.007a64.74 64.74 0 00-.011.012l-48.121 48.121c-.059.059-.121.106-.18.16l-24.25 24.25c-3.902 3.907-3.902 10.239 0 14.145l45.96 45.957c.192.195.395.371.602.543H10c-5.523 0-10 4.477-10 10s4.477 10 10 10h96c9.566 0 18.59-3.7 25.406-10.414l72.79-71.738a13.301 13.301 0 019.386-3.848h104.297c22.996 0 45.277-9.555 61.129-26.215l69.793-73.351a11.468 11.468 0 018.27-3.547H492V502c0 5.523 4.48 10 10 10 5.523 0 10-4.477 10-10V312.89c0-5.523-4.477-10-10-10zm-122-82.902c0 5.512-4.484 10-10 10h-79.387l4.489-20H370c5.512 0 10 4.485 10 10zM236.312 78.656c19.301 0 35 15.7 35 35 0 19.297-15.699 35-35 35-19.296 0-35-15.703-35-35 0-19.3 15.704-35 35-35zm-29.867 93.473l31.758 15.66c.332.211.68.41 1.043.582l36.344 17.227-4.492 20.007-40.418-19.164c-.063-.027-.13-.05-.192-.078-.093-.047-.18-.105-.273-.148l-22.145-10.86a10.002 10.002 0 00-8.805 17.96l13.145 6.443L186.648 272H119.75l41.723-84.605c8.191-16.61 28.363-23.458 44.972-15.266zM125.473 380l-14.141-14.145a9.983 9.983 0 002.32-6.855h20.008c-.066 7.836-2.953 15.223-8.187 21zm17.504-58.688c-4.86 4.86-7.95 11.016-8.954 17.688h-29.566a56.364 56.364 0 01.816-38.543 9.95 9.95 0 00.954-1.559c.394-.82.656-1.668.816-2.52a56.114 56.114 0 012.328-4.378h78.113l-10 20h-12.027c-8.492 0-16.477 3.309-22.48 9.313zm64.691 22.606l20-5.375V366h-20zm20-26.086l-23.223 6.242a24.238 24.238 0 00-6.851-7.562L209.848 292h3.734c7.766 0 14.086 6.32 14.086 14.082zm-75.973-156.371l3.325 1.64a53.341 53.341 0 00-11.485 15.45l-8.86 17.965-30.753-14.114 2.8-5.672c8.188-16.609 28.364-23.46 44.973-15.27zm-80.61 102.223a21.794 21.794 0 011.063-16.856l22.926-46.48 30.75 14.113-30.957 62.773-2.351 3.973-10.2-4.906c-5.316-2.555-9.304-7.04-11.23-12.617zM97.22 380.027l14.14 14.141-34.16 34.16-14.14-14.14zM38.8 438.426l10.105-10.106 14.637 14.637c4.59 4.59 7.117 10.688 7.117 17.18a24.3 24.3 0 01-1.558 8.593zm78.566 48.914A16.114 16.114 0 01106 492H77.086c.203-.176.406-.352.602-.543 8.367-8.367 12.972-19.488 12.972-31.32 0-5.032-.84-9.93-2.437-14.543l50.293-50.297c9.77-9.774 15.152-22.762 15.152-36.582v-14.922c0-3.148 1.227-6.11 3.453-8.336a11.697 11.697 0 018.336-3.453h18.133a4.087 4.087 0 014.078 4.082v79.918c0 .64.066 1.266.18 1.875zM213.582 406h-5.914v-20h20.664c13.04 0 24.16 8.36 28.285 20zm63.742 0c-3.324-16.328-14.633-29.785-29.656-36.11v-63.808c0-18.793-15.293-34.082-34.086-34.082h-4.637l21.477-43.547 43.39 20.57c.348.168.708.301 1.07.426.063.02.126.035.184.055.149.047.293.098.442.137.066.02.137.027.203.043.074.02.144.043.219.062.168.035.34.055.507.082.157.027.31.059.465.078.41.051.82.082 1.227.082H349V397.95c-9.46 5.215-20.184 8.051-31.121 8.051zM359 103.172c2.629 0 5.21-1.07 7.07-2.93a10.1 10.1 0 002.93-7.07c0-2.633-1.07-5.211-2.93-7.07-1.86-1.872-4.441-2.93-7.07-2.93s-5.21 1.058-7.07 2.93a10.073 10.073 0 00-2.93 7.07 10.1 10.1 0 002.93 7.07 10.08 10.08 0 007.07 2.93zM452 120c33.082 0 60-26.918 60-60 0-33.086-26.918-60-60-60-33.086 0-60 26.914-60 60 0 33.082 26.914 60 60 60zm0-100c22.055 0 40 17.945 40 40s-17.945 40-40 40-40-17.945-40-40 17.945-40 40-40zm0 0"/></svg>