<svg xmlns="http://www.w3.org/2000/svg" viewBox="0 0 64 64" width="512" height="512"><path d="M46.446 12a2 2 0 001.029-.285L52 9l-4.525-2.715A2 2 0 0046.446 6H30a3 3 0 00-3 3 3 3 0 003 3z" fill="#46b29d"/><path d="M37 19a3 3 0 01-3 3H17.554a2 2 0 01-1.029-.285L12 19l4.525-2.715A2 2 0 0117.554 16H34a3 3 0 013 3zm0 10a3 3 0 01-3 3H17.554a2 2 0 01-1.029-.285L12 29l4.525-2.715A2 2 0 0117.554 26H34a3 3 0 013 3z" fill="#f1bf37"/><path d="M27 39a3 3 0 003 3h16.446a2 2 0 001.029-.285L52 39l-4.525-2.715A2 2 0 0046.446 36H30a3 3 0 00-3 3z" fill="#324d5c"/><path d="M52.515 38.143l-4.526-2.715A2.988 2.988 0 0046.446 35H33v-2h1a4 4 0 000-8h-1v-2h1a4 4 0 000-8h-1v-2h8a1 1 0 000-2H30a2 2 0 010-4h16.446a1 1 0 01.514.143L50.056 9l-3.095 1.857a1.007 1.007 0 01-.515.143H45a1 1 0 000 2h1.446a2.994 2.994 0 001.544-.428l4.525-2.715a1 1 0 000-1.714l-4.526-2.715A2.988 2.988 0 0046.446 5H33V3a1 1 0 00-2 0v2h-1a4 4 0 000 8h1v2H17.554a2.994 2.994 0 00-1.544.428l-4.525 2.715a1 1 0 000 1.714l4.526 2.715a2.988 2.988 0 001.543.428H31v2H17.554a2.994 2.994 0 00-1.544.428l-4.525 2.715a1 1 0 000 1.714l4.526 2.715a2.988 2.988 0 001.543.428H31v2h-1a4 4 0 000 8h1v15h-5a1 1 0 00-1 1v2a1 1 0 002 0v-1h10v1a1 1 0 002 0v-2a1 1 0 00-1-1h-5V43h13.446a2.994 2.994 0 001.544-.428l4.525-2.715a1 1 0 000-1.714zM17.04 20.857L13.944 19l3.1-1.857a1.007 1.007 0 01.51-.143H34a2 2 0 010 4H17.554a1 1 0 01-.514-.143zm0 10L13.944 29l3.1-1.857a1.007 1.007 0 01.51-.143H34a2 2 0 010 4H17.554a1 1 0 01-.514-.143zm29.921 10a1.007 1.007 0 01-.515.143H30a2 2 0 010-4h16.446a1 1 0 01.514.143L50.056 39z"/></svg>