<svg height="512" viewBox="0 0 64 64" width="512" xmlns="http://www.w3.org/2000/svg"><circle cx="20" cy="20" fill="#f3e64d" r="10"/><path d="M56 38v16H46v-4c0-2.21-1.79-4-4-4H32v-4c0-2.21 1.79-4 4-4z" fill="#e6a700"/><path d="M46 50v4H8v-8h34c2.21 0 4 1.79 4 4z" fill="#f2c03a"/><path d="M32 20c0-6.617-5.383-12-12-12S8 13.383 8 20s5.383 12 12 12 12-5.383 12-12zm-20 0c0-4.411 3.589-8 8-8s8 3.589 8 8-3.589 8-8 8-8-3.589-8-8zm38 12v-4a7.984 7.984 0 00-6 2.714A7.984 7.984 0 0038 28v4c2.206 0 4 1.794 4 4h-6c-3.309 0-6 2.691-6 6v2h-8c0-2.206 1.794-4 4-4v-4a7.984 7.984 0 00-6 2.714A7.984 7.984 0 0014 36v4c2.206 0 4 1.794 4 4H8v4h34c1.103 0 2 .897 2 2v2H8v4h48v-4h-8v-2c0-3.309-2.691-6-6-6h-8v-2c0-1.103.897-2 2-2h20v-4H46c0-2.206 1.794-4 4-4z" fill="#532c00"/></svg>