<svg height="511pt" viewBox="-25 1 511 511.999" width="511pt" xmlns="http://www.w3.org/2000/svg"><g fill-rule="evenodd"><path d="M100.133 340.75c-3.598 5.582-35.516 55.633-39.598 43.984-6.21-17.629-29.906-22.304-43.289-14.425-18.96 11.136-5.668 49.933 13.465 49.933h44.508l71.18-5.27c52.074-58.636 54.453-125.745 9.808-200.874-37.875.03-52.644 22.25-52.613 77.597v8.614c0 18.476 2.777 30.89-3.461 40.441zm286.648 79.605h44.504c19.137 0 32.43-38.765 13.465-49.933-13.379-7.852-37.078-3.176-43.285 14.453-4.11 11.648-36-38.43-39.602-43.984-6.234-9.579-3.457-21.961-3.457-40.442v-8.613c0-55.375-14.742-77.566-52.613-77.594.031 0 .031.028.059.028-55.79 78.953-40.934 205.746 80.93 206.085zm0 0" fill="#ffdda6"/><path d="M141.098 257.348c-.114 10.004.793 21.226 5.3 30.52.934 1.929 2.012 3.796 3.286 5.527 1.87 2.55 4.027 4.675 6.523 6.207 15.25 12.496 47.082 17.199 71.063 10.539 4.539-1.274 3.035-1.22 7.57 0 24.379 6.546 56.582.738 70.953-10.54 4.394-2.722 7.539-6.831 9.809-11.593 4.449-9.406 5.414-21.422 5.3-30.664-.48-14.68-4.875-32.418-15.109-43.246H156.207c-7.77 8.191-12.559 20.972-14.375 34.32a85.978 85.978 0 00-.734 8.93zm0 0" fill="#64b0d9"/><path d="M146.398 266.813v110.242l91.305 35.507 77.899-35.507v-110.13c-2.27 4.79-5.414 8.872-9.809 11.59-14.371 11.31-46.574 17.09-70.953 10.544-4.535-1.192-3.031-1.247-7.57 0-23.98 6.66-55.813 1.953-71.063-10.543-2.496-1.532-4.652-3.657-6.523-6.207-1.274-1.727-2.352-3.57-3.286-5.496zm0 0" fill="#64b0d9"/><path d="M105.52 399.953l136.918 63.168 114.039-63.168-40.875-22.898H146.398zm0 0" fill="#0f941e"/><path d="M141.098 257.348c-.114 10.004.793 21.226 5.3 30.52 2.211 4.593 5.415 9.01 9.809 11.734 15.25 12.496 47.082 17.203 71.063 10.543 4.539-1.278 3.035-1.22 7.57 0 24.379 6.546 56.582.734 70.953-10.543 4.394-2.723 7.539-6.832 9.809-11.59 4.449-9.41 5.414-21.426 5.3-30.664-.086-2.977-.367-6.121-.793-9.27-.765 5.668-2.156 11.422-4.507 16.438-2.27 4.761-5.415 8.87-9.809 11.59-14.371 11.28-46.574 17.062-70.953 10.542-4.535-1.218-3.031-1.273-7.57 0-23.98 6.66-55.813 1.957-71.063-10.543-2.496-1.558-4.652-3.656-6.523-6.203-1.274-1.73-2.352-3.601-3.286-5.527-2.41-4.988-3.8-10.516-4.535-16.098l-.031.145a85.815 85.815 0 00-.734 8.926zm0 0" fill="#4a83c9"/><path d="M242.438 434.668c-86.149 0-108.231 69.773-87.282 69.773h38.637c7.144-32.816 23.473-55.914 48.644-69.773zm0 0" fill="#ffdda6"/><path d="M75.219 420.242c-21.375 29.817-12.985 84.2 48.613 84.2h31.324c-20.949 0 1.133-69.774 87.281-69.774-41.273-25.648-102.25-42.172-136.917-34.715-8.192 2.918-23.16 10.485-30.188 20.121-.031.028-.031.055-.059.082-.027.031-.027.059-.054.086zm0 0" fill="#50d960"/><path d="M242.438 434.668c-25.172 13.86-41.5 36.953-48.645 69.773h150.129c48.984 0 59.64-56.394 43.226-84.199h-.367c-6.972-9.719-22.082-17.37-30.304-20.289-45.043-3.289-88.157 19.61-114.04 34.715zm0 0" fill="#50d960"/><path d="M65.57 443.102c-5.36 28.601 10.407 61.398 58.24 61.398h31.332c-7.657 0-9.555-9.3-4.735-21.09H123.81c-36.207 0-54.043-18.765-58.239-40.308zm0 0" fill="#0f941e"/><path d="M150.406 483.41c-4.82 11.79-2.922 21.09 4.735 21.09h38.644c1.645-7.54 3.77-14.57 6.38-21.09zm0 0" fill="#fcc368"/><path d="M200.172 483.355c-2.61 6.52-4.734 13.547-6.379 21.086h150.129c39.629 0 54.2-36.957 49.578-65.804-3.602 23.097-19.246 44.718-49.578 44.718zm0 0" fill="#0f941e"/><path d="M9.48 379.887c-5.585 15.644 5.954 40.355 21.23 40.355h44.51l.054-.082.059-.086c6.066-8.332 18.055-15.105 26.477-18.676l-26.11 1.926H31.195c-10.32 0-18.937-11.277-21.715-23.437zm349.125 20.859c8.504 3.402 21.77 10.57 28.176 19.496h.367c.028.031.028.086.059.113h44.078c14.715 0 25.969-22.898 21.774-38.57-3.176 11.45-11.454 21.68-21.262 21.68h-44.531c-10.293-.027-19.844-.961-28.66-2.719zm0 0" fill="#fcc368"/><path d="M378.844 158.41c-33.223-19.523-16.356-77.082-25.711-100.887-10.688-27.265-43.059-16.21-54.14-16.21l-15.708 51.351 18.797 62.688c19.645 30.949 54.34 28.171 75.883 19.554 10.66-4.281 12.36-9.75.879-16.496zm0 0" fill="#b5722f"/><path d="M267.582 214.098v-39.844l-36.484-14.313-36.68 14.055v40.102c0 20.207 16.383 36.59 36.566 36.59 20.215 0 36.598-16.383 36.598-36.59zm0 0" fill="#fcc368"/><path d="M302.082 155.352c8.02-11.309 13.04-24.457 13.04-38.77l.112-26.723-81.472-50.957-85.465 35.707a69.567 69.567 0 00-1.106 11.989l-.113 33.554c0 27.575 23.527 51.41 47.34 64.73 13.578 7.622 27.27 11.79 36.68 11.278 11.507-.652 24.379-4.535 36.484-11.023 13.293-7.114 25.711-17.317 34.5-29.785zm0 0" fill="#ffdda6"/><path d="M208.648 63.473c27.864 27.12 52.727 33.84 106.586 26.382V86.57c.055-16.918-6.21-32.507-16.242-45.257-16.246-20.633-42.351-33.926-67.637-33.754-38.27.253-76.171 29.445-83.058 67.05 37.59 17.204 39.941-31.004 60.351-11.136zm0 0" fill="#b5722f"/><path d="M315.234 86.57c.055-16.918-6.21-32.507-16.242-45.257-16.246-20.633-42.351-33.926-67.637-33.754-6.89.027-13.777 1.02-20.437 2.804 23.3 1.817 46.574 14.57 61.512 33.555 6.52 8.277 11.453 17.742 14.09 27.973a72.234 72.234 0 011.273 6.035 70.02 70.02 0 01.91 11.25l-.031 3.289c8.05-.367 16.84-1.246 26.562-2.61zm0 0" fill="#8a541e"/><path d="M315.121 116.582l.113-26.723c-9.722 1.36-18.511 2.239-26.562 2.606l-.055 17.937-.058 8.785c0 14.313-5.016 27.461-13.012 38.77-3.684 5.215-7.992 10.031-12.754 14.426-6.606 6.035-14.035 11.222-21.773 15.36-6.122 3.288-12.442 5.921-18.68 7.765 3.176.566 6.12.793 8.758.652 11.507-.652 24.379-4.535 36.484-11.023 13.293-7.114 25.711-17.317 34.5-29.785 8.02-11.309 13.04-24.457 13.04-38.77zm0 0" fill="#fcc368"/><path d="M378.844 158.41c-33.223-19.523-16.356-77.082-25.711-100.887-5.668-14.453-17.461-18.136-28.914-18.421 4.11 3.203 7.625 7.707 10.12 14.027C345 80.277 325.75 145.914 363.622 168.16c5.36 3.145 8.191 6.035 8.875 8.7 1.899-.594 3.711-1.274 5.469-1.954 10.66-4.281 12.36-9.75.879-16.496zm0 0" fill="#8a541e"/><path d="M267.582 201.8v-16.663c-12.105 6.488-24.977 10.37-36.484 11.023-9.41.512-23.102-3.656-36.68-11.277v16.238l.367.227c13.578 7.593 27.27 11.789 36.684 11.25 5.726-.313 11.789-1.446 17.914-3.286 4.336-1.304 3.004 3.54 2.976 4.79v2.918c0 15.105-9.156 28.085-22.226 33.636.285.031.57.031.851.031 20.211 0 36.598-16.382 36.598-36.59zm0 0" fill="#eda93b"/></g><path d="M448.574 363.902c-9.23-5.414-21.906-6.238-33.086-2.144-7.976 2.918-14.281 7.972-18.277 14.535-4.281-4.305-12.91-14.574-28.508-38.742l-.504-.781c-3.336-5.122-3.023-12.637-2.586-23.043.164-3.946.348-8.422.348-13.278v-8.613c0-29.973-4.254-50.238-13.395-63.781-9.453-14.008-24.253-20.985-45.171-21.336a7.293 7.293 0 00-1.602-.18h-30.656v-16.976c5.699-3.348 11.176-7.204 16.246-11.52a104.73 104.73 0 0010.543-10.316c13.066 14.886 30.328 20.43 47.164 20.43 11.21 0 22.234-2.458 31.691-6.239 3.172-1.273 12.82-5.148 13.477-13.945.668-8.88-8.555-14.297-11.586-16.078-18.082-10.625-18.32-37.25-18.531-60.739-.121-13.828-.239-26.894-3.973-36.394-10.86-27.7-40.02-23.7-54.031-21.778-1.348.188-2.653.364-3.828.504a93.402 93.402 0 00-4.914-5.312C279.66 10.508 255.195 0 231.84 0h-.535c-22.407.152-45.336 9.402-62.903 25.387-18.476 16.808-28.695 38.539-28.77 61.183l-.112 33.582c0 23.34 14.234 41.711 26.175 53.02 6.414 6.07 13.668 11.523 21.164 16.09v17.277H156.2c-53.054.043-60.183 43.07-60.164 85.152v8.618c0 4.851.188 9.328.352 13.28.433 10.411.746 17.934-2.582 23.028l-.024.035-.312.493c-14.54 22.59-23.746 34.09-28.66 39.043-3.996-6.586-10.317-11.657-18.317-14.579-11.18-4.082-23.86-3.242-33.07 2.184-11.145 6.543-15.59 20.902-11.328 36.578 3.594 13.211 14.082 27.43 28.617 27.43h31.617c-7.144 16.613-7.215 35.945.527 51.797 5.91 12.101 21.692 32.398 60.977 32.398h69.941c.012 0 .02.004.028.004s.012-.004.02-.004h72.32c7.582-6.664 2.96-15.113-3.633-15.113h-58.985c7.47-25.7 21.43-43.95 42.532-55.578 0 0 .004 0 .007-.004l.02-.012c.035-.02.063-.043.098-.059.023-.015.047-.023.07-.035 29.242-17.066 67.883-36.242 108.297-33.785 7.715 2.875 20.57 9.649 26.094 17.352.273.379.586.718.918 1.039 7.507 14.414 6.867 35.941-1.75 51.035-5.22 9.144-15.684 20.047-35.887 20.047H292.27c-7.586 6.668-2.965 15.117 3.632 15.117h48.02c21.422 0 38.828-9.828 49.015-27.672 9.458-16.57 11.426-38.562 5.793-56.414h32.56c14.526 0 25.015-14.2 28.608-27.394 4.27-15.68-.168-30.047-11.324-36.618zm-206.047 61.989c-32.226-19.086-72.886-31.996-105.894-34.707l11.734-6.575 66.938.032h3.636c7.586-6.66 2.97-15.114-3.628-15.118l-61.36-.023v-62.133c12.121 8.57 30.879 13.375 49.59 13.375 8.84 0 17.668-1.074 25.773-3.324.63-.176 1.149-.328 1.586-.457.043-.016.086-.027.13-.04.491.145 1.093.317 1.85.52 24.497 6.579 57.337 1.996 75.165-10.144v62.2h-61.73c-7.583 6.663-2.962 15.112 3.632 15.112h63.477l15.62 8.754c-33.171 4.418-63.839 19.547-86.519 32.528zm69.676-378.446c15.426-1.847 28.344-1.328 33.899 12.84 2.71 6.906 2.816 18.613 2.93 31.008.23 26.14.523 58.668 25.984 73.637a26.442 26.442 0 012.707 1.785c-.641.344-1.48.738-2.563 1.176-7.16 2.863-42.625 15.129-63.93-12.63 7.485-12.097 11.446-25.269 11.446-38.648l.101-26.293c.016-.265.016-.535.004-.804l.008-2.918c.047-13.61-3.64-26.989-10.586-39.153zm-80.797-32.328c.149-.004.293-.004.442-.004 19.433 0 39.922 8.867 54.879 23.77 12.695 12.644 20.02 28.281 20.867 44.344-46.516 5.691-68.207-.38-93.676-25.168-14.68-14.293-25.844-3.54-32.512 2.882-6.703 6.457-12.62 12.145-24.152 8.954 8.887-30.063 40.273-54.551 74.152-54.778zm-55.32 147.078c-9.785-9.265-21.453-24.078-21.453-42.015l.113-33.555c.004-.594.04-1.18.063-1.77 18.886 4.473 30.03-6.242 37.078-13.027 2.617-2.516 5.316-5.117 7.011-5.629 1.223-.36 3.735 1.965 4.477 2.692 22.605 22 43.746 31.351 76.488 31.351 8.414 0 17.606-.625 27.77-1.805l-.07 18.145c0 40.73-46.274 70.328-76.88 72.031-.382.024-.777.035-1.183.035-12.48-.003-35.852-9.824-53.414-26.453zm83.937 34.813v21.535c0 7.055-3.41 13.676-9.156 17.77-23.46 16.707-48.894.164-48.894-22.211v-16.997c9.84 4.239 19.433 6.657 27.48 6.657.7 0 1.39-.02 2.067-.055 9.214-.516 18.957-2.863 28.503-6.7zm-111.37 60.488a80.12 80.12 0 01.667-8.059c1.532-11.253 5.254-21.167 10.356-27.78h27.832c3.594 20.753 21.722 36.585 43.476 36.585 21.77 0 39.91-15.832 43.508-36.586h27.832c7.516 9.7 10.637 24.555 11.024 35.852.07 7.344-.57 18.523-4.352 26.836-.152.27-.285.55-.402.84-1.653 3.351-3.856 6.175-6.785 7.996a7.385 7.385 0 00-.684.476c-11.879 9.324-41.223 15.39-64.324 9.188-.668-.18-1.192-.332-1.621-.453-3.48-1.008-4.918-.996-8.54.07-.39.113-.855.25-1.39.398-21.746 6.04-51.57 1.715-64.676-9.457-.004 0-.004-.004-.008-.004-1.683-.93-3.296-2.441-4.77-4.449-4.968-6.84-7.304-17.129-7.144-31.453zM16.68 396.406c-1.84-6.761-1.79-15.945 4.402-19.586 2.965-1.746 6.84-2.636 10.879-2.636 3.133 0 6.367.535 9.348 1.625 3.457 1.261 9.629 4.425 12.093 11.425 1.325 3.782 4.344 6.301 8.075 6.743 5.878.699 12.168-2.809 26.96-22.735 4.774-6.433 10.086-14.144 15.81-22.933h16.558c7.586-6.664 2.96-15.118-3.633-15.118h-6.219c1.11-6.183.84-12.906.535-20.23-.164-3.988-.34-8.113-.34-12.652v-8.618c-.011-26.433 3.52-44.527 10.801-55.308 4.547-6.735 10.715-11 19.246-13.117-3.293 7.039-5.64 15.234-6.851 24.156a94.161 94.161 0 00-.801 9.71c0 .04-.004.083-.004.126-.101 8.687.422 20.445 4.875 31.226.129.34.27.684.426 1.043v83.098l-36.469 20.43c-7.996 2.93-22.105 9.906-30.762 19.632H30.711c-5.383 0-11.547-7.152-14.031-16.28zm59.758 76.559c-7.188-14.715-5.13-34.313 4.91-48.305l.011-.012c5.618-7.832 18.543-14.597 26.2-17.39 26.343-5.453 71.293 4.094 109.086 22.015-24.305 4.254-40.856 14.051-51.208 22.614-15.312 12.656-25.207 29.593-25.207 43.148 0 .637.032 1.25.075 1.848h-16.473c-29.52 0-42.066-13.004-47.394-23.918zm111.394 23.918h-32.309c-.503-1.801-.312-7.29 4.176-15.356 8.344-15 27.117-30.8 56.735-36.793-13.5 13.43-23.075 30.875-28.602 52.149zm257.48-100.34c-2.48 9.117-8.644 16.258-14.027 16.258h-40.898c-8.407-9.418-22.055-16.317-30.153-19.399a7.345 7.345 0 00-1.148-.539l-35.926-20.125v-83.152c4.313-10.121 5.403-22.176 5.3-32.316-.003-.06-.003-.114-.003-.172-.406-12.297-3.117-24.004-7.605-33.66 8.496 2.12 14.656 6.363 19.187 13.074 7.274 10.777 10.809 28.875 10.809 55.324v8.617c0 4.54-.172 8.66-.34 12.645-.305 7.328-.574 14.05.539 20.238h-9.852c-7.582 6.664-2.965 15.113 3.633 15.113h12.926c3.367 5.18 9.59 14.586 16.105 23.336 14.579 19.582 20.813 23.012 26.653 22.332 3.726-.437 6.746-2.953 8.082-6.73 2.465-7.004 8.629-10.168 12.086-11.434 6.836-2.504 14.976-2.105 20.238.98 6.195 3.649 6.242 12.844 4.394 19.61zm0 0"/><path d="M207.613 116.652c-2.48 2.235-13.613 2.243-16.113.016-4.453-4.527-13.219-2.262-13.352 6.941 4.317 8.977 16.801 9.84 21.332 9.848h.051c4.598 0 17.074-.863 21.426-9.848-.129-9.187-8.883-11.492-13.344-6.957zm53.571 16.805h.101c4.64 0 17.055-.871 21.445-9.828-.117-9.192-8.863-11.508-13.335-6.988-2.477 2.246-13.622 2.265-16.125.027-4.45-4.527-13.227-2.266-13.352 6.941 4.305 8.957 16.75 9.836 21.266 9.848zm0 0"/></svg>