<svg height="512pt" viewBox="0 0 512 512" width="512pt" xmlns="http://www.w3.org/2000/svg"><path d="M169.453 476.855c-26.465 0-47.996-21.53-47.996-48 0-26.464 21.531-47.996 47.996-47.996s47.996 21.532 47.996 47.996c0 26.47-21.531 48-47.996 48zM82.117 512c-16.543 0-30-13.457-30-30s13.457-30 30-30c16.54 0 30 13.457 30 30s-13.46 30-30 30zm141.988-149.852c-28.214 0-53.703-15.015-67.457-38.996h-43.011C50.977 323.152 0 272.172 0 209.512c0-62.66 50.977-113.637 113.637-113.637 5.18 0 10.343.348 15.449 1.043C154.59 38.445 212.555 0 277.203 0c40.172 0 78.684 14.844 108.434 41.793 26.629 24.121 44.332 56.14 50.601 91.14 19.239 4.172 36.79 14.176 50.317 28.864 16.394 17.797 25.422 40.93 25.422 65.14 0 53.055-43.16 96.215-96.211 96.215H291.562c-13.757 23.98-39.246 38.996-67.457 38.996zm0 0" fill="#6ad9eb"/><path d="M436.238 132.934c-6.27-35-23.972-67.02-50.601-91.141C355.887 14.843 317.375 0 277.203 0c-18.445 0-36.34 3.14-53.098 8.973v353.175c28.211 0 53.7-15.015 67.458-38.996h124.199c53.054 0 96.215-43.164 96.215-96.214 0-24.211-9.032-47.344-25.422-65.145-13.528-14.684-31.078-24.688-50.317-28.86zm0 0" fill="#28c1d1"/><path d="M150.203 234.32c3.84 0 7.04 4.48 7.04 10.082 0 5.278-2.72 9.918-7.04 9.918h-51.36c-6.081 0-8.16-4.64-8.16-8.636 0-4 2.239-7.524 4.32-10.243l28.321-37.28h-24.48c-3.84 0-7.04-4.481-7.04-10.079 0-5.281 2.72-9.922 7.04-9.922h47.84c4 0 7.68 2.559 7.68 8.16 0 3.52-1.442 7.36-4 10.72l-28.481 37.28zm100.203-59.246c4.078 0 7.48 4.762 7.48 10.711 0 5.61-2.89 10.54-7.48 10.54h-54.57c-6.457 0-8.668-4.93-8.668-9.18s2.379-7.989 4.59-10.88l30.09-39.609h-26.012c-4.078 0-7.477-4.761-7.477-10.71 0-5.61 2.887-10.54 7.477-10.54h50.828c4.25 0 8.16 2.723 8.16 8.672 0 3.738-1.527 7.817-4.25 11.39l-30.258 39.606zm0 0" fill="#fff"/><path d="M324.46 232.867h46.24c5.097 0 7.987 6.121 7.987 11.559 0 5.441-2.89 11.562-7.988 11.562h-72.418c-5.441 0-7.652-2.89-7.652-6.972 0-2.72 1.02-6.118 2.89-9.348l47.938-84.828H302.02c-5.098 0-7.989-5.442-7.989-11.563 0-5.609 2.38-11.558 7.989-11.558h65.617c5.101 0 7.652 2.89 7.652 6.969 0 2.722-1.02 5.949-2.89 9.351zm-74.054-57.793h-26.3v21.25h26.3c4.59 0 7.48-4.93 7.48-10.539 0-5.95-3.402-10.71-7.48-10.71zm4.418-50.996c0-5.95-3.91-8.672-8.16-8.672h-22.559v54.711l26.47-34.648c2.722-3.574 4.25-7.653 4.25-11.39zm0 0" fill="#f0f6fe"/></svg>